{
.appVersion = "3436";
.formatVersion = 3;
DisplayStrings = (
"
Johanes Gutenbergs
ALFIE BOB CHART DAZED ECHO FIX GOLF HOPE INDIA JOKER KICK LIMA MICK NOVEMBER: OSCILLATE PAPER QUEBEC ROMANIA SIERRA TAMARINA UNITED VITALITY WHISKY X-RATED YOUTH ZANZIBAR! SINCE 1927 WEVE SEEN 328 PRESTIGE PICTURES 65 NON. Alpha Babs Charlie Dazed Echo Foxtrot Golf Hotel India Jojo Kick Lima Mickey November Oscillator Pipa Quebec Roma Sierra Tango United Vivacious Whiskey X-ray Yarrow Zulu

nnnvooooo

Metrics & Kerning
Metrics
Lowercase 02M

glyphs = (
{
glyphname = A;
kernLeft = A;
kernRight = A;
lastChange = "2026-05-22 21:13:15 +0000";
layers = (
{
anchors = (
{
name = bottom;
pos = (370,0);
},
{
name = ogonek;
pos = (611,0);
},
{
name = top;
pos = (363,720);
},
{
name = top_ring;
pos = (363,637);
}
);
background = {
shapes = (
{
closed = 1;
nodes = (
(-587,700,l),
(-514,881,l),
(-501,914,l),
(-379,1209,ls),
(-356,1262,o),
(-348,1289,o),
(-338,1314,c),
(-328,1288,o),
(-319,1262,o),
(-297,1209,cs),
(-176,914,l),
(-163,881,l),
(-89,700,l),
(6,700,l),
(-300,1420,l),
(-376,1420,l),
(-683,700,l)
);
},
{
closed = 1;
nodes = (
(-142,858,l),
(-142,941,l),
(-540,941,l),
(-540,858,l)
);
},
{
closed = 1;
nodes = (
(113,0,l),
(186,181,l),
(199,214,l),
(321,509,ls),
(344,562,o),
(351,589,o),
(359,614,c),
(364,614,l),
(373,588,o),
(380,562,o),
(402,509,cs),
(523,214,l),
(536,181,l),
(610,0,l),
(705,0,l),
(399,720,l),
(324,720,l),
(17,0,l)
);
},
{
closed = 1;
nodes = (
(557,158,l),
(557,241,l),
(160,241,l),
(160,158,l)
);
}
);
};
hints = (
{
horizontal = 1;
place = (0,21);
target = up;
type = BottomGhost;
},
{
horizontal = 1;
place = (158,83);
type = Stem;
},
{
horizontal = 1;
place = (720,-20);
target = down;
type = TopGhost;
},
{
horizontal = 1;
place = (696,13);
type = Stem;
}
);
layerId = "0B84D982-BA46-4CB9-89EB-4BEFB54BBE92";
shapes = (
{
closed = 1;
nodes = (
(113,0,l),
(200,217,l),
(219,264,l),
(321,509,ls),
(341,557,o),
(350,587,o),
(359,614,c),
(365,614,l),
(374,586,o),
(383,557,o),
(403,509,cs),
(503,264,l),
(522,217,l),
(611,0,l),
(706,0,l),
(400,720,l),
(324,720,l),
(17,0,l)
);
},
{
closed = 1;
nodes = (
(558,199,l),
(558,282,l),
(160,282,l),
(160,199,l)
);
}
);
width = 723;
},
{
anchors = (
{
name = bottom;
pos = (344,0);
},
{
name = ogonek;
pos = (584,0);
},
{
name = top;
pos = (337,720);
},
{
name = top_ring;
pos = (337,637);
}
);
associatedMasterId = "0B84D982-BA46-4CB9-89EB-4BEFB54BBE92";
attr = {
coordinates = (
10,
0,
400,
720,
100
);
};
background = {
shapes = (
{
closed = 1;
nodes = (
(107,6,l),
(313,487,ls),
(328,522,o),
(330,527,o),
(334,543,c),
(338,543,l),
(342,527,o),
(343,523,o),
(358,487,cs),
(556,6,l),
(572,6,l),
(842,750,l),
(744,750,l),
(599,316,ls),
(581,263,o),
(576,243,o),
(570,223,c),
(566,223,l),
(560,243,o),
(553,259,o),
(529,316,cs),
(345,763,l),
(329,763,l),
(145,316,ls),
(122,261,o),
(119,243,o),
(113,223,c),
(109,223,l),
(104,243,o),
(102,261,o),
(82,316,cs),
(-74,750,l),
(-176,750,l),
(91,6,l)
);
}
);
};
hints = (
{
horizontal = 1;
origin = (0,17);
target = up;
type = BottomGhost;
},
{
horizontal = 1;
origin = (1,3);
target = (1,2);
type = Stem;
},
{
horizontal = 1;
place = (744,-20);
target = down;
type = TopGhost;
},
{
horizontal = 1;
origin = (0,7);
target = (0,16);
type = Stem;
}
);
layerId = "61587D6E-91DE-4233-B69C-8CF77BD45A08";
name = "Apr 7, 26 at 04:42";
shapes = (
{
closed = 1;
nodes = (
(95,0,l),
(193,218,l),
(196,237,l),
(299,483,ls),
(317,526,o),
(323,544,o),
(333,576,c),
(338,576,l),
(348,544,o),
(354,526,o),
(372,483,cs),
(475,237,l),
(477,218,l),
(576,0,l),
(680,0,l),
(344,744,l),
(328,744,l),
(-9,0,l)
);
},
{
closed = 1;
nodes = (
(532,205,l),
(532,288,l),
(134,288,l),
(134,205,l)
);
}
);
width = 671;
},
{
anchors = (
{
name = bottom;
pos = (375,0);
},
{
name = ogonek;
pos = (564,0);
},
{
name = top;
pos = (370,720);
},
{
name = top_ring;
pos = (370,637);
}
);
background = {
shapes = (
{
closed = 0;
nodes = (
(-194,445,ls),
(-177,488,o),
(-165,536,o),
(-159,580,c),
(-180,580,l),
(-174,536,o),
(-161,489,o),
(-144,445,cs)
);
},
{
closed = 1;
nodes = (
(-341,655,l),
(-546,166,l),
(-390,166,l),
(-296,445,ls),
(-289,465,o),
(-279,499,o),
(-274,528,c),
(-266,528,l),
(-261,499,o),
(-250,465,o),
(-243,445,cs),
(-149,166,l),
(11,166,l),
(-196,655,l)
);
},
{
closed = 1;
nodes = (
(15,0,l),
(172,0,l),
(564,1125,l),
(408,1125,l)
);
},
{
closed = 1;
nodes = (
(158,1125,l),
(550,0,l),
(707,0,l),
(315,1125,l)
);
},
{
closed = 1;
nodes = (
(172,0,l),
(230,166,l),
(245,207,l),
(325,427,ls),
(342,473,o),
(351,508,o),
(356,528,c),
(364,528,l),
(369,508,o),
(380,473,o),
(397,427,cs),
(477,207,l),
(492,166,l),
(550,0,l),
(706,0,l),
(422,699,l),
(301,699,l),
(15,0,l)
);
}
);
};
hints = (
{
horizontal = 1;
origin = (0,17);
target = up;
type = BottomGhost;
},
{
horizontal = 1;
origin = (1,3);
target = (1,2);
type = Stem;
},
{
horizontal = 1;
origin = (0,16);
target = down;
type = TopGhost;
},
{
horizontal = 1;
origin = (0,16);
target = (0,7);
type = Stem;
}
);
layerId = m006;
shapes = (
{
closed = 1;
nodes = (
(175,0,l),
(235,171,l),
(250,213,l),
(333,440,ls),
(350,487,o),
(359,523,o),
(365,544,c),
(373,544,l),
(379,523,o),
(389,487,o),
(407,440,cs),
(489,213,l),
(504,171,l),
(564,0,l),
(725,0,l),
(443,720,l),
(298,720,l),
(13,0,l)
);
},
{
closed = 1;
nodes = (
(557,143,l),
(557,282,l),
(168,282,l),
(168,143,l)
);
}
);
width = 738;
},
{
anchors = (
{
name = bottom;
pos = (361,0);
},
{
name = ogonek;
pos = (560,0);
},
{
name = top;
pos = (356,720);
},
{
name = top_ring;
pos = (356,637);
}
);
associatedMasterId = m006;
attr = {
coordinates = (
10,
0,
700,
720,
100
);
};
background = {
shapes = (
{
closed = 1;
nodes = (
(161,0,l),
(221,171,l),
(236,213,l),
(319,440,ls),
(336,487,o),
(345,523,o),
(351,544,c),
(359,544,l),
(364,523,o),
(375,487,o),
(393,440,cs),
(475,213,l),
(490,171,l),
(550,0,l),
(711,0,l),
(429,720,l),
(284,720,l),
(-1,0,l)
);
},
{
closed = 1;
nodes = (
(543,123,l),
(543,262,l),
(154,262,l),
(154,123,l)
);
}
);
};
hints = (
{
horizontal = 1;
origin = (0,17);
target = up;
type = BottomGhost;
},
{
horizontal = 1;
origin = (1,3);
target = (1,2);
type = Stem;
},
{
horizontal = 1;
origin = (0,16);
target = down;
type = TopGhost;
},
{
horizontal = 1;
origin = (0,6);
target = (0,16);
type = Stem;
}
);
layerId = "B631DA0C-2017-42E9-BCCA-666D8B9F4F42";
name = "Apr 7, 26 at 04:36";
shapes = (
{
closed = 1;
nodes = (
(162,0,l),
(228,153,l),
(242,192,l),
(326,385,ls),
(340,417,o),
(347,436,o),
(352,450,c),
(360,450,l),
(365,436,o),
(372,418,o),
(386,385,cs),
(469,192,l),
(483,153,l),
(549,0,l),
(711,0,l),
(365,744,l),
(349,744,l),
(-1,0,l)
);
},
{
closed = 1;
nodes = (
(543,139,l),
(543,278,l),
(154,278,l),
(154,139,l)
);
}
);
width = 710;
},
{
anchors = (
{
name = bottom;
pos = (342,0);
},
{
name = ogonek;
pos = (536,0);
},
{
name = top;
pos = (336,720);
},
{
name = top_ring;
pos = (336,636);
}
);
background = {
shapes = (
{
closed = 1;
nodes = (
(321,452,o),
(331,481,o),
(339,517,c),
(335,517,l),
(343,481,o),
(351,452,o),
(372,399,cs),
(445,222,l),
(461,173,l),
(529,0,l),
(685,0,l),
(390,720,l),
(285,720,l),
(-10,0,l),
(143,0,l),
(212,173,l),
(228,222,l),
(299,399,ls)
);
}
);
};
hints = (
{
horizontal = 1;
origin = (0,17);
target = up;
type = BottomGhost;
},
{
horizontal = 1;
origin = (1,3);
target = (1,2);
type = Stem;
},
{
horizontal = 1;
origin = (0,16);
target = down;
type = TopGhost;
}
);
layerId = "1B5AC656-48C3-4864-953F-2CD31E7BA751";
shapes = (
{
closed = 1;
nodes = (
(137,0,l),
(198,171,l),
(214,213,l),
(310,457,ls),
(328,502,o),
(342,542,o),
(357,586,c),
(314,586,l),
(329,542,o),
(344,503,o),
(362,457,cs),
(458,213,l),
(474,171,l),
(536,0,l),
(692,0,l),
(399,720,l),
(274,720,l),
(-20,0,l)
);
},
{
closed = 1;
nodes = (
(524,134,l),
(524,264,l),
(135,264,l),
(135,134,l)
);
}
);
width = 672;
},
{
anchors = (
{
name = bottom;
pos = (325,0);
},
{
name = ogonek;
pos = (526,0);
},
{
name = top;
pos = (325,720);
},
{
name = top_ring;
pos = (325,636);
}
);
associatedMasterId = "1B5AC656-48C3-4864-953F-2CD31E7BA751";
attr = {
coordinates = (
32,
0,
700,
720,
100
);
};
background = {
shapes = (
{
closed = 1;
nodes = (
(132,0,l),
(198,153,l),
(212,192,l),
(296,385,ls),
(310,417,o),
(317,436,o),
(322,450,c),
(330,450,l),
(335,436,o),
(342,418,o),
(356,385,cs),
(439,192,l),
(453,153,l),
(519,0,l),
(681,0,l),
(335,744,l),
(319,744,l),
(-31,0,l)
);
},
{
closed = 1;
nodes = (
(513,113,l),
(513,252,l),
(124,252,l),
(124,113,l)
);
}
);
};
hints = (
{
horizontal = 1;
origin = (0,17);
target = up;
type = BottomGhost;
},
{
horizontal = 1;
origin = (1,3);
target = (1,2);
type = Stem;
},
{
horizontal = 1;
origin = (0,15);
target = down;
type = TopGhost;
},
{
horizontal = 1;
origin = (0,6);
target = (0,15);
type = Stem;
}
);
layerId = "280446A0-BC17-4DB1-8498-F760934CD179";
name = "Apr 7, 26 at 04:47";
shapes = (
{
closed = 1;
nodes = (
(123,0,l),
(220,212,l),
(235,258,l),
(305,415,ls),
(319,447,o),
(332,473,o),
(346,501,c),
(305,501,l),
(320,473,o),
(331,447,o),
(345,415,cs),
(414,258,l),
(428,212,l),
(526,0,l),
(680,0,l),
(325,732,l),
(325,732,l),
(-32,0,l)
);
},
{
closed = 1;
nodes = (
(512,139,l),
(512,278,l),
(123,278,l),
(123,139,l)
);
}
);
width = 648;
},
{
anchors = (
{
name = bottom;
pos = (335,0);
},
{
name = ogonek;
pos = (583,0);
},
{
name = top;
pos = (327,720);
},
{
name = top_ring;
pos = (327,636);
}
);
background = {
shapes = (
{
closed = 1;
nodes = (
(554,199,l),
(554,282,l),
(156,282,l),
(156,199,l)
);
},
{
closed = 1;
nodes = (
(78,0,l),
(165,217,l),
(184,264,l),
(286,509,ls),
(306,557,o),
(315,587,o),
(324,614,c),
(330,614,l),
(339,586,o),
(348,557,o),
(368,509,cs),
(468,264,l),
(487,217,l),
(576,0,l),
(671,0,l),
(365,720,l),
(289,720,l),
(-18,0,l)
);
},
{
closed = 1;
nodes = (
(523,199,l),
(523,282,l),
(125,282,l),
(125,199,l)
);
},
{
ref = H;
}
);
};
hints = (
{
horizontal = 1;
origin = (0,17);
target = up;
type = BottomGhost;
},
{
horizontal = 1;
origin = (1,3);
target = (1,2);
type = Stem;
}
);
layerId = "F32A93D6-BEB9-4F11-B510-2860D42C0CD2";
shapes = (
{
closed = 1;
nodes = (
(71,0,l),
(161,215,l),
(175,245,l),
(290,527,ls),
(312,581,o),
(328,617,o),
(342,661,c),
(313,661,l),
(326,617,o),
(343,581,o),
(365,527,cs),
(478,248,l),
(492,215,l),
(585,0,l),
(671,0,l),
(365,720,l),
(290,720,l),
(-17,0,l)
);
},
{
closed = 1;
nodes = (
(523,196,l),
(523,278,l),
(126,278,l),
(126,196,l)
);
}
);
width = 655;
},
{
anchors = (
{
name = bottom;
pos = (313,0);
},
{
name = ogonek;
pos = (559,0);
},
{
name = top;
pos = (305,720);
},
{
name = top_ring;
pos = (305,636);
}
);
associatedMasterId = "F32A93D6-BEB9-4F11-B510-2860D42C0CD2";
attr = {
coordinates = (
32,
0,
400,
720,
100
);
};
hints = (
{
horizontal = 1;
origin = (0,17);
target = up;
type = BottomGhost;
},
{
horizontal = 1;
origin = (1,3);
target = (1,2);
type = Stem;
},
{
horizontal = 1;
place = (-62,-20);
target = down;
type = TopGhost;
},
{
horizontal = 1;
origin = (0,6);
target = (0,16);
type = Stem;
}
);
layerId = "54A8EFB9-C482-458E-AA57-F41758A80C46";
name = "Apr 30, 26 at 23:33";
shapes = (
{
closed = 1;
nodes = (
(51,0,l),
(175,252,l),
(175,260,l),
(280,499,ls),
(300,544,o),
(309,563,o),
(328,605,c),
(281,605,l),
(300,563,o),
(309,544,o),
(329,499,cs),
(437,260,l),
(437,252,l),
(559,0,l),
(649,0,l),
(304,732,l),
(304,732,l),
(-39,0,l)
);
},
{
closed = 1;
nodes = (
(501,202,l),
(501,284,l),
(104,284,l),
(104,202,l)
);
}
);
width = 610;
}
);
unicode = 65;
},
{
glyphname = Aogonek;
kernLeft = A;
kernRight = A;
lastChange = "2026-05-22 00:10:29 +0000";
layers = (
{
layerId = m006;
shapes = (
{
ref = A;
},
{
pos = (566,0);
ref = ogonekcomb;
}
);
width = 738;
},
{
layerId = "0B84D982-BA46-4CB9-89EB-4BEFB54BBE92";
shapes = (
{
ref = A;
},
{
pos = (611,0);
ref = ogonekcomb;
}
);
width = 723;
},
{
background = {
shapes = (
{
closed = 1;
nodes = (
(705,-219,o),
(776,-148,o),
(776,-61,cs),
(776,28,o),
(705,99,o),
(619,99,cs),
(529,99,o),
(458,28,o),
(458,-61,cs),
(458,-148,o),
(529,-219,o),
(619,-219,cs)
);
},
{
closed = 1;
nodes = (
(652,-122,o),
(681,-95,o),
(681,-61,cs),
(681,-26,o),
(652,3,o),
(619,3,cs),
(583,3,o),
(555,-26,o),
(555,-61,cs),
(555,-95,o),
(583,-122,o),
(619,-122,cs)
);
},
{
closed = 1;
nodes = (
(530,-238,o),
(648,-212,c),
(648,-124,l),
(593,-143,o),
(554,-113,o),
(554,-68,cs),
(554,-23,o),
(580,0,o),
(623,0,c),
(585,6,l),
(536,0,l),
(495,-9,o),
(458,-44,o),
(458,-109,cs),
(458,-168,o)
);
}
);
};
layerId = "1B5AC656-48C3-4864-953F-2CD31E7BA751";
shapes = (
{
ref = A;
},
{
pos = (536,0);
ref = ogonekcomb;
}
);
width = 672;
},
{
layerId = "F32A93D6-BEB9-4F11-B510-2860D42C0CD2";
shapes = (
{
ref = A;
},
{
pos = (583,0);
ref = ogonekcomb;
}
);
width = 655;
}
);
unicode = 260;
},
{
glyphname = AE;
kernLeft = AE;
kernRight = E;
lastChange = "2026-05-28 19:47:30 +0000";
layers = (
{
anchors = (
{
name = bottom;
pos = (615,0);
},
{
name = ogonek;
pos = (876,0);
},
{
name = top;
pos = (571,720);
},
{
name = top_ring;
pos = (571,720);
}
);
background = {
anchors = (
{
name = bottom;
pos = (276,0);
},
{
name = ogonek;
pos = (365,0);
},
{
name = top;
pos = (266,699);
}
);
hints = (
{
horizontal = 1;
origin = (2,11);
target = (2,2);
type = Stem;
},
{
horizontal = 1;
origin = (2,4);
target = (2,6);
type = Stem;
},
{
horizontal = 1;
origin = (2,10);
target = (2,8);
type = Stem;
},
{
origin = (2,11);
target = (2,7);
type = Stem;
}
);
shapes = (
{
closed = 1;
nodes = (
(623,899,l),
(727,1065,l),
(747,1106,l),
(907,1344,ls),
(935,1386,o),
(972,1436,o),
(991,1481,c),
(964,1471,l),
(1011,1471,l),
(1011,899,l),
(1423,899,l),
(1423,1025,l),
(1124,1025,l),
(1151,980,l),
(1151,1238,l),
(1106,1194,l),
(1416,1194,l),
(1416,1316,l),
(1106,1316,l),
(1151,1272,l),
(1151,1517,l),
(1106,1473,l),
(1421,1473,l),
(1421,1598,l),
(933,1598,l),
(462,899,l)
);
},
{
closed = 1;
nodes = (
(1103,1038,l),
(1103,1148,l),
(670,1148,l),
(670,1038,l)
);
},
{
closed = 1;
nodes = (
(940,0,l),
(940,135,l),
(668,135,l),
(668,287,l),
(933,287,l),
(933,422,l),
(668,422,l),
(668,564,l),
(938,564,l),
(938,699,l),
(528,699,l),
(528,0,l)
);
}
);
};
hints = (
{
horizontal = 1;
origin = (0,11);
target = up;
type = BottomGhost;
},
{
horizontal = 1;
origin = (1,3);
target = (1,2);
type = Stem;
},
{
horizontal = 1;
origin = (0,10);
target = (0,8);
type = Stem;
}
);
layerId = m006;
shapes = (
{
closed = 1;
nodes = (
(190,0,l),
(312,193,l),
(350,265,l),
(468,458,ls),
(495,502,o),
(523,552,o),
(545,598,c),
(513,581,l),
(660,581,l),
(552,720,l),
(485,720,l),
(13,0,l)
);
},
{
closed = 1;
nodes = (
(637,159,l),
(637,298,l),
(290,298,l),
(195,159,l)
);
},
{
pos = (463,0);
ref = E;
}
);
width = 1048;
},
{
anchors = (
{
name = bottom;
pos = (588,0);
},
{
name = ogonek;
pos = (904,0);
},
{
name = top;
pos = (565,720);
},
{
name = top_ring;
pos = (565,720);
}
);
background = {
shapes = (
{
closed = 1;
nodes = (
(648,199,l),
(648,282,l),
(250,282,l),
(250,199,l)
);
}
);
};
hints = (
{
horizontal = 1;
origin = (0,11);
target = up;
type = BottomGhost;
},
{
horizontal = 1;
origin = (1,3);
target = (1,2);
type = Stem;
},
{
horizontal = 1;
origin = (0,10);
target = (0,8);
type = Stem;
}
);
layerId = "0B84D982-BA46-4CB9-89EB-4BEFB54BBE92";
shapes = (
{
closed = 1;
nodes = (
(123,0,l),
(268,223,l),
(285,252,l),
(456,510,ls),
(498,573,o),
(524,611,o),
(545,650,c),
(517,638,l),
(596,638,l),
(548,720,l),
(506,720,l),
(17,0,l)
);
},
{
closed = 1;
nodes = (
(598,199,l),
(598,282,l),
(255,282,l),
(206,199,l)
);
},
{
pos = (461,0);
ref = E;
}
);
width = 1040;
},
{
anchors = (
{
name = bottom;
pos = (590,0);
},
{
name = ogonek;
pos = (875,0);
},
{
name = top;
pos = (535,720);
},
{
name = top_ring;
pos = (535,720);
}
);
background = {
shapes = (
{
closed = 1;
nodes = (
(171,0,l),
(278,171,l),
(298,213,l),
(463,457,ls),
(491,501,o),
(529,552,o),
(549,598,c),
(521,588,l),
(570,588,l),
(570,0,l),
(993,0,l),
(993,130,l),
(686,130,l),
(713,83,l),
(713,348,l),
(667,303,l),
(986,303,l),
(986,429,l),
(667,429,l),
(713,383,l),
(713,636,l),
(667,590,l),
(991,590,l),
(991,720,l),
(489,720,l),
(4,0,l)
);
},
{
closed = 1;
nodes = (
(664,143,l),
(664,256,l),
(219,256,l),
(219,143,l)
);
}
);
};
layerId = "1B5AC656-48C3-4864-953F-2CD31E7BA751";
shapes = (
{
closed = 1;
nodes = (
(157,0,l),
(278,191,l),
(309,253,l),
(435,458,ls),
(462,502,o),
(490,552,o),
(516,598,c),
(499,590,l),
(581,590,l),
(510,720,l),
(452,720,l),
(-20,0,l)
);
},
{
closed = 1;
nodes = (
(618,158,l),
(618,297,l),
(260,297,l),
(174,158,l)
);
},
{
pos = (460,0);
ref = E;
}
);
width = 974;
},
{
anchors = (
{
name = bottom;
pos = (555,0);
},
{
name = ogonek;
pos = (895,0);
},
{
name = top;
pos = (521,720);
},
{
name = top_ring;
pos = (521,720);
}
);
hints = (
{
horizontal = 1;
origin = (0,11);
target = up;
type = BottomGhost;
},
{
horizontal = 1;
origin = (1,3);
target = (1,2);
type = Stem;
},
{
horizontal = 1;
origin = (0,10);
target = (0,8);
type = Stem;
}
);
layerId = "F32A93D6-BEB9-4F11-B510-2860D42C0CD2";
shapes = (
{
closed = 1;
nodes = (
(89,0,l),
(235,223,l),
(256,255,l),
(422,510,ls),
(463,573,o),
(489,612,o),
(509,656,c),
(492,648,l),
(551,648,l),
(505,720,l),
(466,720,l),
(-17,0,l)
);
},
{
closed = 1;
nodes = (
(571,199,l),
(571,282,l),
(212,282,l),
(166,199,l)
);
},
{
pos = (452,0);
ref = E;
}
);
width = 956;
},
{
anchors = (
{
name = bottom;
pos = (568,0);
},
{
name = ogonek;
pos = (884,0);
},
{
name = top;
pos = (545,720);
},
{
name = top_ring;
pos = (545,720);
}
);
associatedMasterId = "0B84D982-BA46-4CB9-89EB-4BEFB54BBE92";
attr = {
coordinates = (
10,
0,
400,
720,
100
);
};
background = {
shapes = (
{
closed = 1;
nodes = (
(623,199,l),
(623,282,l),
(225,282,l),
(225,199,l)
);
}
);
};
hints = (
{
horizontal = 1;
origin = (0,11);
target = up;
type = BottomGhost;
},
{
horizontal = 1;
origin = (1,3);
target = (1,2);
type = Stem;
},
{
horizontal = 1;
origin = (0,10);
target = (0,8);
type = Stem;
}
);
layerId = "6A63E9E4-FEAB-4682-A7F6-99589B94CCB0";
name = "Apr 30, 26 at 23:40";
shapes = (
{
closed = 1;
nodes = (
(100,0,l),
(262,223,l),
(281,250,l),
(471,508,ls),
(504,553,o),
(521,580,o),
(527,596,c),
(512,589,l),
(544,589,l),
(528,720,l),
(527,720,l),
(-9,0,l)
);
},
{
closed = 1;
nodes = (
(578,199,l),
(578,282,l),
(246,282,l),
(199,199,l)
);
},
{
pos = (441,0);
ref = E;
}
);
width = 1020;
},
{
anchors = (
{
name = bottom;
pos = (608,0);
},
{
name = ogonek;
pos = (869,0);
},
{
name = top;
pos = (564,720);
},
{
name = top_ring;
pos = (564,720);
}
);
associatedMasterId = m006;
attr = {
coordinates = (
10,
0,
700,
720,
100
);
};
background = {
anchors = (
{
name = bottom;
pos = (275,0);
},
{
name = ogonek;
pos = (364,0);
},
{
name = top;
pos = (265,699);
}
);
hints = (
{
horizontal = 1;
origin = (2,11);
target = (2,2);
type = Stem;
},
{
horizontal = 1;
origin = (2,4);
target = (2,6);
type = Stem;
},
{
horizontal = 1;
origin = (2,10);
target = (2,8);
type = Stem;
},
{
origin = (2,11);
target = (2,7);
type = Stem;
}
);
shapes = (
{
closed = 1;
nodes = (
(622,899,l),
(726,1065,l),
(746,1106,l),
(906,1344,ls),
(934,1386,o),
(971,1436,o),
(990,1481,c),
(963,1471,l),
(1010,1471,l),
(1010,899,l),
(1422,899,l),
(1422,1025,l),
(1123,1025,l),
(1150,980,l),
(1150,1238,l),
(1105,1194,l),
(1415,1194,l),
(1415,1316,l),
(1105,1316,l),
(1150,1272,l),
(1150,1517,l),
(1105,1473,l),
(1420,1473,l),
(1420,1598,l),
(932,1598,l),
(461,899,l)
);
},
{
closed = 1;
nodes = (
(1102,1038,l),
(1102,1148,l),
(669,1148,l),
(669,1038,l)
);
},
{
closed = 1;
nodes = (
(939,0,l),
(939,135,l),
(667,135,l),
(667,287,l),
(932,287,l),
(932,422,l),
(667,422,l),
(667,564,l),
(937,564,l),
(937,699,l),
(527,699,l),
(527,0,l)
);
}
);
};
hints = (
{
horizontal = 1;
origin = (0,11);
target = up;
type = BottomGhost;
},
{
horizontal = 1;
origin = (1,3);
target = (1,2);
type = Stem;
},
{
horizontal = 1;
origin = (0,10);
target = (0,8);
type = Stem;
}
);
layerId = "0AC2FD12-51E0-43DD-9718-19AF2BC7DD20";
name = "Apr 30, 26 at 23:40";
shapes = (
{
closed = 1;
nodes = (
(179,0,l),
(318,193,l),
(360,265,l),
(493,454,ls),
(513,482,o),
(532,515,o),
(538,539,c),
(515,523,l),
(618,523,l),
(538,720,l),
(526,720,l),
(-1,0,l)
);
},
{
closed = 1;
nodes = (
(630,159,l),
(630,298,l),
(293,298,l),
(201,159,l)
);
},
{
pos = (456,0);
ref = E;
}
);
width = 1041;
},
{
anchors = (
{
name = bottom;
pos = (545,0);
},
{
name = ogonek;
pos = (885,0);
},
{
name = top;
pos = (511,720);
},
{
name = top_ring;
pos = (511,720);
}
);
associatedMasterId = "F32A93D6-BEB9-4F11-B510-2860D42C0CD2";
attr = {
coordinates = (
32,
0,
400,
720,
100
);
};
hints = (
{
horizontal = 1;
origin = (0,11);
target = up;
type = BottomGhost;
},
{
horizontal = 1;
origin = (1,3);
target = (1,2);
type = Stem;
},
{
horizontal = 1;
origin = (0,10);
target = (0,8);
type = Stem;
}
);
layerId = "7D3398E5-1827-41BF-9395-7FF6F0B7B892";
name = "Apr 30, 26 at 23:40";
shapes = (
{
closed = 1;
nodes = (
(68,0,l),
(230,221,l),
(243,240,l),
(443,514,ls),
(475,559,o),
(504,598,o),
(527,633,c),
(512,631,l),
(553,631,l),
(493,720,l),
(493,720,l),
(-39,0,l)
);
},
{
closed = 1;
nodes = (
(561,198,l),
(561,281,l),
(206,281,l),
(157,198,l)
);
},
{
pos = (440,0);
ref = E;
}
);
width = 944;
},
{
anchors = (
{
name = bottom;
pos = (584,0);
},
{
name = ogonek;
pos = (869,0);
},
{
name = top;
pos = (529,720);
},
{
name = top_ring;
pos = (529,720);
}
);
associatedMasterId = "1B5AC656-48C3-4864-953F-2CD31E7BA751";
attr = {
coordinates = (
32,
0,
700,
720,
100
);
};
hints = (
{
horizontal = 1;
origin = (0,11);
target = up;
type = BottomGhost;
},
{
horizontal = 1;
origin = (1,3);
target = (1,2);
type = Stem;
},
{
horizontal = 1;
origin = (0,10);
target = (0,8);
type = Stem;
}
);
layerId = "42282D36-304F-4600-8979-E9784063CF4D";
name = "Apr 30, 26 at 23:40";
shapes = (
{
closed = 1;
nodes = (
(146,0,l),
(284,190,l),
(316,249,l),
(464,458,ls),
(485,488,o),
(509,526,o),
(538,570,c),
(522,564,l),
(558,564,l),
(504,720,l),
(493,720,l),
(-32,0,l)
);
},
{
closed = 1;
nodes = (
(612,158,l),
(612,297,l),
(251,297,l),
(170,158,l)
);
},
{
pos = (454,0);
ref = E;
}
);
width = 968;
}
);
metricLeft = A;
metricRight = E;
unicode = 198;
},
{
glyphname = B;
kernLeft = H;
kernRight = B;
lastChange = "2026-05-28 00:05:56 +0000";
layers = (
{
anchors = (
{
name = bottom;
pos = (346,0);
},
{
name = top;
pos = (342,720);
}
);
background = {
shapes = (
{
closed = 1;
nodes = (
(-283,0,ls),
(-131,0,o),
(-35,76,o),
(-35,193,cs),
(-35,299,o),
(-107,357,o),
(-219,374,c),
(-219,372,l),
(-124,390,o),
(-74,438,o),
(-74,521,cs),
(-74,624,o),
(-156,699,o),
(-308,699,cs),
(-543,699,l),
(-543,0,l)
);
},
{
closed = 1;
nodes = (
(-404,294,l),
(-296,294,ls),
(-220,294,o),
(-177,266,o),
(-177,215,cs),
(-177,154,o),
(-220,126,o),
(-296,126,cs),
(-404,126,l)
);
},
{
closed = 1;
nodes = (
(-404,574,l),
(-321,574,ls),
(-245,574,o),
(-216,541,o),
(-216,494,cs),
(-216,438,o),
(-245,414,o),
(-321,414,cs),
(-404,414,l)
);
},
{
closed = 1;
nodes = (
(328,0,ls),
(467,0,o),
(562,72,o),
(562,191,cs),
(562,294,o),
(500,343,o),
(395,362,c),
(395,367,l),
(492,390,o),
(523,448,o),
(523,515,cs),
(523,631,o),
(442,699,o),
(303,699,cs),
(74,699,l),
(74,0,l)
);
},
{
closed = 1;
nodes = (
(158,318,l),
(319,318,ls),
(411,318,o),
(478,280,o),
(478,198,cs),
(478,115,o),
(411,76,o),
(319,76,cs),
(158,76,l)
);
},
{
closed = 1;
nodes = (
(158,623,l),
(294,623,ls),
(386,623,o),
(439,587,o),
(439,506,cs),
(439,422,o),
(386,390,o),
(294,390,cs),
(158,390,l)
);
}
);
};
hints = (
{
horizontal = 1;
origin = (0,15);
target = (2,8);
type = Stem;
},
{
horizontal = 1;
origin = (2,1);
target = (1,8);
type = Stem;
},
{
horizontal = 1;
origin = (0,14);
target = (1,1);
type = Stem;
},
{
origin = (0,15);
target = (1,8);
type = Stem;
},
{
origin = (2,4);
target = (0,3);
type = Stem;
},
{
origin = (1,4);
target = (2,4);
type = Stem;
}
);
layerId = m006;
shapes = (
{
closed = 1;
nodes = (
(355,0,ls),
(511,0,o),
(610,78,o),
(610,199,cs),
(610,294,o),
(541,372,o),
(450,382,c),
(450,388,l),
(528,405,o),
(576,458,o),
(576,530,cs),
(576,643,o),
(491,720,o),
(335,720,cs),
(86,720,l),
(86,0,l)
);
},
{
closed = 1;
nodes = (
(231,581,l),
(332,581,ls),
(393,581,o),
(429,554,o),
(429,508,cs),
(429,460,o),
(393,432,o),
(332,432,cs),
(231,432,l)
);
},
{
closed = 1;
nodes = (
(231,298,l),
(352,298,ls),
(423,298,o),
(464,268,o),
(464,218,cs),
(464,169,o),
(423,139,o),
(352,139,cs),
(231,139,l)
);
}
);
width = 664;
},
{
anchors = (
{
name = bottom;
pos = (333,0);
},
{
name = top;
pos = (329,720);
}
);
hints = (
{
horizontal = 1;
origin = (0,15);
target = (2,8);
type = Stem;
},
{
horizontal = 1;
origin = (2,1);
target = (1,8);
type = Stem;
},
{
horizontal = 1;
origin = (0,14);
target = (1,1);
type = Stem;
},
{
origin = (0,15);
target = (1,8);
type = Stem;
},
{
origin = (2,4);
target = (0,3);
type = Stem;
},
{
origin = (1,4);
target = (0,10);
type = Stem;
}
);
layerId = "0B84D982-BA46-4CB9-89EB-4BEFB54BBE92";
shapes = (
{
closed = 1;
nodes = (
(353,0,ls),
(497,0,o),
(595,74,o),
(595,197,cs),
(595,296,o),
(539,353,o),
(424,374,c),
(424,379,l),
(514,401,o),
(556,449,o),
(556,530,cs),
(556,650,o),
(473,720,o),
(328,720,cs),
(91,720,l),
(91,0,l)
);
},
{
closed = 1;
nodes = (
(182,638,l),
(319,638,ls),
(412,638,o),
(464,601,o),
(464,520,cs),
(464,441,o),
(418,404,o),
(319,404,cs),
(182,404,l)
);
},
{
closed = 1;
nodes = (
(182,326,l),
(345,326,ls),
(445,326,o),
(504,280,o),
(504,205,cs),
(504,128,o),
(445,82,o),
(345,82,cs),
(182,82,l)
);
}
);
width = 649;
},
{
anchors = (
{
name = bottom;
pos = (304,0);
},
{
name = top;
pos = (300,720);
}
);
background = {
shapes = (
{
closed = 1;
nodes = (
(817,286,ls),
(979,286,o),
(1077,360,o),
(1077,502,cs),
(1077,643,o),
(979,722,o),
(817,721,cs),
(657,720,l),
(657,286,l)
);
},
{
closed = 1;
nodes = (
(708,0,l),
(708,720,l),
(564,720,l),
(564,0,l)
);
},
{
closed = 1;
nodes = (
(708,591,l),
(809,591,ls),
(887,591,o),
(931,558,o),
(931,501,cs),
(931,442,o),
(887,409,o),
(809,409,cs),
(708,409,l)
);
},
{
closed = 1;
nodes = (
(1107,0,l),
(919,348,l),
(758,348,l),
(946,0,l)
);
},
{
closed = 1;
nodes = (
(303,301,ls),
(465,301,o),
(563,365,o),
(563,502,cs),
(563,643,o),
(465,722,o),
(303,721,cs),
(143,720,l),
(143,301,l)
);
},
{
closed = 1;
nodes = (
(194,0,l),
(194,720,l),
(50,720,l),
(50,0,l)
);
},
{
closed = 1;
nodes = (
(171,591,l),
(295,591,ls),
(373,591,o),
(417,558,o),
(417,501,cs),
(417,447,o),
(373,419,o),
(295,419,cs),
(171,419,l)
);
},
{
closed = 1;
nodes = (
(105,1,l),
(303,0,ls),
(465,-1,o),
(563,78,o),
(563,219,cs),
(563,356,o),
(465,419,o),
(303,419,cs),
(105,419,l)
);
},
{
closed = 1;
nodes = (
(295,301,ls),
(373,301,o),
(417,273,o),
(417,220,cs),
(417,162,o),
(373,130,o),
(295,130,cs),
(185,130,l),
(185,301,l)
);
}
);
};
hints = (
{
horizontal = 1;
place = (0,130);
type = Stem;
},
{
horizontal = 1;
place = (295,139);
type = Stem;
},
{
horizontal = 1;
place = (720,-129);
type = Stem;
},
{
place = (50,144);
type = Stem;
},
{
place = (428,146);
type = Stem;
},
{
place = (388,146);
type = Stem;
}
);
layerId = "1B5AC656-48C3-4864-953F-2CD31E7BA751";
shapes = (
{
closed = 1;
nodes = (
(319,0,ls),
(475,0,o),
(574,78,o),
(574,199,cs),
(574,294,o),
(505,372,o),
(414,382,c),
(414,382,l),
(492,395,o),
(540,454,o),
(540,530,cs),
(540,643,o),
(455,720,o),
(299,720,cs),
(50,720,l),
(50,0,l)
);
},
{
closed = 1;
nodes = (
(195,581,l),
(296,581,ls),
(357,581,o),
(393,554,o),
(393,508,cs),
(393,460,o),
(357,432,o),
(296,432,cs),
(195,432,l)
);
},
{
closed = 1;
nodes = (
(195,298,l),
(316,298,ls),
(387,298,o),
(428,268,o),
(428,218,cs),
(428,169,o),
(387,139,o),
(316,139,cs),
(195,139,l)
);
}
);
width = 589;
},
{
anchors = (
{
name = bottom;
pos = (289,0);
},
{
name = top;
pos = (285,720);
}
);
hints = (
{
horizontal = 1;
origin = (0,15);
target = (2,8);
type = Stem;
},
{
horizontal = 1;
origin = (2,1);
target = (1,8);
type = Stem;
},
{
horizontal = 1;
origin = (0,14);
target = (1,1);
type = Stem;
},
{
origin = (0,15);
target = (1,8);
type = Stem;
},
{
origin = (2,4);
target = (0,3);
type = Stem;
},
{
origin = (1,4);
target = (0,10);
type = Stem;
}
);
layerId = "F32A93D6-BEB9-4F11-B510-2860D42C0CD2";
shapes = (
{
closed = 1;
nodes = (
(315,0,ls),
(459,0,o),
(557,74,o),
(557,197,cs),
(557,300,o),
(499,352,o),
(416,372,c),
(416,372,l),
(474,390,o),
(518,439,o),
(518,530,cs),
(518,650,o),
(435,720,o),
(290,720,cs),
(53,720,l),
(53,0,l)
);
},
{
closed = 1;
nodes = (
(144,638,l),
(281,638,ls),
(374,638,o),
(426,601,o),
(426,520,cs),
(426,441,o),
(380,406,o),
(281,406,cs),
(144,406,l)
);
},
{
closed = 1;
nodes = (
(144,324,l),
(307,324,ls),
(407,324,o),
(466,280,o),
(466,205,cs),
(466,128,o),
(407,82,o),
(307,82,cs),
(144,82,l)
);
}
);
width = 570;
}
);
metricLeft = H;
unicode = 66;
},
{
glyphname = C;
kernLeft = O;
kernRight = C;
lastChange = "2026-05-22 21:13:15 +0000";
layers = (
{
anchors = (
{
name = bottom;
pos = (422,0);
},
{
name = cedilla;
pos = (422,0);
},
{
name = ogonek;
pos = (527,0);
},
{
name = top;
pos = (422,720);
}
);
background = {
shapes = (
{
closed = 1;
nodes = (
(618,-13,o),
(770,142,o),
(770,349,cs),
(770,556,o),
(618,712,o),
(416,712,cs),
(213,712,o),
(61,556,o),
(61,349,cs),
(61,142,o),
(213,-13,o),
(416,-13,cs)
);
},
{
closed = 1;
nodes = (
(300,125,o),
(204,202,o),
(204,349,cs),
(204,496,o),
(300,574,o),
(416,574,cs),
(530,574,o),
(627,496,o),
(627,349,cs),
(627,202,o),
(530,125,o),
(416,125,cs)
);
},
{
closed = 1;
nodes = (
(390,0,ls),
(616,0,o),
(768,140,o),
(768,349,cs),
(768,559,o),
(616,699,o),
(390,699,cs),
(155,699,l),
(155,0,l)
);
},
{
closed = 1;
nodes = (
(295,627,l),
(232,564,l),
(386,564,ls),
(538,564,o),
(625,497,o),
(625,349,cs),
(625,202,o),
(538,135,o),
(386,135,cs),
(232,135,l),
(295,72,l)
);
}
);
};
hints = (
{
horizontal = 1;
origin = (0,25);
target = (0,6);
type = Stem;
},
{
horizontal = 1;
origin = (0,19);
target = (0,12);
type = Stem;
},
{
origin = (0,22);
target = (0,9);
type = Stem;
}
);
layerId = m006;
shapes = (
{
closed = 1;
nodes = (
(547,-13,o),
(634,37,o),
(689,103,c),
(583,196,l),
(543,151,o),
(486,129,o),
(425,129,cs),
(285,129,o),
(194,219,o),
(194,359,cs),
(194,500,o),
(284,591,o),
(422,591,cs),
(496,591,o),
(542,566,o),
(585,520,c),
(688,618,l),
(620,698,o),
(525,733,o),
(422,733,cs),
(200,733,o),
(46,566,o),
(46,359,cs),
(46,153,o),
(208,-13,o),
(422,-13,cs)
);
}
);
width = 715;
},
{
anchors = (
{
name = bottom;
pos = (418,0);
},
{
name = cedilla;
pos = (418,0);
},
{
name = ogonek;
pos = (523,0);
},
{
name = top;
pos = (418,720);
}
);
hints = (
{
horizontal = 1;
origin = (0,25);
target = (0,6);
type = Stem;
},
{
horizontal = 1;
origin = (0,19);
target = (0,12);
type = Stem;
},
{
origin = (0,22);
target = (0,9);
type = Stem;
}
);
layerId = "0B84D982-BA46-4CB9-89EB-4BEFB54BBE92";
shapes = (
{
closed = 1;
nodes = (
(534,-13,o),
(624,30,o),
(686,105,c),
(621,159,l),
(570,100,o),
(510,69,o),
(421,69,cs),
(266,69,o),
(142,190,o),
(142,359,cs),
(142,526,o),
(256,651,o),
(418,651,cs),
(495,651,o),
(563,627,o),
(615,564,c),
(681,620,l),
(616,697,o),
(526,733,o),
(418,733,cs),
(207,733,o),
(48,569,o),
(48,359,cs),
(48,149,o),
(209,-13,o),
(418,-13,cs)
);
}
);
width = 714;
},
{
anchors = (
{
name = bottom;
pos = (401,0);
},
{
name = cedilla;
pos = (400,0);
},
{
name = ogonek;
pos = (513,0);
},
{
name = top;
pos = (401,720);
}
);
background = {
shapes = (
{
closed = 1;
nodes = (
(614,-13,o),
(774,153,o),
(774,359,cs),
(774,565,o),
(614,733,o),
(401,733,cs),
(187,733,o),
(26,565,o),
(26,359,cs),
(26,153,o),
(187,-13,o),
(401,-13,cs)
);
},
{
closed = 1;
nodes = (
(261,119,o),
(175,228,o),
(175,359,cs),
(175,489,o),
(261,599,o),
(401,599,cs),
(540,599,o),
(625,489,o),
(625,359,cs),
(625,228,o),
(540,119,o),
(401,119,cs)
);
}
);
};
hints = (
{
horizontal = 1;
origin = (0,25);
target = (0,6);
type = Stem;
},
{
horizontal = 1;
origin = (0,19);
target = (0,12);
type = Stem;
},
{
origin = (0,22);
target = (0,9);
type = Stem;
}
);
layerId = "1B5AC656-48C3-4864-953F-2CD31E7BA751";
shapes = (
{
closed = 1;
nodes = (
(526,-13,o),
(619,35,o),
(673,101,c),
(568,197,l),
(526,151,o),
(474,129,o),
(404,129,cs),
(265,129,o),
(175,227,o),
(175,359,cs),
(175,490,o),
(265,591,o),
(401,591,cs),
(466,591,o),
(519,569,o),
(562,523,c),
(664,620,l),
(599,697,o),
(518,733,o),
(401,733,cs),
(179,733,o),
(26,565,o),
(26,359,cs),
(26,153,o),
(187,-13,o),
(401,-13,cs)
);
}
);
width = 679;
},
{
anchors = (
{
name = bottom;
pos = (395,0);
},
{
name = cedilla;
pos = (394,0);
},
{
name = ogonek;
pos = (507,0);
},
{
name = top;
pos = (395,720);
}
);
hints = (
{
horizontal = 1;
origin = (0,25);
target = (0,6);
type = Stem;
},
{
horizontal = 1;
origin = (0,19);
target = (0,12);
type = Stem;
},
{
origin = (0,22);
target = (0,9);
type = Stem;
}
);
layerId = "F32A93D6-BEB9-4F11-B510-2860D42C0CD2";
shapes = (
{
closed = 1;
nodes = (
(510,-13,o),
(608,28,o),
(668,103,c),
(604,163,l),
(554,106,o),
(481,75,o),
(398,75,cs),
(242,75,o),
(118,201,o),
(118,359,cs),
(118,518,o),
(241,645,o),
(395,645,cs),
(480,645,o),
(552,612,o),
(597,558,c),
(662,619,l),
(602,690,o),
(507,733,o),
(395,733,cs),
(189,733,o),
(26,567,o),
(26,359,cs),
(26,152,o),
(189,-13,o),
(395,-13,cs)
);
}
);
width = 674;
}
);
metricLeft = O;
metricRight = "=O-20";
unicode = 67;
},
{
glyphname = D;
kernLeft = H;
kernRight = O;
lastChange = "2026-05-31 19:28:10 +0000";
layers = (
{
anchors = (
{
name = bar;
pos = (158,369);
},
{
name = bottom;
pos = (363,0);
},
{
name = center;
pos = (363,359);
},
{
name = top;
pos = (382,720);
}
);
background = {
shapes = (
{
closed = 1;
nodes = (
(298,0,ls),
(518,0,o),
(676,130,o),
(676,349,cs),
(676,569,o),
(518,699,o),
(298,699,cs),
(88,699,l),
(88,0,l)
);
},
{
closed = 1;
nodes = (
(170,669,l),
(134,623,l),
(301,623,ls),
(472,623,o),
(592,524,o),
(592,349,cs),
(592,174,o),
(472,76,o),
(301,76,cs),
(134,76,l),
(170,30,l)
);
}
);
};
hints = (
{
horizontal = 1;
origin = (0,8);
target = (1,8);
type = Stem;
},
{
horizontal = 1;
origin = (0,7);
target = (1,1);
type = Stem;
},
{
origin = (0,8);
target = (1,8);
type = Stem;
},
{
origin = (1,4);
target = (0,3);
type = Stem;
}
);
layerId = m006;
shapes = (
{
closed = 1;
nodes = (
(328,0,ls),
(561,0,o),
(718,144,o),
(718,359,cs),
(718,576,o),
(561,720,o),
(328,720,cs),
(86,720,l),
(86,0,l)
);
},
{
closed = 1;
nodes = (
(231,581,l),
(324,581,ls),
(482,581,o),
(571,511,o),
(571,359,cs),
(571,208,o),
(482,139,o),
(324,139,cs),
(231,139,l)
);
}
);
width = 764;
},
{
anchors = (
{
name = bar;
pos = (136,369);
},
{
name = bottom;
pos = (338,0);
},
{
name = center;
pos = (338,359);
},
{
name = top;
pos = (356,720);
}
);
background = {
shapes = (
{
closed = 1;
nodes = (
(309,0,ls),
(535,0,o),
(698,135,o),
(698,359,cs),
(698,585,o),
(535,720,o),
(309,720,cs),
(90,720,l),
(90,0,l)
);
},
{
closed = 1;
nodes = (
(179,638,l),
(311,638,ls),
(486,638,o),
(607,538,o),
(607,359,cs),
(607,181,o),
(486,82,o),
(311,82,cs),
(179,82,l)
);
}
);
};
hints = (
{
horizontal = 1;
origin = (0,8);
target = (1,8);
type = Stem;
},
{
horizontal = 1;
origin = (0,7);
target = (1,1);
type = Stem;
},
{
origin = (0,8);
target = (1,8);
type = Stem;
},
{
origin = (1,4);
target = (0,3);
type = Stem;
}
);
layerId = "0B84D982-BA46-4CB9-89EB-4BEFB54BBE92";
shapes = (
{
closed = 1;
nodes = (
(310,0,ls),
(536,0,o),
(699,135,o),
(699,359,cs),
(699,585,o),
(536,720,o),
(310,720,cs),
(91,720,l),
(91,0,l)
);
},
{
closed = 1;
nodes = (
(180,638,l),
(312,638,ls),
(487,638,o),
(608,538,o),
(608,359,cs),
(608,181,o),
(487,82,o),
(312,82,cs),
(180,82,l)
);
}
);
width = 747;
},
{
anchors = (
{
name = bar;
pos = (122,369);
},
{
name = bottom;
pos = (317,0);
},
{
name = center;
pos = (346,359);
},
{
name = top;
pos = (335,720);
}
);
background = {
shapes = (
{
closed = 1;
nodes = (
(521,-13,o),
(682,153,o),
(682,359,cs),
(682,565,o),
(521,733,o),
(308,733,cs),
(95,733,o),
(-67,565,o),
(-67,359,cs),
(-67,153,o),
(95,-13,o),
(308,-13,cs)
);
},
{
closed = 1;
nodes = (
(173,119,o),
(86,228,o),
(86,359,cs),
(86,489,o),
(173,599,o),
(308,599,cs),
(443,599,o),
(528,489,o),
(528,359,cs),
(528,228,o),
(443,119,o),
(308,119,cs)
);
}
);
};
hints = (
{
horizontal = 1;
origin = (0,8);
target = (1,8);
type = Stem;
},
{
horizontal = 1;
origin = (0,7);
target = (1,1);
type = Stem;
},
{
origin = (0,8);
target = (1,8);
type = Stem;
},
{
origin = (1,4);
target = (0,3);
type = Stem;
}
);
layerId = "1B5AC656-48C3-4864-953F-2CD31E7BA751";
shapes = (
{
closed = 1;
nodes = (
(282,0,ls),
(515,0,o),
(672,144,o),
(672,359,cs),
(672,576,o),
(515,720,o),
(282,720,cs),
(50,720,l),
(50,0,l)
);
},
{
closed = 1;
nodes = (
(195,581,l),
(278,581,ls),
(436,581,o),
(523,511,o),
(523,359,cs),
(523,208,o),
(436,139,o),
(278,139,cs),
(195,139,l)
);
}
);
width = 698;
},
{
anchors = (
{
name = bar;
pos = (98,369);
},
{
name = bottom;
pos = (299,0);
},
{
name = center;
pos = (326,359);
},
{
name = top;
pos = (316,720);
}
);
background = {
shapes = (
{
closed = 1;
nodes = (
(272,0,ls),
(498,0,o),
(661,135,o),
(661,359,cs),
(661,585,o),
(498,720,o),
(272,720,cs),
(53,720,l),
(53,0,l)
);
},
{
closed = 1;
nodes = (
(142,638,l),
(274,638,ls),
(449,638,o),
(570,538,o),
(570,359,cs),
(570,181,o),
(449,82,o),
(274,82,cs),
(142,82,l)
);
}
);
};
hints = (
{
horizontal = 1;
origin = (0,8);
target = (1,8);
type = Stem;
},
{
horizontal = 1;
origin = (0,7);
target = (1,1);
type = Stem;
},
{
origin = (0,8);
target = (1,8);
type = Stem;
},
{
origin = (1,4);
target = (0,3);
type = Stem;
}
);
layerId = "F32A93D6-BEB9-4F11-B510-2860D42C0CD2";
shapes = (
{
closed = 1;
nodes = (
(262,0,ls),
(488,0,o),
(651,135,o),
(651,359,cs),
(651,585,o),
(488,720,o),
(262,720,cs),
(53,720,l),
(53,0,l)
);
},
{
closed = 1;
nodes = (
(142,638,l),
(264,638,ls),
(439,638,o),
(559,538,o),
(559,359,cs),
(559,181,o),
(439,82,o),
(264,82,cs),
(142,82,l)
);
}
);
width = 677;
}
);
metricLeft = H;
metricRight = O;
unicode = 68;
},
{
glyphname = Dcroat;
kernLeft = H;
kernRight = O;
lastChange = "2026-05-31 20:07:02 +0000";
layers = (
{
background = {
shapes = (
{
closed = 1;
nodes = (
(387,304,l),
(387,427,l),
(17,427,l),
(17,304,l)
);
}
);
};
hints = (
{
horizontal = 1;
place = (304,123);
type = Stem;
},
{
place = (10,370);
type = Stem;
}
);
layerId = m006;
shapes = (
{
ref = D;
},
{
piece = {
Left = 59.38784;
};
pos = (158,0);
ref = _part.strokeshort;
}
);
width = 764;
},
{
background = {
shapes = (
{
closed = 1;
nodes = (
(338,334,l),
(338,407,l),
(-26,407,l),
(-26,334,l)
);
}
);
};
hints = (
{
horizontal = 1;
place = (334,73);
type = Stem;
}
);
layerId = "0B84D982-BA46-4CB9-89EB-4BEFB54BBE92";
shapes = (
{
ref = D;
},
{
piece = {
Left = 83.45703;
};
pos = (136,0);
ref = _part.strokeshort;
}
);
width = 747;
},
{
layerId = "1B5AC656-48C3-4864-953F-2CD31E7BA751";
shapes = (
{
alignment = -1;
pos = (1,0);
ref = D;
},
{
alignment = -1;
piece = {
Left = 80.09626;
};
pos = (168,0);
ref = _part.strokeshort;
}
);
width = 699;
},
{
background = {
shapes = (
{
pos = (-63,0);
ref = H;
}
);
};
hints = (
{
horizontal = 1;
place = (30,-50);
type = Stem;
}
);
layerId = "F32A93D6-BEB9-4F11-B510-2860D42C0CD2";
shapes = (
{
alignment = -1;
pos = (-4,0);
ref = D;
},
{
piece = {
Left = 53;
};
pos = (93,8);
ref = _part.strokeshort;
}
);
width = 673;
}
);
metricLeft = "=H*.1";
metricRight = O;
unicode = 272;
},
{
glyphname = E;
kernLeft = H;
kernRight = E;
lastChange = "2026-05-22 21:13:15 +0000";
layers = (
{
anchors = (
{
name = bottom;
pos = (323,0);
},
{
name = ogonek;
pos = (409,0);
},
{
name = top;
pos = (313,720);
}
);
hints = (
{
horizontal = 1;
origin = (0,11);
target = (0,2);
type = Stem;
},
{
horizontal = 1;
origin = (0,4);
target = (0,6);
type = Stem;
},
{
horizontal = 1;
origin = (0,10);
target = (0,8);
type = Stem;
},
{
origin = (0,11);
target = (0,7);
type = Stem;
}
);
layerId = m006;
shapes = (
{
closed = 1;
nodes = (
(510,0,l),
(510,139,l),
(231,139,l),
(231,296,l),
(503,296,l),
(503,435,l),
(231,435,l),
(231,581,l),
(508,581,l),
(508,720,l),
(86,720,l),
(86,0,l)
);
}
);
width = 585;
},
{
anchors = (
{
name = bottom;
pos = (317,0);
},
{
name = ogonek;
pos = (418,0);
},
{
name = top;
pos = (307,720);
}
);
hints = (
{
horizontal = 1;
options = 4;
origin = (0,11);
target = (0,1);
type = TTStem;
},
{
horizontal = 1;
options = 4;
origin = (0,4);
target = (0,6);
type = TTStem;
},
{
horizontal = 1;
options = 4;
origin = (0,10);
target = (0,8);
type = TTStem;
},
{
horizontal = 1;
options = 4;
origin = (0,4);
target = (0,5);
type = TTShift;
},
{
horizontal = 1;
origin = (0,11);
target = (0,2);
type = Stem;
},
{
horizontal = 1;
origin = (0,4);
target = (0,6);
type = Stem;
},
{
horizontal = 1;
origin = (0,10);
target = (0,8);
type = Stem;
},
{
origin = (0,11);
target = (0,7);
type = Stem;
}
);
layerId = "0B84D982-BA46-4CB9-89EB-4BEFB54BBE92";
shapes = (
{
closed = 1;
nodes = (
(501,0,l),
(501,82,l),
(180,82,l),
(180,326,l),
(494,326,l),
(494,408,l),
(180,408,l),
(180,638,l),
(499,638,l),
(499,720,l),
(91,720,l),
(91,0,l)
);
}
);
width = 579;
},
{
anchors = (
{
name = bottom;
pos = (277,0);
},
{
name = ogonek;
pos = (368,0);
},
{
name = top;
pos = (266,720);
}
);
hints = (
{
horizontal = 1;
origin = (0,11);
target = (0,2);
type = Stem;
},
{
horizontal = 1;
origin = (0,4);
target = (0,6);
type = Stem;
},
{
horizontal = 1;
origin = (0,10);
target = (0,8);
type = Stem;
},
{
origin = (0,11);
target = (0,7);
type = Stem;
}
);
layerId = "1B5AC656-48C3-4864-953F-2CD31E7BA751";
shapes = (
{
closed = 1;
nodes = (
(474,0,l),
(474,139,l),
(194,139,l),
(194,297,l),
(467,297,l),
(467,436,l),
(194,436,l),
(194,581,l),
(472,581,l),
(472,720,l),
(50,720,l),
(50,0,l)
);
}
);
width = 514;
},
{
anchors = (
{
name = bottom;
pos = (269,0);
},
{
name = ogonek;
pos = (380,0);
},
{
name = top;
pos = (258,720);
}
);
hints = (
{
horizontal = 1;
options = 4;
origin = (0,11);
target = (0,1);
type = TTStem;
},
{
horizontal = 1;
options = 4;
origin = (0,4);
target = (0,6);
type = TTStem;
},
{
horizontal = 1;
options = 4;
origin = (0,10);
target = (0,8);
type = TTStem;
},
{
horizontal = 1;
options = 4;
origin = (0,4);
target = (0,5);
type = TTShift;
},
{
horizontal = 1;
origin = (0,11);
target = (0,2);
type = Stem;
},
{
horizontal = 1;
origin = (0,4);
target = (0,6);
type = Stem;
},
{
horizontal = 1;
origin = (0,10);
target = (0,8);
type = Stem;
},
{
origin = (0,11);
target = (0,7);
type = Stem;
}
);
layerId = "F32A93D6-BEB9-4F11-B510-2860D42C0CD2";
shapes = (
{
closed = 1;
nodes = (
(463,0,l),
(463,82,l),
(141,82,l),
(141,327,l),
(456,327,l),
(456,409,l),
(141,409,l),
(141,638,l),
(461,638,l),
(461,720,l),
(53,720,l),
(53,0,l)
);
}
);
width = 504;
}
);
metricLeft = H;
unicode = 69;
},
{
glyphname = Schwa;
kernLeft = O;
kernRight = O;
lastChange = "2026-05-22 21:13:15 +0000";
layers = (
{
hints = (
{
horizontal = 1;
origin = (0,28);
target = (0,18);
type = Stem;
},
{
horizontal = 1;
origin = (0,23);
target = (0,25);
type = Stem;
},
{
horizontal = 1;
origin = (0,5);
target = (0,12);
type = Stem;
}
);
layerId = m006;
shapes = (
{
closed = 1;
nodes = (
(607,-13,o),
(758,153,o),
(758,359,cs),
(758,566,o),
(607,733,o),
(393,733,cs),
(270,733,o),
(177,695,o),
(85,607,c),
(187,499,l),
(243,558,o),
(306,591,o),
(390,591,cs),
(519,591,o),
(609,491,o),
(609,359,cs),
(609,228,o),
(528,129,o),
(390,129,cs),
(285,129,o),
(206,186,o),
(197,294,c),
(167,274,l),
(632,274,l),
(632,408,l),
(51,408,l),
(17,160,o),
(157,-13,o),
(393,-13,cs)
);
}
);
width = 804;
},
{
hints = (
{
horizontal = 1;
origin = (0,28);
target = (0,18);
type = Stem;
},
{
horizontal = 1;
origin = (0,23);
target = (0,25);
type = Stem;
},
{
horizontal = 1;
origin = (0,5);
target = (0,12);
type = Stem;
},
{
origin = (0,25);
target = (0,21,0,23);
type = Stem;
},
{
origin = (0,15);
target = (0,2);
type = Stem;
}
);
layerId = "0B84D982-BA46-4CB9-89EB-4BEFB54BBE92";
shapes = (
{
closed = 1;
nodes = (
(606,-13,o),
(761,148,o),
(761,359,cs),
(761,571,o),
(611,733,o),
(406,733,cs),
(273,733,o),
(174,684,o),
(100,581,c),
(174,526,l),
(223,601,o),
(305,651,o),
(398,651,cs),
(563,651,o),
(667,523,o),
(667,359,cs),
(667,195,o),
(555,69,o),
(405,69,cs),
(243,69,o),
(142,174,o),
(140,326,c),
(106,303,l),
(680,302,l),
(680,380,l),
(52,380,l),
(24,212,o),
(133,-13,o),
(406,-13,cs)
);
}
);
width = 809;
},
{
background = {
shapes = (
{
closed = 1;
nodes = (
(592,-13,o),
(753,153,o),
(753,359,cs),
(753,565,o),
(592,733,o),
(379,733,cs),
(166,733,o),
(4,565,o),
(4,359,cs),
(4,153,o),
(166,-13,o),
(379,-13,cs)
);
},
{
closed = 1;
nodes = (
(240,120,o),
(153,228,o),
(153,359,cs),
(153,489,o),
(240,599,o),
(379,599,cs),
(518,599,o),
(603,489,o),
(603,359,cs),
(603,228,o),
(518,120,o),
(379,120,cs)
);
}
);
};
hints = (
{
horizontal = 1;
origin = (0,28);
target = (0,18);
type = Stem;
},
{
horizontal = 1;
place = (293.5,124.5);
type = Stem;
},
{
horizontal = 1;
origin = (0,5);
target = (0,12);
type = Stem;
}
);
layerId = "1B5AC656-48C3-4864-953F-2CD31E7BA751";
shapes = (
{
closed = 1;
nodes = (
(597,-13,o),
(751,156,o),
(751,362,cs),
(751,567,o),
(630,733,o),
(377,733,cs),
(243,733,o),
(131,666,o),
(74,578,c),
(189,491,l),
(226,554,o),
(290,592,o),
(378,592,cs),
(522,592,o),
(602,506,o),
(602,362,cs),
(602,222,o),
(516,128,o),
(390,128,cs),
(270,128,o),
(193,209,o),
(178,309,c),
(162,290,l),
(711,299,l),
(711,418,l),
(32,418,l),
(-6,211,o),
(142,-13,o),
(383,-13,cs)
);
}
);
width = 777;
},
{
hints = (
{
horizontal = 1;
origin = (0,28);
target = (0,18);
type = Stem;
},
{
horizontal = 1;
origin = (0,23);
target = (0,25);
type = Stem;
},
{
horizontal = 1;
origin = (0,5);
target = (0,12);
type = Stem;
},
{
origin = (0,25);
target = (0,21,0,23);
type = Stem;
},
{
origin = (0,15);
target = (0,2);
type = Stem;
}
);
layerId = "F32A93D6-BEB9-4F11-B510-2860D42C0CD2";
shapes = (
{
closed = 1;
nodes = (
(594,-13,o),
(752,151,o),
(752,362,cs),
(752,572,o),
(632,733,o),
(388,733,cs),
(244,733,o),
(126,655,o),
(87,552,c),
(167,517,l),
(197,596,o),
(278,652,o),
(391,652,cs),
(564,652,o),
(658,538,o),
(658,362,cs),
(658,189,o),
(541,68,o),
(403,68,cs),
(226,68,o),
(127,197,o),
(119,341,c),
(99,319,l),
(671,327,l),
(671,390,l),
(31,390,l),
(3,278,o),
(103,-13,o),
(394,-13,cs)
);
}
);
width = 778;
}
);
metricLeft = O;
metricRight = O;
unicode = 399;
},
{
glyphname = F;
kernLeft = H;
kernRight = F;
lastChange = "2026-05-22 21:13:15 +0000";
layers = (
{
anchors = (
{
name = bottom;
pos = (159,0);
},
{
name = ogonek;
pos = (126,0);
},
{
name = top;
pos = (317,720);
}
);
hints = (
{
horizontal = 1;
origin = (0,9);
target = up;
type = BottomGhost;
},
{
horizontal = 1;
origin = (0,2);
target = (0,4);
type = Stem;
},
{
horizontal = 1;
origin = (0,8);
target = (0,6);
type = Stem;
},
{
origin = (0,9);
target = (0,5);
type = Stem;
}
);
layerId = m006;
shapes = (
{
closed = 1;
nodes = (
(231,0,l),
(231,289,l),
(504,289,l),
(504,428,l),
(231,428,l),
(231,581,l),
(509,581,l),
(509,720,l),
(86,720,l),
(86,0,l)
);
}
);
width = 580;
},
{
anchors = (
{
name = bottom;
pos = (137,0);
},
{
name = ogonek;
pos = (115,0);
},
{
name = top;
pos = (312,720);
}
);
hints = (
{
horizontal = 1;
origin = (0,9);
target = up;
type = BottomGhost;
},
{
horizontal = 1;
origin = (0,2);
target = (0,4);
type = Stem;
},
{
horizontal = 1;
origin = (0,8);
target = (0,6);
type = Stem;
},
{
origin = (0,9);
target = (0,5);
type = Stem;
}
);
layerId = "0B84D982-BA46-4CB9-89EB-4BEFB54BBE92";
shapes = (
{
closed = 1;
nodes = (
(182,0,l),
(182,318,l),
(497,318,l),
(497,401,l),
(182,401,l),
(182,638,l),
(502,638,l),
(502,720,l),
(91,720,l),
(91,0,l)
);
}
);
width = 576;
},
{
anchors = (
{
name = bottom;
pos = (123,0);
},
{
name = ogonek;
pos = (194,0);
},
{
name = top;
pos = (282,720);
}
);
hints = (
{
horizontal = 1;
origin = (0,9);
target = up;
type = BottomGhost;
},
{
horizontal = 1;
origin = (0,2);
target = (0,4);
type = Stem;
},
{
horizontal = 1;
origin = (0,8);
target = (0,6);
type = Stem;
},
{
origin = (0,9);
target = (0,5);
type = Stem;
}
);
layerId = "1B5AC656-48C3-4864-953F-2CD31E7BA751";
shapes = (
{
closed = 1;
nodes = (
(194,0,l),
(194,288,l),
(468,288,l),
(468,427,l),
(194,427,l),
(194,581,l),
(473,581,l),
(473,720,l),
(50,720,l),
(50,0,l)
);
}
);
width = 509;
},
{
anchors = (
{
name = bottom;
pos = (99,0);
},
{
name = ogonek;
pos = (181,0);
},
{
name = top;
pos = (275,720);
}
);
hints = (
{
horizontal = 1;
origin = (0,9);
target = up;
type = BottomGhost;
},
{
horizontal = 1;
origin = (0,2);
target = (0,4);
type = Stem;
},
{
horizontal = 1;
origin = (0,8);
target = (0,6);
type = Stem;
},
{
origin = (0,9);
target = (0,5);
type = Stem;
}
);
layerId = "F32A93D6-BEB9-4F11-B510-2860D42C0CD2";
shapes = (
{
closed = 1;
nodes = (
(143,0,l),
(143,317,l),
(459,317,l),
(459,400,l),
(143,400,l),
(143,638,l),
(464,638,l),
(464,720,l),
(53,720,l),
(53,0,l)
);
}
);
width = 501;
}
);
metricLeft = H;
unicode = 70;
},
{
glyphname = Fhook;
kernLeft = j;
kernRight = F;
lastChange = "2026-05-22 21:13:15 +0000";
layers = (
{
hints = (
{
horizontal = 1;
origin = (0,21);
target = (0,14);
type = Stem;
},
{
origin = (0,2);
target = (0,11);
type = Stem;
},
{
horizontal = 1;
origin = (0,2);
target = up;
type = BottomGhost;
},
{
horizontal = 1;
origin = (0,4);
target = (0,6);
type = Stem;
},
{
horizontal = 1;
origin = (0,10);
target = (0,8);
type = Stem;
},
{
origin = (0,11);
target = (0,7);
type = Stem;
}
);
layerId = m006;
shapes = (
{
closed = 1;
nodes = (
(137,-236,o),
(226,-165,o),
(226,-16,cs),
(226,289,l),
(499,289,l),
(499,428,l),
(226,428,l),
(226,581,l),
(504,581,l),
(504,720,l),
(81,720,l),
(81,-26,ls),
(81,-73,o),
(48,-102,o),
(7,-102,cs),
(-29,-102,o),
(-56,-82,o),
(-72,-61,c),
(-162,-179,l),
(-124,-214,o),
(-69,-236,o),
(-7,-236,cs)
);
}
);
width = 575;
},
{
hints = (
{
horizontal = 1;
origin = (0,21);
target = (0,14);
type = Stem;
},
{
origin = (0,2);
target = (0,11);
type = Stem;
},
{
horizontal = 1;
place = (0,21);
target = up;
type = BottomGhost;
},
{
horizontal = 1;
origin = (0,4);
target = (0,6);
type = Stem;
},
{
horizontal = 1;
origin = (0,10);
target = (0,8);
type = Stem;
},
{
origin = (0,11);
target = (0,7);
type = Stem;
}
);
layerId = "0B84D982-BA46-4CB9-89EB-4BEFB54BBE92";
shapes = (
{
closed = 1;
nodes = (
(107,-239,o),
(180,-168,o),
(180,-37,cs),
(180,318,l),
(495,318,l),
(495,401,l),
(180,401,l),
(180,638,l),
(500,638,l),
(500,720,l),
(89,720,l),
(89,-35,ls),
(89,-111,o),
(47,-155,o),
(-13,-155,cs),
(-47,-155,o),
(-77,-145,o),
(-99,-120,c),
(-160,-193,l),
(-123,-230,o),
(-72,-243,o),
(-12,-242,cs)
);
}
);
width = 574;
},
{
layerId = "1B5AC656-48C3-4864-953F-2CD31E7BA751";
shapes = (
{
closed = 1;
nodes = (
(107,-243,o),
(195,-172,o),
(195,-23,cs),
(195,294,l),
(469,294,l),
(469,421,l),
(195,421,l),
(195,590,l),
(474,590,l),
(474,720,l),
(51,720,l),
(51,-33,ls),
(51,-80,o),
(18,-109,o),
(-23,-109,cs),
(-59,-109,o),
(-86,-89,o),
(-102,-68,c),
(-192,-186,l),
(-154,-221,o),
(-99,-243,o),
(-37,-243,cs)
);
}
);
width = 510;
},
{
hints = (
{
horizontal = 1;
origin = (0,21);
target = (0,14);
type = Stem;
},
{
origin = (0,2);
target = (0,11);
type = Stem;
},
{
horizontal = 1;
place = (16,21);
target = up;
type = BottomGhost;
},
{
horizontal = 1;
origin = (0,4);
target = (0,6);
type = Stem;
},
{
horizontal = 1;
origin = (0,10);
target = (0,8);
type = Stem;
},
{
origin = (0,11);
target = (0,7);
type = Stem;
}
);
layerId = "F32A93D6-BEB9-4F11-B510-2860D42C0CD2";
shapes = (
{
closed = 1;
nodes = (
(75,-240,o),
(147,-169,o),
(147,-38,cs),
(147,323,l),
(463,323,l),
(463,394,l),
(147,394,l),
(147,647,l),
(468,647,l),
(468,720,l),
(57,720,l),
(57,-36,ls),
(57,-112,o),
(15,-156,o),
(-45,-156,cs),
(-79,-156,o),
(-109,-146,o),
(-131,-121,c),
(-192,-194,l),
(-155,-231,o),
(-104,-244,o),
(-44,-243,cs)
);
}
);
width = 505;
}
);
metricRight = F;
unicode = 401;
},
{
glyphname = G;
kernLeft = O;
kernRight = O;
lastChange = "2026-05-28 00:08:01 +0000";
layers = (
{
anchors = (
{
name = bottom;
pos = (414,0);
},
{
name = ogonek;
pos = (547,9);
},
{
name = top;
pos = (414,720);
}
);
background = {
shapes = (
{
pos = (5,0);
ref = O;
},
{
pos = (5,0);
ref = C;
}
);
};
hints = (
{
horizontal = 1;
origin = (0,28);
target = (0,9);
type = Stem;
},
{
horizontal = 1;
origin = (0,5);
target = (0,3);
type = Stem;
},
{
horizontal = 1;
origin = (0,22);
target = (0,15);
type = Stem;
},
{
origin = (0,25);
target = (0,12);
type = Stem;
}
);
layerId = m006;
shapes = (
{
closed = 1;
nodes = (
(646,-13,o),
(787,159,o),
(753,408,c),
(378,408,l),
(378,274,l),
(638,274,l),
(609,294,l),
(599,186,o),
(519,129,o),
(415,129,cs),
(276,129,o),
(194,228,o),
(194,359,cs),
(194,491,o),
(285,591,o),
(415,591,cs),
(493,591,o),
(537,571,o),
(585,520,c),
(688,618,l),
(612,701,o),
(528,733,o),
(412,733,cs),
(198,733,o),
(46,566,o),
(46,359,cs),
(46,153,o),
(198,-13,o),
(412,-13,cs)
);
}
);
width = 804;
},
{
anchors = (
{
name = bottom;
pos = (414,0);
},
{
name = ogonek;
pos = (544,9);
},
{
name = top;
pos = (414,720);
}
);
hints = (
{
horizontal = 1;
origin = (0,28);
target = (0,9);
type = Stem;
},
{
horizontal = 1;
origin = (0,5);
target = (0,3);
type = Stem;
},
{
horizontal = 1;
origin = (0,22);
target = (0,15);
type = Stem;
},
{
origin = (0,25);
target = (0,12);
type = Stem;
},
{
origin = (0,5,0,9);
target = (0,2);
type = Stem;
}
);
layerId = "0B84D982-BA46-4CB9-89EB-4BEFB54BBE92";
shapes = (
{
closed = 1;
nodes = (
(674,-13,o),
(785,213,o),
(757,380,c),
(380,380,l),
(380,300,l),
(703,301,l),
(671,326,l),
(667,172,o),
(567,69,o),
(415,69,cs),
(254,69,o),
(142,195,o),
(142,359,cs),
(142,523,o),
(246,651,o),
(415,651,cs),
(500,651,o),
(568,621,o),
(615,563,c),
(681,620,l),
(611,700,o),
(530,733,o),
(414,733,cs),
(199,733,o),
(48,571,o),
(48,359,cs),
(48,148,o),
(203,-13,o),
(414,-13,cs)
);
}
);
width = 809;
},
{
anchors = (
{
name = bottom;
pos = (401,0);
},
{
name = ogonek;
pos = (536,9);
},
{
name = top;
pos = (401,720);
}
);
background = {
shapes = (
{
closed = 1;
nodes = (
(187,-13,o),
(26,153,o),
(26,359,cs),
(26,565,o),
(179,733,o),
(401,733,cs),
(518,733,o),
(599,697,o),
(664,620,c),
(562,531,l),
(519,577,o),
(466,599,o),
(401,599,cs),
(261,599,o),
(175,490,o),
(175,359,cs),
(175,227,o),
(262,119,o),
(404,119,cs),
(474,119,o),
(526,144,o),
(568,190,c),
(673,101,l),
(619,35,o),
(526,-13,o),
(401,-13,cs)
);
},
{
closed = 1;
nodes = (
(614,-13,o),
(774,153,o),
(774,359,cs),
(774,565,o),
(614,733,o),
(401,733,cs),
(187,733,o),
(26,565,o),
(26,359,cs),
(26,153,o),
(187,-13,o),
(401,-13,cs)
);
},
{
closed = 1;
nodes = (
(261,119,o),
(175,228,o),
(175,359,cs),
(175,489,o),
(261,599,o),
(401,599,cs),
(540,599,o),
(625,489,o),
(625,359,cs),
(625,228,o),
(540,119,o),
(401,119,cs)
);
}
);
};
layerId = "1B5AC656-48C3-4864-953F-2CD31E7BA751";
shapes = (
{
closed = 1;
nodes = (
(650,-13,o),
(776,173,o),
(742,411,c),
(367,411,l),
(367,282,l),
(666,285,l),
(606,337,l),
(607,203,o),
(534,129,o),
(401,129,cs),
(264,129,o),
(175,219,o),
(175,359,cs),
(175,500,o),
(265,591,o),
(403,591,cs),
(475,591,o),
(523,573,o),
(563,523,c),
(667,618,l),
(599,698,o),
(504,733,o),
(401,733,cs),
(187,733,o),
(26,573,o),
(26,359,cs),
(26,146,o),
(187,-13,o),
(401,-13,cs)
);
}
);
width = 773;
},
{
anchors = (
{
name = bottom;
pos = (399,0);
},
{
name = ogonek;
pos = (531,9);
},
{
name = top;
pos = (399,720);
}
);
background = {
shapes = (
{
ref = O;
}
);
};
hints = (
{
horizontal = 1;
origin = (0,28);
target = (0,9);
type = Stem;
},
{
horizontal = 1;
origin = (0,5);
target = (0,3);
type = Stem;
},
{
horizontal = 1;
origin = (0,22);
target = (0,15);
type = Stem;
},
{
origin = (0,25);
target = (0,12);
type = Stem;
},
{
origin = (0,5,0,9);
target = (0,2);
type = Stem;
}
);
layerId = "F32A93D6-BEB9-4F11-B510-2860D42C0CD2";
shapes = (
{
closed = 1;
nodes = (
(669,-13,o),
(759,228,o),
(732,383,c),
(361,383,l),
(361,301,l),
(717,301,l),
(653,359,l),
(655,181,o),
(564,70,o),
(404,70,cs),
(240,70,o),
(118,192,o),
(118,359,cs),
(118,520,o),
(229,650,o),
(395,650,cs),
(474,650,o),
(540,628,o),
(579,566,c),
(648,622,l),
(586,699,o),
(498,733,o),
(395,733,cs),
(180,733,o),
(26,570,o),
(26,359,cs),
(26,147,o),
(184,-13,o),
(398,-13,cs)
);
}
);
width = 763;
}
);
metricLeft = O;
metricRight = O;
unicode = 71;
},
{
glyphname = H;
kernLeft = H;
kernRight = H;
lastChange = "2026-05-30 22:07:13 +0000";
layers = (
{
anchors = (
{
name = bottom;
pos = (380,0);
},
{
name = ogonek;
pos = (528,0);
},
{
name = top;
pos = (380,720);
}
);
background = {
shapes = (
{
closed = 1;
nodes = (
(196,0,l),
(196,340,l),
(151,295,l),
(530,295,l),
(486,340,l),
(486,0,l),
(625,0,l),
(625,699,l),
(486,699,l),
(486,376,l),
(530,421,l),
(151,421,l),
(196,376,l),
(196,699,l),
(56,699,l),
(56,0,l)
);
}
);
};
hints = (
{
horizontal = 1;
options = 4;
origin = (0,11);
target = (0,3);
type = TTShift;
},
{
horizontal = 1;
options = 4;
origin = (0,10);
target = (0,6);
type = TTShift;
},
{
horizontal = 1;
origin = (0,11);
target = up;
type = BottomGhost;
},
{
horizontal = 1;
origin = (0,2);
target = (0,8);
type = Stem;
},
{
horizontal = 1;
origin = (0,10);
target = down;
type = TopGhost;
},
{
origin = (0,11);
target = (0,9);
type = Stem;
},
{
origin = (0,3);
target = (0,4);
type = Stem;
}
);
layerId = m006;
shapes = (
{
closed = 1;
nodes = (
(231,0,l),
(231,304,l),
(528,304,l),
(528,0,l),
(673,0,l),
(673,720,l),
(528,720,l),
(528,443,l),
(231,443,l),
(231,720,l),
(86,720,l),
(86,0,l)
);
}
);
width = 759;
},
{
anchors = (
{
name = bottom;
pos = (378,0);
},
{
name = ogonek;
pos = (378,-9);
},
{
name = top;
pos = (378,720);
}
);
hints = (
{
horizontal = 1;
options = 4;
origin = (0,11);
type = TTSnap;
},
{
horizontal = 1;
options = 4;
origin = (0,8);
target = (0,2);
type = TTStem;
},
{
horizontal = 1;
options = 4;
origin = (0,10);
type = TTSnap;
},
{
horizontal = 1;
options = 4;
origin = (0,11);
target = (0,3);
type = TTShift;
},
{
horizontal = 1;
options = 4;
origin = (0,10);
target = (0,6);
type = TTShift;
},
{
horizontal = 1;
origin = (0,11);
target = up;
type = BottomGhost;
},
{
horizontal = 1;
origin = (0,2);
target = (0,8);
type = Stem;
},
{
horizontal = 1;
origin = (0,10);
target = down;
type = TopGhost;
},
{
origin = (0,11);
target = (0,9);
type = Stem;
},
{
origin = (0,6);
target = (0,5);
type = Stem;
}
);
layerId = "0B84D982-BA46-4CB9-89EB-4BEFB54BBE92";
shapes = (
{
closed = 1;
nodes = (
(180,0,l),
(180,334,l),
(576,334,l),
(576,0,l),
(665,0,l),
(665,720,l),
(576,720,l),
(576,416,l),
(180,416,l),
(180,720,l),
(91,720,l),
(91,0,l)
);
}
);
width = 756;
},
{
anchors = (
{
name = bottom;
pos = (343,0);
},
{
name = ogonek;
pos = (636,0);
},
{
name = top;
pos = (343,720);
}
);
background = {
shapes = (
{
closed = 1;
nodes = (
(474,0,l),
(474,130,l),
(148,130,l),
(194,83,l),
(194,344,l),
(148,298,l),
(467,298,l),
(467,428,l),
(148,428,l),
(194,381,l),
(194,636,l),
(148,590,l),
(472,590,l),
(472,720,l),
(50,720,l),
(50,0,l)
);
}
);
};
hints = (
{
horizontal = 1;
origin = (0,11);
target = up;
type = BottomGhost;
},
{
horizontal = 1;
origin = (0,2);
target = (0,8);
type = Stem;
},
{
horizontal = 1;
origin = (0,10);
target = down;
type = TopGhost;
},
{
origin = (0,11);
target = (0,9);
type = Stem;
},
{
origin = (0,5);
target = (0,7);
type = Stem;
}
);
layerId = "1B5AC656-48C3-4864-953F-2CD31E7BA751";
shapes = (
{
closed = 1;
nodes = (
(194,0,l),
(194,296,l),
(492,296,l),
(492,0,l),
(636,0,l),
(636,720,l),
(492,720,l),
(492,435,l),
(194,435,l),
(194,720,l),
(50,720,l),
(50,0,l)
);
}
);
width = 686;
},
{
anchors = (
{
name = bottom;
pos = (339,0);
},
{
name = ogonek;
pos = (484,0);
},
{
name = top;
pos = (339,720);
}
);
hints = (
{
horizontal = 1;
options = 4;
origin = (0,11);
type = TTSnap;
},
{
horizontal = 1;
options = 4;
origin = (0,8);
target = (0,2);
type = TTStem;
},
{
horizontal = 1;
options = 4;
origin = (0,10);
type = TTSnap;
},
{
horizontal = 1;
options = 4;
origin = (0,11);
target = (0,3);
type = TTShift;
},
{
horizontal = 1;
options = 4;
origin = (0,10);
target = (0,6);
type = TTShift;
},
{
horizontal = 1;
origin = (0,11);
target = up;
type = BottomGhost;
},
{
horizontal = 1;
origin = (0,2);
target = (0,8);
type = Stem;
},
{
horizontal = 1;
origin = (0,10);
target = down;
type = TopGhost;
},
{
origin = (0,11);
target = (0,9);
type = Stem;
},
{
origin = (0,5);
target = (0,7);
type = Stem;
}
);
layerId = "F32A93D6-BEB9-4F11-B510-2860D42C0CD2";
shapes = (
{
closed = 1;
nodes = (
(142,0,l),
(142,326,l),
(537,326,l),
(537,0,l),
(626,0,l),
(626,720,l),
(537,720,l),
(537,408,l),
(142,408,l),
(142,720,l),
(53,720,l),
(53,0,l)
);
}
);
width = 679;
}
);
unicode = 72;
},
{
glyphname = Hbar;
kernLeft = H;
kernRight = H;
lastChange = "2026-05-22 21:13:15 +0000";
layers = (
{
hints = (
{
horizontal = 1;
origin = (1,3);
target = (1,2);
type = Stem;
}
);
layerId = m006;
shapes = (
{
pos = (4,0);
ref = H;
},
{
closed = 1;
nodes = (
(743,522,l),
(743,646,l),
(12,646,l),
(12,522,l)
);
}
);
width = 755;
},
{
hints = (
{
horizontal = 1;
origin = (1,3);
target = (1,2);
type = Stem;
}
);
layerId = "0B84D982-BA46-4CB9-89EB-4BEFB54BBE92";
shapes = (
{
pos = (4,0);
ref = H;
},
{
closed = 1;
nodes = (
(732,540,l),
(732,615,l),
(18,615,l),
(18,540,l)
);
}
);
width = 751;
},
{
layerId = "1B5AC656-48C3-4864-953F-2CD31E7BA751";
shapes = (
{
ref = H;
},
{
closed = 1;
nodes = (
(685,514,l),
(685,634,l),
(4,634,l),
(4,514,l)
);
}
);
width = 689;
},
{
hints = (
{
horizontal = 1;
origin = (1,3);
target = (1,2);
type = Stem;
}
);
layerId = "F32A93D6-BEB9-4F11-B510-2860D42C0CD2";
shapes = (
{
ref = H;
},
{
closed = 1;
nodes = (
(682,528,l),
(682,606,l),
(-2,606,l),
(-2,528,l)
);
}
);
width = 680;
}
);
unicode = 294;
},
{
glyphname = I;
kernLeft = H;
kernRight = H;
lastChange = "2026-05-22 21:13:15 +0000";
layers = (
{
anchors = (
{
name = bottom;
pos = (159,0);
},
{
name = ogonek;
pos = (132,0);
},
{
name = top;
pos = (159,720);
}
);
hints = (
{
horizontal = 1;
origin = (0,4);
target = up;
type = BottomGhost;
},
{
horizontal = 1;
origin = (0,2);
target = down;
type = TopGhost;
},
{
origin = (0,4);
target = (0,1);
type = Stem;
}
);
layerId = m006;
shapes = (
{
closed = 1;
nodes = (
(231,0,l),
(231,720,l),
(86,720,l),
(86,384,l),
(86,0,l)
);
}
);
width = 317;
},
{
anchors = (
{
name = bottom;
pos = (136,0);
},
{
name = ogonek;
pos = (99,0);
},
{
name = top;
pos = (136,720);
}
);
hints = (
{
horizontal = 1;
origin = (0,4);
target = up;
type = BottomGhost;
},
{
horizontal = 1;
origin = (0,2);
target = down;
type = TopGhost;
},
{
origin = (0,4);
target = (0,1);
type = Stem;
}
);
layerId = "0B84D982-BA46-4CB9-89EB-4BEFB54BBE92";
shapes = (
{
closed = 1;
nodes = (
(180,0,l),
(180,720,l),
(91,720,l),
(91,368,l),
(91,0,l)
);
}
);
width = 271;
},
{
anchors = (
{
name = bottom;
pos = (122,0);
},
{
name = ogonek;
pos = (100,0);
},
{
name = top;
pos = (122,720);
}
);
layerId = "1B5AC656-48C3-4864-953F-2CD31E7BA751";
shapes = (
{
closed = 1;
nodes = (
(194,0,l),
(194,720,l),
(50,720,l),
(50,337,l),
(50,0,l)
);
}
);
width = 244;
},
{
anchors = (
{
name = bottom;
pos = (97,0);
},
{
name = ogonek;
pos = (65,0);
},
{
name = top;
pos = (97,720);
}
);
hints = (
{
horizontal = 1;
origin = (0,4);
target = up;
type = BottomGhost;
},
{
horizontal = 1;
origin = (0,2);
target = down;
type = TopGhost;
},
{
origin = (0,4);
target = (0,1);
type = Stem;
}
);
layerId = "F32A93D6-BEB9-4F11-B510-2860D42C0CD2";
shapes = (
{
closed = 1;
nodes = (
(141,0,l),
(141,720,l),
(53,720,l),
(53,321,l),
(53,0,l)
);
}
);
width = 194;
}
);
metricLeft = H;
metricRight = H;
unicode = 73;
},
{
glyphname = J;
kernLeft = J;
kernRight = U;
lastChange = "2026-05-22 21:13:15 +0000";
layers = (
{
anchors = (
{
name = bottom;
pos = (202,0);
},
{
name = ogonek;
pos = (267,0);
},
{
name = top;
pos = (352,720);
}
);
background = {
shapes = (
{
closed = 1;
nodes = (
(379,-13,o),
(491,99,o),
(491,259,cs),
(491,699,l),
(351,699,l),
(351,274,ls),
(351,177,o),
(304,117,o),
(208,117,cs),
(112,117,o),
(65,177,o),
(65,274,cs),
(65,699,l),
(-75,699,l),
(-75,259,ls),
(-75,99,o),
(37,-13,o),
(208,-13,cs)
);
},
{
closed = 1;
nodes = (
(326,-13,o),
(429,39,o),
(429,202,cs),
(429,699,l),
(289,699,l),
(289,198,ls),
(289,145,o),
(261,117,o),
(208,117,cs),
(185,117,o),
(163,124,o),
(143,138,c),
(90,16,l),
(118,-1,o),
(154,-13,o),
(212,-13,cs)
);
}
);
};
hints = (
{
horizontal = 1;
origin = (0,15);
target = (0,8);
type = Stem;
},
{
horizontal = 1;
origin = (0,4);
target = down;
type = TopGhost;
},
{
origin = (0,3);
target = (0,5);
type = Stem;
}
);
layerId = m006;
shapes = (
{
closed = 1;
nodes = (
(346,-13,o),
(424,58,o),
(424,206,cs),
(424,720,l),
(280,720,l),
(280,197,ls),
(280,149,o),
(247,121,o),
(206,121,cs),
(170,121,o),
(143,140,o),
(127,162,c),
(36,49,l),
(85,8,o),
(140,-13,o),
(202,-13,cs)
);
}
);
width = 505;
},
{
anchors = (
{
name = bottom;
pos = (188,0);
},
{
name = ogonek;
pos = (253,0);
},
{
name = top;
pos = (330,720);
}
);
hints = (
{
horizontal = 1;
origin = (0,15);
target = (0,8);
type = Stem;
},
{
horizontal = 1;
origin = (0,4);
target = down;
type = TopGhost;
},
{
origin = (0,3);
target = (0,5);
type = Stem;
}
);
layerId = "0B84D982-BA46-4CB9-89EB-4BEFB54BBE92";
shapes = (
{
closed = 1;
nodes = (
(308,-9,o),
(376,62,o),
(376,193,cs),
(376,720,l),
(285,720,l),
(285,192,ls),
(285,115,o),
(244,72,o),
(183,72,cs),
(149,72,o),
(119,81,o),
(98,107,c),
(40,37,l),
(79,-1,o),
(129,-13,o),
(188,-12,cs)
);
}
);
width = 461;
},
{
anchors = (
{
name = bottom;
pos = (147,0);
},
{
name = ogonek;
pos = (212,0);
},
{
name = top;
pos = (279,720);
}
);
background = {
shapes = (
{
closed = 1;
nodes = (
(409,1335,o),
(294,1220,o),
(118,1220,cs),
(-58,1220,o),
(-173,1335,o),
(-173,1500,cs),
(-173,1953,l),
(-28,1953,l),
(-28,1505,ls),
(-28,1414,o),
(20,1352,o),
(118,1352,cs),
(217,1352,o),
(264,1414,o),
(264,1505,cs),
(264,1953,l),
(409,1953,l),
(409,1500,ls)
);
},
{
closed = 1;
nodes = (
(251,1220,o),
(351,1287,o),
(351,1449,cs),
(351,1953,l),
(207,1953,l),
(207,1445,ls),
(207,1382,o),
(173,1352,o),
(119,1352,cs),
(89,1352,o),
(58,1365,o),
(38,1385,c),
(-51,1284,l),
(-6,1237,o),
(40,1220,o),
(121,1220,cs)
);
},
{
closed = 1;
nodes = (
(272,-12,o),
(351,53,o),
(351,197,cs),
(351,720,l),
(207,720,l),
(207,195,ls),
(207,140,o),
(171,118,o),
(115,118,cs),
(82,118,o),
(50,126,o),
(23,150,c),
(-56,45,l),
(-9,4,o),
(56,-12,o),
(131,-12,cs)
);
},
{
closed = 1;
nodes = (
(261,-12,o),
(351,53,o),
(351,189,cs),
(351,720,l),
(207,720,l),
(207,189,ls),
(207,143,o),
(172,112,o),
(115,112,cs),
(76,112,o),
(50,123,o),
(25,146,c),
(-56,45,l),
(-12,7,o),
(49,-12,o),
(153,-12,cs)
);
},
{
closed = 1;
nodes = (
(25,146,l),
(50,123,o),
(76,112,o),
(115,112,cs),
(172,112,o),
(207,143,o),
(207,189,cs),
(207,720,l),
(351,720,l),
(351,161,ls),
(351,57,o),
(271,-13,o),
(144,-13,cs),
(54,-13,o),
(-4,10,o),
(-57,43,c)
);
}
);
};
layerId = "1B5AC656-48C3-4864-953F-2CD31E7BA751";
shapes = (
{
closed = 1;
nodes = (
(262,-11,o),
(351,51,o),
(351,191,cs),
(351,720,l),
(207,720,l),
(207,196,ls),
(207,140,o),
(171,118,o),
(122,118,cs),
(95,118,o),
(71,124,o),
(57,135,c),
(2,16,l),
(31,-1,o),
(85,-11,o),
(142,-11,cs)
);
}
);
width = 397;
},
{
anchors = (
{
name = bottom;
pos = (169,0);
},
{
name = ogonek;
pos = (234,0);
},
{
name = top;
pos = (293,720);
}
);
hints = (
{
horizontal = 1;
origin = (0,15);
target = (0,8);
type = Stem;
},
{
horizontal = 1;
origin = (0,4);
target = down;
type = TopGhost;
},
{
origin = (0,3);
target = (0,5);
type = Stem;
}
);
layerId = "F32A93D6-BEB9-4F11-B510-2860D42C0CD2";
shapes = (
{
closed = 1;
nodes = (
(272,-9,o),
(340,62,o),
(340,193,cs),
(340,720,l),
(249,720,l),
(249,192,ls),
(249,115,o),
(208,72,o),
(147,72,cs),
(113,72,o),
(83,81,o),
(62,107,c),
(4,37,l),
(43,-1,o),
(93,-13,o),
(152,-12,cs)
);
}
);
width = 387;
}
);
unicode = 74;
},
{
glyphname = K;
kernLeft = H;
kernRight = K;
lastChange = "2026-05-22 21:13:15 +0000";
layers = (
{
anchors = (
{
name = bottom;
pos = (337,0);
},
{
name = ogonek;
pos = (480,0);
},
{
name = top;
pos = (326,721);
}
);
hints = (
{
horizontal = 1;
origin = (0,12);
target = up;
type = BottomGhost;
},
{
horizontal = 1;
origin = (0,11);
target = down;
type = TopGhost;
},
{
origin = (0,12);
target = (0,10);
type = Stem;
}
);
layerId = m006;
shapes = (
{
closed = 1;
nodes = (
(231,0,l),
(231,318,l),
(236,318,l),
(480,0,l),
(663,0,l),
(365,383,l),
(643,720,l),
(455,720,l),
(236,423,l),
(231,423,l),
(231,720,l),
(86,720,l),
(86,0,l)
);
}
);
width = 672;
},
{
anchors = (
{
name = bottom;
pos = (312,0);
},
{
name = ogonek;
pos = (491,0);
},
{
name = top;
pos = (302,721);
}
);
hints = (
{
horizontal = 1;
origin = (0,12);
target = up;
type = BottomGhost;
},
{
horizontal = 1;
origin = (0,11);
target = down;
type = TopGhost;
},
{
origin = (0,12);
target = (0,10);
type = Stem;
}
);
layerId = "0B84D982-BA46-4CB9-89EB-4BEFB54BBE92";
shapes = (
{
closed = 1;
nodes = (
(180,0,l),
(180,351,l),
(184,351,l),
(491,0,l),
(619,0,l),
(270,379,l),
(596,720,l),
(472,720,l),
(184,395,l),
(180,395,l),
(180,720,l),
(91,720,l),
(91,0,l)
);
}
);
width = 631;
},
{
anchors = (
{
name = bottom;
pos = (310,0);
},
{
name = ogonek;
pos = (627,0);
},
{
name = top;
pos = (300,721);
}
);
background = {
shapes = (
{
closed = 1;
nodes = (
(50,0,l),
(241,0,l),
(241,720,l),
(50,720,l)
);
},
{
closed = 1;
nodes = (
(490,0,l),
(711,0,l),
(419,373,l),
(198,373,l)
);
},
{
closed = 1;
nodes = (
(422,381,l),
(701,720,l),
(460,720,l),
(225,395,l)
);
},
{
closed = 1;
nodes = (
(303,286,ls),
(465,286,o),
(563,360,o),
(563,502,cs),
(563,643,o),
(465,722,o),
(303,721,cs),
(143,720,l),
(143,286,l)
);
},
{
closed = 1;
nodes = (
(194,0,l),
(194,720,l),
(50,720,l),
(50,0,l)
);
},
{
closed = 1;
nodes = (
(194,591,l),
(295,591,ls),
(373,591,o),
(417,558,o),
(417,501,cs),
(417,442,o),
(373,409,o),
(295,409,cs),
(194,409,l)
);
},
{
closed = 1;
nodes = (
(593,0,l),
(405,348,l),
(244,348,l),
(432,0,l)
);
}
);
};
hints = (
{
origin = (0,12);
target = (0,0);
type = Stem;
}
);
layerId = "1B5AC656-48C3-4864-953F-2CD31E7BA751";
shapes = (
{
closed = 1;
nodes = (
(194,0,l),
(194,319,l),
(193,319,l),
(443,0,l),
(627,0,l),
(328,382,l),
(607,720,l),
(418,720,l),
(193,421,l),
(194,421,l),
(194,720,l),
(50,720,l),
(50,0,l)
);
}
);
width = 603;
},
{
anchors = (
{
name = bottom;
pos = (283,0);
},
{
name = ogonek;
pos = (636,0);
},
{
name = top;
pos = (274,721);
}
);
hints = (
{
horizontal = 1;
origin = (0,12);
target = up;
type = BottomGhost;
},
{
horizontal = 1;
origin = (0,11);
target = down;
type = TopGhost;
},
{
origin = (0,12);
target = (0,10);
type = Stem;
}
);
layerId = "F32A93D6-BEB9-4F11-B510-2860D42C0CD2";
shapes = (
{
closed = 1;
nodes = (
(141,0,l),
(141,352,l),
(139,352,l),
(452,0,l),
(581,0,l),
(231,378,l),
(558,720,l),
(433,720,l),
(139,393,l),
(141,393,l),
(141,720,l),
(53,720,l),
(53,0,l)
);
}
);
width = 558;
}
);
metricLeft = H;
unicode = 75;
},
{
glyphname = L;
kernLeft = H;
kernRight = L;
lastChange = "2026-05-22 21:13:15 +0000";
layers = (
{
anchors = (
{
name = bottom;
pos = (306,0);
},
{
name = cedilla;
pos = (314,0);
},
{
name = center;
pos = (332,381);
},
{
name = ogonek;
pos = (499,0);
},
{
name = top;
pos = (154,720);
},
{
name = topright;
pos = (321,720);
}
);
hints = (
{
horizontal = 1;
origin = (0,5);
target = (0,2);
type = Stem;
},
{
horizontal = 1;
origin = (0,4);
target = down;
type = TopGhost;
},
{
origin = (0,5);
target = (0,3);
type = Stem;
}
);
layerId = m006;
shapes = (
{
closed = 1;
nodes = (
(499,0,l),
(499,139,l),
(231,139,l),
(231,720,l),
(86,720,l),
(86,0,l)
);
}
);
width = 559;
},
{
anchors = (
{
name = bottom;
pos = (289,0);
},
{
name = cedilla;
pos = (299,0);
},
{
name = center;
pos = (315,381);
},
{
name = ogonek;
pos = (483,0);
},
{
name = top;
pos = (135,720);
},
{
name = topright;
pos = (305,720);
}
);
hints = (
{
horizontal = 1;
origin = (0,5);
target = (0,2);
type = Stem;
},
{
horizontal = 1;
origin = (0,4);
target = down;
type = TopGhost;
},
{
origin = (0,5);
target = (0,3);
type = Stem;
}
);
layerId = "0B84D982-BA46-4CB9-89EB-4BEFB54BBE92";
shapes = (
{
closed = 1;
nodes = (
(484,0,l),
(484,82,l),
(180,82,l),
(180,720,l),
(91,720,l),
(91,0,l)
);
}
);
width = 548;
},
{
anchors = (
{
name = bottom;
pos = (269,0);
},
{
name = cedilla;
pos = (292,0);
},
{
name = center;
pos = (295,380);
},
{
name = ogonek;
pos = (463,0);
},
{
name = top;
pos = (118,720);
},
{
name = topright;
pos = (285,720);
}
);
background = {
shapes = (
{
closed = 1;
nodes = (
(504,0,l),
(504,130,l),
(148,130,l),
(194,83,l),
(194,720,l),
(50,720,l),
(50,0,l)
);
}
);
};
hints = (
{
horizontal = 1;
origin = (0,5);
target = (0,2);
type = Stem;
},
{
horizontal = 1;
origin = (0,4);
target = down;
type = TopGhost;
},
{
origin = (0,5);
target = (0,3);
type = Stem;
}
);
layerId = "1B5AC656-48C3-4864-953F-2CD31E7BA751";
shapes = (
{
closed = 1;
nodes = (
(463,0,l),
(463,139,l),
(194,139,l),
(194,720,l),
(50,720,l),
(50,0,l)
);
}
);
width = 488;
},
{
anchors = (
{
name = bottom;
pos = (250,0);
},
{
name = cedilla;
pos = (280,0);
},
{
name = center;
pos = (276,380);
},
{
name = ogonek;
pos = (445,0);
},
{
name = top;
pos = (97,720);
},
{
name = topright;
pos = (267,720);
}
);
hints = (
{
horizontal = 1;
origin = (0,5);
target = (0,2);
type = Stem;
},
{
horizontal = 1;
origin = (0,4);
target = down;
type = TopGhost;
},
{
origin = (0,5);
target = (0,3);
type = Stem;
}
);
layerId = "F32A93D6-BEB9-4F11-B510-2860D42C0CD2";
shapes = (
{
closed = 1;
nodes = (
(446,0,l),
(446,82,l),
(141,82,l),
(141,720,l),
(53,720,l),
(53,0,l)
);
}
);
width = 473;
}
);
metricLeft = H;
unicode = 76;
},
{
glyphname = Lslash;
kernLeft = H;
kernRight = L;
lastChange = "2026-05-22 21:13:15 +0000";
layers = (
{
background = {
shapes = (
{
closed = 1;
nodes = (
(146,283,l),
(156,283,l),
(327,395,l),
(327,537,l),
(162,419,l),
(146,419,l),
(20,331,l),
(20,195,l)
);
}
);
};
hints = (
{
horizontal = 1;
origin = (1,7);
target = (1,3);
type = Stem;
},
{
origin = (1,7);
target = (1,3);
type = Stem;
}
);
layerId = m006;
shapes = (
{
pos = (4,0);
ref = L;
},
{
closed = 1;
nodes = (
(148,291,l),
(159,289,l),
(335,405,l),
(335,551,l),
(165,430,l),
(148,432,l),
(12,337,l),
(12,197,l)
);
}
);
width = 557;
},
{
hints = (
{
horizontal = 1;
origin = (1,1);
target = (1,5);
type = Stem;
}
);
layerId = "0B84D982-BA46-4CB9-89EB-4BEFB54BBE92";
shapes = (
{
pos = (13,0);
ref = L;
},
{
closed = 1;
nodes = (
(137,320,l),
(147,320,l),
(323,436,l),
(323,530,l),
(149,409,l),
(137,409,l),
(20,328,l),
(20,239,l)
);
}
);
width = 554;
},
{
background = {
shapes = (
{
closed = 1;
nodes = (
(342,477,l),
(291,550,l),
(-48,314,l),
(3,241,l)
);
},
{
closed = 0;
nodes = (
(117,461,l),
(117,287,l)
);
},
{
closed = 0;
nodes = (
(127,461,l),
(127,287,l)
);
},
{
closed = 1;
nodes = (
(105,291,l),
(115,291,l),
(248,383,l),
(248,513,l),
(115,408,l),
(105,420,l),
(-25,330,l),
(-25,200,l)
);
},
{
closed = 1;
nodes = (
(117,291,l),
(127,291,l),
(291,405,l),
(291,543,l),
(127,429,l),
(117,429,l),
(3,350,l),
(3,212,l)
);
}
);
};
layerId = "1B5AC656-48C3-4864-953F-2CD31E7BA751";
shapes = (
{
ref = L;
},
{
closed = 1;
nodes = (
(105,291,l),
(115,284,l),
(291,406,l),
(291,543,l),
(125,418,l),
(105,420,l),
(-25,330,l),
(-25,200,l)
);
}
);
width = 489;
},
{
layerId = "F32A93D6-BEB9-4F11-B510-2860D42C0CD2";
shapes = (
{
pos = (9,0);
ref = L;
},
{
closed = 1;
nodes = (
(92,320,l),
(101,315,l),
(277,437,l),
(277,532,l),
(107,407,l),
(92,407,l),
(-19,331,l),
(-19,242,l)
);
}
);
width = 482;
}
);
unicode = 321;
},
{
glyphname = M;
kernLeft = H;
kernRight = H;
lastChange = "2026-05-22 21:36:41 +0000";
layers = (
{
anchors = (
{
name = bottom;
pos = (494,0);
},
{
name = cedilla;
pos = (469,0);
},
{
name = ogonek;
pos = (756,0);
},
{
name = top;
pos = (493,720);
}
);
background = {
anchors = (
{
name = _cedilla;
pos = (484,0);
}
);
shapes = (
{
closed = 0;
nodes = (
(622,1775,l),
(481,1381,ls),
(462,1328,o),
(459,1301,o),
(456,1275,c),
(450,1275,l),
(446,1301,o),
(442,1327,o),
(423,1381,cs),
(281,1775,l)
);
},
{
closed = 0;
nodes = (
(149,1099,l),
(181,1494,ls),
(185,1546,o),
(180,1573,o),
(177,1599,c),
(183,1599,l),
(193,1573,o),
(205,1547,o),
(239,1494,cs),
(491,1099,l)
);
},
{
closed = 0;
nodes = (
(408,1099,l),
(659,1494,ls),
(693,1547,o),
(705,1573,o),
(715,1599,c),
(721,1599,l),
(718,1573,o),
(713,1546,o),
(717,1494,cs),
(749,1099,l)
);
},
{
closed = 1;
nodes = (
(193,0,l),
(193,283,ls),
(193,402,o),
(189,446,o),
(177,535,c),
(159,536,l),
(416,0,l),
(484,0,l),
(740,536,l),
(722,535,l),
(710,446,o),
(706,402,o),
(706,283,cs),
(706,0,l),
(843,0,l),
(843,699,l),
(675,699,l),
(529,391,ls),
(458,238,o),
(454,211,o),
(443,162,c),
(463,162,l),
(452,211,o),
(447,238,o),
(375,391,cs),
(230,699,l),
(56,699,l),
(56,0,l)
);
},
{
closed = 0;
nodes = (
(150,865,l),
(486,157,l)
);
},
{
closed = 0;
nodes = (
(755,865,l),
(420,157,l)
);
},
{
closed = 1;
nodes = (
(526,-238,o),
(576,-199,o),
(576,-140,cs),
(576,-91,o),
(540,-56,o),
(491,-57,c),
(492,-82,l),
(528,0,l),
(480,13,l),
(431,-99,l),
(434,-103,l),
(441,-100,o),
(450,-99,o),
(460,-99,cs),
(491,-99,o),
(513,-112,o),
(513,-138,cs),
(513,-160,o),
(498,-179,o),
(462,-179,cs),
(438,-179,o),
(418,-170,o),
(401,-151,c),
(367,-199,l),
(392,-224,o),
(423,-238,o),
(462,-238,cs)
);
}
);
};
hints = (
{
horizontal = 1;
origin = (0,27);
target = up;
type = BottomGhost;
},
{
horizontal = 1;
origin = (0,26);
target = down;
type = TopGhost;
},
{
horizontal = 1;
origin = (0,26);
target = (0,9);
type = Stem;
},
{
origin = (0,27);
target = (0,1);
type = Stem;
},
{
origin = (0,13);
target = (0,15);
type = Stem;
}
);
layerId = m006;
shapes = (
{
closed = 1;
nodes = (
(228,0,l),
(228,291,ls),
(228,403,o),
(223,470,o),
(213,513,c),
(217,513,l),
(457,0,l),
(526,0,l),
(766,513,l),
(770,513,l),
(760,473,o),
(756,406,o),
(756,291,cs),
(756,0,l),
(897,0,l),
(897,720,l),
(725,720,l),
(574,403,ls),
(529,309,o),
(505,250,o),
(497,212,c),
(493,212,l),
(485,250,o),
(459,309,o),
(415,403,cs),
(265,720,l),
(86,720,l),
(86,0,l)
);
}
);
width = 983;
},
{
anchors = (
{
name = bottom;
pos = (483,0);
},
{
name = cedilla;
pos = (461,0);
},
{
name = ogonek;
pos = (785,0);
},
{
name = top;
pos = (485,720);
}
);
hints = (
{
horizontal = 1;
origin = (0,27);
target = up;
type = BottomGhost;
},
{
horizontal = 1;
origin = (0,26);
target = (0,9);
type = Stem;
},
{
origin = (0,27);
target = (0,1);
type = Stem;
},
{
origin = (0,13);
target = (0,15);
type = Stem;
}
);
layerId = "0B84D982-BA46-4CB9-89EB-4BEFB54BBE92";
shapes = (
{
closed = 1;
nodes = (
(181,0,l),
(181,380,ls),
(181,493,o),
(177,558,o),
(171,602,c),
(175,602,l),
(461,0,l),
(505,0,l),
(789,602,l),
(793,602,l),
(788,563,o),
(785,495,o),
(785,380,cs),
(785,0,l),
(874,0,l),
(874,720,l),
(756,720,l),
(564,321,ls),
(519,226,o),
(496,169,o),
(488,135,c),
(484,135,l),
(476,170,o),
(450,227,o),
(406,321,cs),
(216,720,l),
(91,720,l),
(91,0,l)
);
}
);
width = 965;
},
{
anchors = (
{
name = bottom;
pos = (459,0);
},
{
name = cedilla;
pos = (461,4);
},
{
name = ogonek;
pos = (835,0);
},
{
name = top;
pos = (454,720);
}
);
background = {
shapes = (
{
closed = 1;
nodes = (
(199,0,l),
(199,482,l),
(179,477,l),
(411,0,l),
(497,0,l),
(728,475,l),
(707,480,l),
(707,0,l),
(839,0,l),
(839,720,l),
(705,720,l),
(430,142,l),
(483,143,l),
(207,720,l),
(68,720,l),
(68,0,l)
);
}
);
};
layerId = "1B5AC656-48C3-4864-953F-2CD31E7BA751";
shapes = (
{
closed = 1;
nodes = (
(191,0,l),
(191,291,ls),
(191,413,o),
(187,458,o),
(175,551,c),
(156,552,l),
(420,0,l),
(490,0,l),
(755,552,l),
(736,551,l),
(724,458,o),
(720,413,o),
(720,291,cs),
(720,0,l),
(860,0,l),
(860,720,l),
(688,720,l),
(538,402,ls),
(464,245,o),
(460,217,o),
(448,167,c),
(469,167,l),
(457,217,o),
(452,245,o),
(378,402,cs),
(229,720,l),
(50,720,l),
(50,0,l)
);
}
);
width = 910;
},
{
anchors = (
{
name = bottom;
pos = (490,44);
},
{
name = cedilla;
pos = (463,91);
},
{
name = ogonek;
pos = (785,0);
},
{
name = top;
pos = (485,720);
}
);
associatedMasterId = "0B84D982-BA46-4CB9-89EB-4BEFB54BBE92";
attr = {
coordinates = (
10,
0,
400,
720,
100
);
};
background = {
anchors = (
{
name = _cedilla;
pos = (464,77);
}
);
shapes = (
{
closed = 1;
nodes = (
(506,-161,o),
(556,-122,o),
(556,-63,cs),
(556,-14,o),
(520,21,o),
(471,20,c),
(472,-5,l),
(508,77,l),
(460,90,l),
(411,-22,l),
(414,-26,l),
(421,-23,o),
(430,-22,o),
(440,-22,cs),
(471,-22,o),
(493,-35,o),
(493,-61,cs),
(493,-83,o),
(478,-102,o),
(442,-102,cs),
(418,-102,o),
(398,-93,o),
(381,-74,c),
(347,-122,l),
(372,-147,o),
(403,-161,o),
(442,-161,cs)
);
}
);
};
hints = (
{
horizontal = 1;
origin = (0,27);
target = up;
type = BottomGhost;
},
{
horizontal = 1;
origin = (0,26);
target = (0,9);
type = Stem;
},
{
origin = (0,27);
target = (0,1);
type = Stem;
},
{
origin = (0,13);
target = (0,15);
type = Stem;
}
);
layerId = "CD413675-1182-4D56-94E3-F7901430E7B6";
name = "Apr 7, 26 at 03:34";
shapes = (
{
closed = 1;
nodes = (
(181,0,l),
(181,350,ls),
(181,463,o),
(178,528,o),
(176,572,c),
(180,572,l),
(477,44,l),
(490,44,l),
(786,572,l),
(790,572,l),
(788,533,o),
(785,465,o),
(785,350,cs),
(785,0,l),
(874,0,l),
(874,720,l),
(764,720,l),
(572,358,ls),
(525,270,o),
(496,221,o),
(488,191,c),
(484,191,l),
(476,221,o),
(446,270,o),
(398,358,cs),
(201,720,l),
(91,720,l),
(91,0,l)
);
}
);
width = 965;
},
{
anchors = (
{
name = bottom;
pos = (494,0);
},
{
name = cedilla;
pos = (459,41);
},
{
name = ogonek;
pos = (756,0);
},
{
name = top;
pos = (493,720);
}
);
associatedMasterId = m006;
attr = {
coordinates = (
10,
0,
700,
720,
100
);
};
background = {
anchors = (
{
name = _cedilla;
pos = (459,41);
}
);
shapes = (
{
closed = 0;
nodes = (
(620,1775,l),
(479,1381,ls),
(460,1328,o),
(457,1301,o),
(454,1275,c),
(448,1275,l),
(444,1301,o),
(440,1327,o),
(421,1381,cs),
(279,1775,l)
);
},
{
closed = 0;
nodes = (
(147,1099,l),
(179,1494,ls),
(183,1546,o),
(178,1573,o),
(175,1599,c),
(181,1599,l),
(191,1573,o),
(203,1547,o),
(237,1494,cs),
(489,1099,l)
);
},
{
closed = 0;
nodes = (
(406,1099,l),
(657,1494,ls),
(691,1547,o),
(703,1573,o),
(713,1599,c),
(719,1599,l),
(716,1573,o),
(711,1546,o),
(715,1494,cs),
(747,1099,l)
);
},
{
closed = 1;
nodes = (
(191,0,l),
(191,283,ls),
(191,402,o),
(187,446,o),
(175,535,c),
(157,536,l),
(414,0,l),
(482,0,l),
(738,536,l),
(720,535,l),
(708,446,o),
(704,402,o),
(704,283,cs),
(704,0,l),
(841,0,l),
(841,699,l),
(673,699,l),
(527,391,ls),
(456,238,o),
(452,211,o),
(441,162,c),
(461,162,l),
(450,211,o),
(445,238,o),
(373,391,cs),
(228,699,l),
(54,699,l),
(54,0,l)
);
},
{
closed = 0;
nodes = (
(148,865,l),
(484,157,l)
);
},
{
closed = 0;
nodes = (
(753,865,l),
(418,157,l)
);
},
{
closed = 1;
nodes = (
(491,-190,o),
(545,-158,o),
(545,-92,cs),
(545,-47,o),
(515,-1,o),
(450,-9,c),
(484,-24,l),
(516,41,l),
(459,58,l),
(408,-60,l),
(412,-63,l),
(419,-61,o),
(425,-60,o),
(436,-60,cs),
(448,-60,o),
(462,-68,o),
(462,-84,cs),
(462,-106,o),
(444,-113,o),
(429,-113,cs),
(413,-113,o),
(400,-106,o),
(388,-95,c),
(340,-156,l),
(380,-186,o),
(399,-190,o),
(439,-190,cs)
);
}
);
};
hints = (
{
horizontal = 1;
place = (0,21);
target = up;
type = BottomGhost;
},
{
horizontal = 1;
place = (720,-20);
target = down;
type = TopGhost;
},
{
horizontal = 1;
place = (720,207);
type = Stem;
},
{
place = (84,142);
type = Stem;
},
{
place = (754,141);
type = Stem;
}
);
layerId = "FAB255B9-BBAC-439E-9E07-92466D61E714";
name = "Apr 7, 26 at 03:48";
shapes = (
{
closed = 1;
nodes = (
(228,0,l),
(228,291,ls),
(228,403,o),
(223,470,o),
(213,513,c),
(217,513,l),
(484,10,l),
(500,10,l),
(766,513,l),
(770,513,l),
(760,473,o),
(756,406,o),
(756,291,cs),
(756,0,l),
(897,0,l),
(897,720,l),
(725,720,l),
(574,417,ls),
(528,325,o),
(506,276,o),
(497,245,c),
(493,245,l),
(484,276,o),
(461,326,o),
(415,417,cs),
(265,720,l),
(86,720,l),
(86,0,l)
);
}
);
width = 983;
},
{
anchors = (
{
name = bottom;
pos = (456,0);
},
{
name = cedilla;
pos = (451,44);
},
{
name = ogonek;
pos = (835,0);
},
{
name = top;
pos = (454,720);
}
);
associatedMasterId = "1B5AC656-48C3-4864-953F-2CD31E7BA751";
attr = {
coordinates = (
32,
0,
700,
720,
100
);
};
background = {
anchors = (
{
name = _cedilla;
pos = (441,77);
}
);
shapes = (
{
closed = 1;
nodes = (
(199,0,l),
(199,482,l),
(179,477,l),
(411,0,l),
(497,0,l),
(728,475,l),
(707,480,l),
(707,0,l),
(839,0,l),
(839,720,l),
(705,720,l),
(430,142,l),
(483,143,l),
(207,720,l),
(68,720,l),
(68,0,l)
);
},
{
closed = 1;
nodes = (
(192,0,l),
(192,291,ls),
(192,403,o),
(187,470,o),
(177,513,c),
(181,513,l),
(448,10,l),
(464,10,l),
(730,513,l),
(734,513,l),
(724,473,o),
(720,406,o),
(720,291,cs),
(720,0,l),
(861,0,l),
(861,720,l),
(689,720,l),
(538,417,ls),
(492,325,o),
(470,276,o),
(461,245,c),
(457,245,l),
(448,276,o),
(425,326,o),
(379,417,cs),
(229,720,l),
(50,720,l),
(50,0,l)
);
},
{
closed = 1;
nodes = (
(473,-154,o),
(527,-122,o),
(527,-56,cs),
(527,-11,o),
(497,35,o),
(432,27,c),
(466,12,l),
(498,77,l),
(441,94,l),
(390,-24,l),
(394,-27,l),
(401,-25,o),
(407,-24,o),
(418,-24,cs),
(430,-24,o),
(444,-32,o),
(444,-48,cs),
(444,-70,o),
(426,-77,o),
(411,-77,cs),
(395,-77,o),
(382,-70,o),
(370,-59,c),
(322,-120,l),
(362,-150,o),
(381,-154,o),
(421,-154,cs)
);
}
);
};
hints = (
{
horizontal = 1;
origin = (0,27);
target = up;
type = BottomGhost;
},
{
horizontal = 1;
origin = (0,26);
target = (0,9);
type = Stem;
},
{
origin = (0,27);
target = (0,1);
type = Stem;
},
{
origin = (0,13);
target = (0,15);
type = Stem;
}
);
layerId = "829E6736-1879-4901-B056-F53F92693B8A";
name = "Apr 7, 26 at 03:50";
shapes = (
{
closed = 1;
nodes = (
(191,0,l),
(191,291,ls),
(191,413,o),
(187,458,o),
(175,551,c),
(156,552,l),
(456,-5,l),
(456,-5,l),
(755,552,l),
(736,551,l),
(724,458,o),
(720,413,o),
(720,291,cs),
(720,0,l),
(860,0,l),
(860,720,l),
(688,720,l),
(538,416,ls),
(468,278,o),
(461,265,o),
(448,237,c),
(469,237,l),
(456,265,o),
(448,278,o),
(378,416,cs),
(229,720,l),
(50,720,l),
(50,0,l)
);
}
);
width = 910;
},
{
anchors = (
{
name = bottom;
pos = (447,4);
},
{
name = cedilla;
pos = (452,8);
},
{
name = ogonek;
pos = (862,0);
},
{
name = top;
pos = (444,720);
}
);
hints = (
{
horizontal = 1;
origin = (0,27);
target = up;
type = BottomGhost;
},
{
horizontal = 1;
origin = (0,26);
target = (0,9);
type = Stem;
},
{
origin = (0,27);
target = (0,1);
type = Stem;
},
{
origin = (0,13);
target = (0,15);
type = Stem;
}
);
layerId = "F32A93D6-BEB9-4F11-B510-2860D42C0CD2";
shapes = (
{
closed = 1;
nodes = (
(142,0,l),
(142,378,ls),
(142,501,o),
(139,543,o),
(131,638,c),
(112,639,l),
(420,4,l),
(469,4,l),
(776,639,l),
(757,638,l),
(750,545,o),
(747,500,o),
(747,378,cs),
(747,0,l),
(835,0,l),
(835,720,l),
(718,720,l),
(527,322,ls),
(452,162,o),
(449,137,o),
(437,89,c),
(458,89,l),
(446,138,o),
(441,163,o),
(366,322,cs),
(177,720,l),
(53,720,l),
(53,0,l)
);
}
);
width = 888;
},
{
anchors = (
{
name = bottom;
pos = (447,4);
},
{
name = cedilla;
pos = (452,8);
},
{
name = ogonek;
pos = (862,0);
},
{
name = top;
pos = (444,720);
}
);
associatedMasterId = "F32A93D6-BEB9-4F11-B510-2860D42C0CD2";
attr = {
coordinates = (
32,
0,
400,
720,
100
);
};
background = {
shapes = (
{
closed = 1;
nodes = (
(144,-900,l),
(144,-550,ls),
(144,-437,o),
(141,-372,o),
(139,-328,c),
(143,-328,l),
(440,-856,l),
(453,-856,l),
(749,-328,l),
(753,-328,l),
(751,-367,o),
(748,-435,o),
(748,-550,cs),
(748,-900,l),
(837,-900,l),
(837,-180,l),
(727,-180,l),
(535,-542,ls),
(488,-630,o),
(459,-679,o),
(451,-709,c),
(447,-709,l),
(439,-679,o),
(409,-630,o),
(361,-542,cs),
(164,-180,l),
(54,-180,l),
(54,-900,l)
);
},
{
closed = 1;
nodes = (
(-759,-900,l),
(-646,-900,l),
(-646,-505,ls),
(-646,-464,o),
(-651,-399,o),
(-651,-397,c),
(-648,-401,o),
(-612,-455,o),
(-584,-488,cs),
(-392,-718,l),
(-379,-718,l),
(-187,-488,ls),
(-157,-454,o),
(-122,-399,o),
(-119,-397,c),
(-119,-399,o),
(-124,-464,o),
(-124,-505,cs),
(-124,-900,l),
(-11,-900,l),
(-11,-131,l),
(-23,-131,l),
(-383,-556,l),
(-747,-131,l),
(-759,-131,l)
);
},
{
closed = 1;
nodes = (
(142,0,l),
(142,375,ls),
(142,430,o),
(140,448,o),
(135,491,c),
(128,491,l),
(446,32,l),
(446,32,l),
(769,491,l),
(757,491,l),
(750,449,o),
(747,430,o),
(747,375,cs),
(747,0,l),
(835,0,l),
(835,733,l),
(835,733,l),
(568,346,ls),
(494,239,o),
(471,203,o),
(446,165,c),
(446,165,l),
(422,203,o),
(399,241,o),
(325,346,cs),
(53,733,l),
(53,733,l),
(53,0,l)
);
}
);
};
hints = (
{
horizontal = 1;
origin = (0,27);
target = up;
type = BottomGhost;
},
{
horizontal = 1;
origin = (0,26);
target = (0,9);
type = Stem;
},
{
origin = (0,27);
target = (0,1);
type = Stem;
},
{
origin = (0,13);
target = (0,15);
type = Stem;
}
);
layerId = "C332855B-FCFB-4A90-B104-31BE685D8097";
name = "Apr 28, 26 at 17:42";
shapes = (
{
closed = 1;
nodes = (
(142,0,l),
(142,378,ls),
(142,501,o),
(139,543,o),
(131,638,c),
(104,639,l),
(446,32,l),
(446,32,l),
(784,639,l),
(757,638,l),
(750,545,o),
(747,500,o),
(747,378,cs),
(747,0,l),
(835,0,l),
(835,720,l),
(728,720,l),
(527,346,ls),
(469,238,o),
(451,203,o),
(436,165,c),
(457,165,l),
(441,203,o),
(424,239,o),
(366,346,cs),
(164,720,l),
(53,720,l),
(53,0,l)
);
}
);
width = 888;
}
);
metricLeft = H;
metricRight = "=|H";
unicode = 77;
},
{
glyphname = N;
kernLeft = H;
kernRight = H;
lastChange = "2026-05-22 21:37:12 +0000";
layers = (
{
anchors = (
{
name = bottom;
pos = (411,0);
},
{
name = ogonek;
pos = (699,0);
},
{
name = top;
pos = (402,720);
}
);
background = {
shapes = (
{
pos = (-21,16);
ref = S;
},
{
angle = -31;
pos = (-28,173);
ref = S;
}
);
};
hints = (
{
horizontal = 1;
origin = (0,23);
target = up;
type = BottomGhost;
},
{
horizontal = 1;
origin = (0,22);
target = down;
type = TopGhost;
},
{
origin = (0,23);
target = (0,1);
type = Stem;
},
{
origin = (0,11);
target = (0,13);
type = Stem;
}
);
layerId = m006;
shapes = (
{
closed = 1;
nodes = (
(220,0,l),
(220,376,ls),
(220,430,o),
(218,469,o),
(214,505,c),
(217,505,l),
(224,487,o),
(245,453,o),
(263,434,cs),
(626,0,l),
(720,0,l),
(720,720,l),
(586,720,l),
(586,362,ls),
(586,293,o),
(590,253,o),
(594,228,c),
(590,228,l),
(583,247,o),
(563,284,o),
(546,304,cs),
(196,720,l),
(86,720,l),
(86,0,l)
);
}
);
width = 806;
},
{
anchors = (
{
name = bottom;
pos = (405,0);
},
{
name = ogonek;
pos = (693,0);
},
{
name = top;
pos = (395,720);
}
);
hints = (
{
horizontal = 1;
origin = (0,23);
target = up;
type = BottomGhost;
},
{
horizontal = 1;
origin = (0,22);
target = down;
type = TopGhost;
},
{
horizontal = 1;
origin = (0,23);
target = (0,17);
type = Stem;
},
{
origin = (0,23);
target = (0,1);
type = Stem;
},
{
origin = (0,11);
target = (0,13);
type = Stem;
}
);
layerId = "0B84D982-BA46-4CB9-89EB-4BEFB54BBE92";
shapes = (
{
closed = 1;
nodes = (
(178,0,l),
(178,461,ls),
(178,519,o),
(176,560,o),
(172,584,c),
(175,584,l),
(179,572,o),
(196,545,o),
(218,519,cs),
(627,0,l),
(701,0,l),
(701,720,l),
(614,720,l),
(614,270,ls),
(614,194,o),
(616,164,o),
(621,141,c),
(617,141,l),
(613,153,o),
(590,187,o),
(571,212,cs),
(170,720,l),
(91,720,l),
(91,0,l)
);
}
);
width = 792;
},
{
anchors = (
{
name = bottom;
pos = (395,0);
},
{
name = ogonek;
pos = (684,0);
},
{
name = top;
pos = (386,720);
}
);
background = {
shapes = (
{
closed = 1;
nodes = (
(50,0,l),
(182,0,l),
(182,720,l),
(50,720,l)
);
},
{
closed = 1;
nodes = (
(554,0,l),
(686,0,l),
(686,720,l),
(554,720,l)
);
},
{
closed = 1;
nodes = (
(594,-3,l),
(695,81,l),
(173,707,l),
(72,622,l)
);
}
);
};
layerId = "1B5AC656-48C3-4864-953F-2CD31E7BA751";
shapes = (
{
closed = 1;
nodes = (
(184,0,l),
(184,375,ls),
(184,427,o),
(183,480,o),
(177,510,c),
(169,509,l),
(185,481,o),
(206,456,o),
(226,433,cs),
(590,0,l),
(684,0,l),
(684,720,l),
(552,720,l),
(552,361,ls),
(552,309,o),
(553,256,o),
(560,226,c),
(567,227,l),
(551,255,o),
(530,280,o),
(510,303,cs),
(159,720,l),
(50,720,l),
(50,0,l)
);
}
);
width = 734;
},
{
anchors = (
{
name = bottom;
pos = (405,0);
},
{
name = ogonek;
pos = (693,0);
},
{
name = top;
pos = (395,720);
}
);
associatedMasterId = "0B84D982-BA46-4CB9-89EB-4BEFB54BBE92";
attr = {
coordinates = (
10,
0,
400,
720,
100
);
};
background = {
shapes = (
{
closed = 1;
nodes = (
(78,0,l),
(122,370,ls),
(129,427,o),
(132,469,o),
(131,501,c),
(133,501,l),
(372,-8,l),
(388,-8,l),
(628,505,l),
(630,505,l),
(628,472,o),
(631,428,o),
(638,370,cs),
(682,0,l),
(771,0,l),
(673,738,l),
(657,738,l),
(450,304,ls),
(409,218,o),
(392,167,o),
(385,137,c),
(381,137,l),
(374,168,o),
(355,219,o),
(314,304,cs),
(105,738,l),
(89,738,l),
(-12,0,l)
);
},
{
closed = 1;
nodes = (
(708,720,l),
(664,350,ls),
(657,293,o),
(654,251,o),
(655,219,c),
(653,219,l),
(414,728,l),
(398,728,l),
(158,215,l),
(156,215,l),
(158,248,o),
(155,292,o),
(148,350,cs),
(104,720,l),
(15,720,l),
(113,-18,l),
(129,-18,l),
(336,416,ls),
(377,502,o),
(394,553,o),
(401,583,c),
(405,583,l),
(412,552,o),
(431,501,o),
(472,416,cs),
(681,-18,l),
(697,-18,l),
(798,720,l)
);
}
);
};
hints = (
{
horizontal = 1;
origin = (0,23);
target = up;
type = BottomGhost;
},
{
horizontal = 1;
origin = (0,22);
target = down;
type = TopGhost;
},
{
horizontal = 1;
origin = (0,23);
target = (0,17);
type = Stem;
},
{
origin = (0,23);
target = (0,1);
type = Stem;
},
{
origin = (0,11);
target = (0,13);
type = Stem;
},
{
horizontal = 1;
origin = (0,22);
target = (0,4);
type = Stem;
}
);
layerId = "F3D7AB2C-B1DD-4962-9083-1C8574EA91EE";
name = "Apr 15, 26 at 23:51";
shapes = (
{
closed = 1;
nodes = (
(178,0,l),
(178,434,ls),
(178,475,o),
(176,514,o),
(172,547,c),
(175,547,l),
(178,538,o),
(197,515,o),
(218,492,cs),
(685,-18,l),
(701,-18,l),
(701,720,l),
(614,720,l),
(614,297,ls),
(614,238,o),
(616,210,o),
(621,178,c),
(617,178,l),
(614,188,o),
(594,214,o),
(571,239,cs),
(107,738,l),
(91,738,l),
(91,0,l)
);
}
);
width = 792;
},
{
anchors = (
{
name = bottom;
pos = (411,0);
},
{
name = ogonek;
pos = (699,0);
},
{
name = top;
pos = (402,720);
}
);
associatedMasterId = m006;
attr = {
coordinates = (
10,
0,
700,
720,
100
);
};
background = {
shapes = (
{
closed = 1;
nodes = (
(114,0,l),
(143,260,ls),
(149,321,o),
(153,360,o),
(154,393,c),
(156,393,l),
(370,-14,l),
(386,-14,l),
(601,393,l),
(603,393,l),
(604,360,o),
(608,321,o),
(614,260,cs),
(643,0,l),
(783,0,l),
(674,744,l),
(658,744,l),
(462,383,ls),
(408,283,o),
(393,252,o),
(383,228,c),
(381,228,l),
(371,252,o),
(357,284,o),
(302,383,cs),
(102,744,l),
(86,744,l),
(-27,0,l)
);
},
{
closed = 1;
nodes = (
(692,720,l),
(663,460,ls),
(657,399,o),
(653,360,o),
(652,327,c),
(650,327,l),
(436,734,l),
(420,734,l),
(205,327,l),
(203,327,l),
(202,360,o),
(198,399,o),
(192,460,cs),
(163,720,l),
(23,720,l),
(132,-24,l),
(148,-24,l),
(344,337,ls),
(398,437,o),
(413,468,o),
(423,492,c),
(425,492,l),
(435,468,o),
(449,436,o),
(504,337,cs),
(704,-24,l),
(720,-24,l),
(833,720,l)
);
}
);
};
hints = (
{
horizontal = 1;
origin = (0,23);
target = up;
type = BottomGhost;
},
{
horizontal = 1;
origin = (0,22);
target = down;
type = TopGhost;
},
{
origin = (0,23);
target = (0,1);
type = Stem;
},
{
origin = (0,11);
target = (0,13);
type = Stem;
}
);
layerId = "BD749843-316F-45D0-892D-67F47FDE1384";
name = "Apr 15, 26 at 23:51";
shapes = (
{
closed = 1;
nodes = (
(220,0,l),
(220,346,ls),
(220,400,o),
(218,433,o),
(214,462,c),
(217,462,l),
(224,448,o),
(245,422,o),
(263,404,cs),
(704,-24,l),
(720,-24,l),
(720,720,l),
(586,720,l),
(586,372,ls),
(586,306,o),
(590,275,o),
(594,256,c),
(590,256,l),
(583,271,o),
(563,297,o),
(546,314,cs),
(102,744,l),
(86,744,l),
(86,0,l)
);
}
);
width = 806;
},
{
anchors = (
{
name = bottom;
pos = (395,0);
},
{
name = ogonek;
pos = (684,0);
},
{
name = top;
pos = (386,720);
}
);
associatedMasterId = "1B5AC656-48C3-4864-953F-2CD31E7BA751";
attr = {
coordinates = (
32,
0,
700,
720,
100
);
};
background = {
shapes = (
{
closed = 1;
nodes = (
(50,0,l),
(182,0,l),
(182,720,l),
(50,720,l)
);
},
{
closed = 1;
nodes = (
(554,0,l),
(686,0,l),
(686,720,l),
(554,720,l)
);
},
{
closed = 1;
nodes = (
(594,-3,l),
(695,81,l),
(173,707,l),
(72,622,l)
);
}
);
};
layerId = "1BCDDFE0-E4FC-4810-A0AD-C0F9D1FCFF5E";
name = "{32, 700, 0, 720, 100} Apr 16, 26 at 00:09";
shapes = (
{
closed = 1;
nodes = (
(184,0,l),
(184,337,ls),
(184,391,o),
(183,416,o),
(181,441,c),
(181,441,l),
(188,431,o),
(208,412,o),
(227,395,cs),
(684,-10,l),
(684,-10,l),
(684,720,l),
(550,720,l),
(550,380,ls),
(550,314,o),
(551,299,o),
(551,279,c),
(551,279,l),
(540,293,o),
(528,306,o),
(510,322,cs),
(50,730,l),
(50,730,l),
(50,0,l)
);
}
);
width = 734;
},
{
anchors = (
{
name = bottom;
pos = (387,0);
},
{
name = ogonek;
pos = (596,0);
},
{
name = top;
pos = (377,720);
}
);
hints = (
{
horizontal = 1;
origin = (0,23);
target = up;
type = BottomGhost;
},
{
horizontal = 1;
origin = (0,22);
target = down;
type = TopGhost;
},
{
origin = (0,23);
target = (0,1);
type = Stem;
},
{
origin = (0,11);
target = (0,13);
type = Stem;
}
);
layerId = "F32A93D6-BEB9-4F11-B510-2860D42C0CD2";
shapes = (
{
closed = 1;
nodes = (
(140,0,l),
(140,459,ls),
(140,518,o),
(140,566,o),
(140,584,c),
(123,584,l),
(143,561,o),
(156,545,o),
(179,517,cs),
(596,0,l),
(663,0,l),
(663,720,l),
(578,720,l),
(578,267,ls),
(578,202,o),
(578,167,o),
(578,137,c),
(588,137,l),
(575,154,o),
(554,182,o),
(533,209,cs),
(123,720,l),
(53,720,l),
(53,0,l)
);
}
);
width = 716;
},
{
anchors = (
{
name = bottom;
pos = (387,0);
},
{
name = ogonek;
pos = (663,0);
},
{
name = top;
pos = (377,720);
}
);
associatedMasterId = "F32A93D6-BEB9-4F11-B510-2860D42C0CD2";
attr = {
coordinates = (
32,
0,
400,
720,
100
);
};
hints = (
{
horizontal = 1;
origin = (0,23);
target = up;
type = BottomGhost;
},
{
horizontal = 1;
origin = (0,21);
target = down;
type = TopGhost;
},
{
origin = (0,23);
target = (0,1);
type = Stem;
},
{
origin = (0,11);
target = (0,13);
type = Stem;
}
);
layerId = "796A0FA6-C7A8-43A7-8862-2A9050FD3D83";
name = "May 1, 26 at 00:06";
shapes = (
{
closed = 1;
nodes = (
(140,0,l),
(140,421,ls),
(140,464,o),
(141,493,o),
(138,526,c),
(138,526,l),
(143,518,o),
(159,500,o),
(180,479,cs),
(663,-10,l),
(663,-10,l),
(663,720,l),
(576,720,l),
(576,307,ls),
(576,246,o),
(576,231,o),
(579,200,c),
(579,200,l),
(558,225,o),
(544,238,o),
(533,249,cs),
(53,730,l),
(53,730,l),
(53,0,l)
);
}
);
width = 716;
}
);
metricLeft = H;
metricRight = H;
unicode = 78;
},
{
glyphname = Eng;
kernLeft = H;
kernRight = H;
lastChange = "2026-05-22 21:37:43 +0000";
layers = (
{
background = {
shapes = (
{
closed = 1;
nodes = (
(504,-228,o),
(521,-230,o),
(536,-230,cs),
(639,-230,o),
(695,-182,o),
(695,-69,cs),
(695,94,l),
(574,90,l),
(574,-62,ls),
(574,-89,o),
(553,-110,o),
(523,-110,cs),
(513,-110,o),
(500,-108,o),
(493,-106,c),
(493,-226,l)
);
},
{
closed = 1;
nodes = (
(639,-233,o),
(695,-170,o),
(695,-67,cs),
(695,0,l),
(574,216,l),
(574,-60,ls),
(574,-93,o),
(558,-110,o),
(529,-110,cs),
(513,-110,o),
(501,-108,o),
(485,-103,c),
(470,-223,l),
(495,-230,o),
(520,-233,o),
(536,-233,cs)
);
}
);
};
hints = (
{
horizontal = 1;
origin = (1,15);
target = (1,8);
type = Stem;
},
{
origin = (1,3);
target = (1,5);
type = Stem;
}
);
layerId = m006;
shapes = (
{
ref = N;
},
{
closed = 1;
nodes = (
(642,-236,o),
(720,-165,o),
(720,-16,cs),
(720,0,l),
(586,212,l),
(586,-26,ls),
(586,-73,o),
(553,-102,o),
(512,-102,cs),
(477,-102,o),
(450,-82,o),
(434,-61,c),
(344,-179,l),
(382,-214,o),
(437,-236,o),
(498,-236,cs)
);
}
);
width = 806;
},
{
hints = (
{
horizontal = 1;
origin = (1,15);
target = (1,8);
type = Stem;
},
{
origin = (1,3);
target = (1,5);
type = Stem;
}
);
layerId = "0B84D982-BA46-4CB9-89EB-4BEFB54BBE92";
shapes = (
{
ref = N;
},
{
closed = 1;
nodes = (
(633,-237,o),
(701,-166,o),
(701,-35,cs),
(701,0,l),
(614,132,l),
(614,-33,ls),
(614,-109,o),
(574,-153,o),
(512,-153,cs),
(479,-153,o),
(450,-143,o),
(428,-118,c),
(367,-191,l),
(405,-229,o),
(455,-241,o),
(514,-240,cs)
);
}
);
width = 792;
},
{
background = {
shapes = (
{
closed = 1;
nodes = (
(521,-206,ls),
(627,-206,o),
(685,-157,o),
(685,-40,cs),
(685,0,l),
(560,123,l),
(560,-33,ls),
(560,-67,o),
(544,-82,o),
(517,-82,cs),
(476,-82,l),
(476,-206,l)
);
}
);
};
layerId = "1B5AC656-48C3-4864-953F-2CD31E7BA751";
shapes = (
{
ref = N;
},
{
closed = 1;
nodes = (
(606,-243,o),
(684,-177,o),
(684,-33,cs),
(684,0,l),
(552,162,l),
(552,-38,ls),
(552,-85,o),
(517,-109,o),
(476,-109,cs),
(441,-109,o),
(414,-89,o),
(398,-68,c),
(308,-186,l),
(346,-221,o),
(401,-243,o),
(462,-243,cs)
);
}
);
width = 734;
},
{
hints = (
{
horizontal = 1;
origin = (1,15);
target = (1,8);
type = Stem;
},
{
origin = (1,3);
target = (1,5);
type = Stem;
}
);
layerId = "F32A93D6-BEB9-4F11-B510-2860D42C0CD2";
shapes = (
{
ref = N;
},
{
closed = 1;
nodes = (
(595,-239,o),
(663,-173,o),
(663,-47,cs),
(663,1,l),
(578,82,l),
(578,-40,ls),
(578,-116,o),
(536,-155,o),
(474,-155,cs),
(441,-155,o),
(412,-145,o),
(390,-120,c),
(329,-193,l),
(367,-231,o),
(417,-243,o),
(476,-242,cs)
);
}
);
width = 716;
}
);
metricLeft = H;
metricRight = H;
unicode = 330;
},
{
glyphname = O;
kernLeft = O;
kernRight = O;
lastChange = "2026-05-22 21:13:15 +0000";
layers = (
{
anchors = (
{
name = bottom;
pos = (405,0);
},
{
name = cedilla;
pos = (416,0);
},
{
name = center;
pos = (412,348);
},
{
name = ogonek;
pos = (413,0);
},
{
name = top;
pos = (405,720);
},
{
name = topright;
pos = (620,720);
}
);
hints = (
{
horizontal = 1;
origin = (0,11);
target = (1,11);
type = Stem;
},
{
horizontal = 1;
origin = (1,5);
target = (0,5);
type = Stem;
},
{
origin = (0,8);
target = (1,2);
type = Stem;
},
{
origin = (1,8);
target = (0,2);
type = Stem;
}
);
layerId = m006;
shapes = (
{
closed = 1;
nodes = (
(620,-13,o),
(777,146,o),
(777,359,cs),
(777,573,o),
(620,733,o),
(412,733,cs),
(203,733,o),
(46,573,o),
(46,359,cs),
(46,146,o),
(203,-13,o),
(412,-13,cs)
);
},
{
closed = 1;
nodes = (
(290,129,o),
(194,219,o),
(194,359,cs),
(194,500,o),
(290,591,o),
(412,591,cs),
(534,591,o),
(629,500,o),
(629,359,cs),
(629,219,o),
(534,129,o),
(412,129,cs)
);
}
);
width = 823;
},
{
anchors = (
{
name = bottom;
pos = (408,0);
},
{
name = cedilla;
pos = (418,0);
},
{
name = center;
pos = (408,360);
},
{
name = ogonek;
pos = (423,0);
},
{
name = top;
pos = (408,720);
},
{
name = topright;
pos = (618,720);
}
);
hints = (
{
horizontal = 1;
origin = (0,11);
target = (1,11);
type = Stem;
},
{
horizontal = 1;
origin = (1,5);
target = (0,5);
type = Stem;
},
{
origin = (0,8);
target = (1,2);
type = Stem;
},
{
origin = (1,8);
target = (0,2);
type = Stem;
}
);
layerId = "0B84D982-BA46-4CB9-89EB-4BEFB54BBE92";
shapes = (
{
closed = 1;
nodes = (
(621,-13,o),
(768,154,o),
(768,361,cs),
(768,568,o),
(621,733,o),
(408,733,cs),
(195,733,o),
(48,566,o),
(48,359,cs),
(48,152,o),
(195,-13,o),
(408,-13,cs)
);
},
{
closed = 1;
nodes = (
(248,70,o),
(139,185,o),
(139,359,cs),
(139,533,o),
(248,650,o),
(408,650,cs),
(568,650,o),
(677,535,o),
(677,361,cs),
(677,187,o),
(568,70,o),
(408,70,cs)
);
}
);
width = 816;
},
{
anchors = (
{
name = bottom;
pos = (401,0);
},
{
name = cedilla;
pos = (414,0);
},
{
name = center;
pos = (401,359);
},
{
name = ogonek;
pos = (396,0);
},
{
name = top;
pos = (401,720);
},
{
name = topright;
pos = (611,720);
}
);
background = {
shapes = (
{
closed = 1;
nodes = (
(209,0,l),
(209,541,l),
(153,537,l),
(634,0,l),
(742,0,l),
(742,720,l),
(597,720,l),
(597,188,l),
(654,198,l),
(186,720,l),
(64,720,l),
(64,0,l)
);
},
{
closed = 1;
nodes = (
(614,-13,o),
(774,153,o),
(774,359,cs),
(774,565,o),
(614,733,o),
(401,733,cs),
(187,733,o),
(26,565,o),
(26,359,cs),
(26,153,o),
(187,-13,o),
(401,-13,cs)
);
},
{
closed = 1;
nodes = (
(265,119,o),
(179,228,o),
(179,359,cs),
(179,489,o),
(265,599,o),
(401,599,cs),
(536,599,o),
(621,489,o),
(621,359,cs),
(621,228,o),
(536,119,o),
(401,119,cs)
);
}
);
};
hints = (
{
horizontal = 1;
origin = (0,11);
target = (1,11);
type = Stem;
},
{
horizontal = 1;
origin = (1,5);
target = (0,5);
type = Stem;
},
{
origin = (0,8);
target = (1,2);
type = Stem;
},
{
origin = (1,8);
target = (0,2);
type = Stem;
}
);
layerId = "1B5AC656-48C3-4864-953F-2CD31E7BA751";
shapes = (
{
closed = 1;
nodes = (
(614,-13,o),
(774,153,o),
(774,359,cs),
(774,565,o),
(614,733,o),
(401,733,cs),
(187,733,o),
(26,565,o),
(26,359,cs),
(26,153,o),
(187,-13,o),
(401,-13,cs)
);
},
{
closed = 1;
nodes = (
(261,129,o),
(175,228,o),
(175,359,cs),
(175,489,o),
(261,591,o),
(401,591,cs),
(540,591,o),
(625,489,o),
(625,359,cs),
(625,228,o),
(540,129,o),
(401,129,cs)
);
}
);
width = 800;
},
{
anchors = (
{
name = bottom;
pos = (412,0);
},
{
name = cedilla;
pos = (414,0);
},
{
name = center;
pos = (405,360);
},
{
name = ogonek;
pos = (414,0);
},
{
name = top;
pos = (412,720);
},
{
name = topright;
pos = (622,720);
}
);
hints = (
{
horizontal = 1;
origin = (0,11);
target = (1,11);
type = Stem;
},
{
horizontal = 1;
origin = (1,5);
target = (0,5);
type = Stem;
},
{
origin = (0,8);
target = (1,2);
type = Stem;
},
{
origin = (1,8);
target = (0,2);
type = Stem;
}
);
layerId = "F32A93D6-BEB9-4F11-B510-2860D42C0CD2";
name = "Apr 5, 26 at 01:42";
shapes = (
{
closed = 1;
nodes = (
(625,-13,o),
(780,161,o),
(780,361,cs),
(780,560,o),
(620,733,o),
(405,733,cs),
(182,733,o),
(26,558,o),
(26,359,cs),
(26,159,o),
(182,-13,o),
(405,-13,cs)
);
},
{
closed = 1;
nodes = (
(235,75,o),
(118,205,o),
(118,359,cs),
(118,512,o),
(235,645,o),
(405,645,cs),
(575,645,o),
(688,513,o),
(688,361,cs),
(688,206,o),
(575,75,o),
(405,75,cs)
);
}
);
width = 806;
}
);
unicode = 79;
},
{
glyphname = OE;
kernLeft = O;
kernRight = E;
lastChange = "2026-05-22 21:35:21 +0000";
layers = (
{
anchors = (
{
name = bottom;
pos = (605,0);
},
{
name = top;
pos = (605,720);
}
);
background = {
hints = (
{
horizontal = 1;
place = (-13,138);
type = Stem;
},
{
horizontal = 1;
place = (712,138);
type = Stem;
},
{
place = (42,143);
type = Stem;
},
{
place = (608,143);
type = Stem;
},
{
horizontal = 1;
place = (0,135);
type = Stem;
},
{
horizontal = 1;
place = (287,135);
type = Stem;
},
{
horizontal = 1;
place = (699,135);
type = Stem;
},
{
place = (597,140);
type = Stem;
},
{
horizontal = 1;
place = (-13,138);
type = Stem;
},
{
horizontal = 1;
place = (712,138);
type = Stem;
},
{
place = (43,143);
type = Stem;
},
{
place = (609,143);
type = Stem;
}
);
shapes = (
{
closed = 1;
nodes = (
(283,129,o),
(190,228,o),
(190,359,cs),
(190,492,o),
(283,591,o),
(408,591,cs),
(532,591,o),
(625,492,o),
(625,359,cs),
(625,228,o),
(532,129,o),
(408,129,cs)
);
},
{
pos = (547,0);
ref = E;
}
);
};
hints = (
{
horizontal = 1;
place = (-13,178);
type = Stem;
},
{
horizontal = 1;
place = (733,179);
type = Stem;
},
{
place = (42,148);
type = Stem;
}
);
layerId = m006;
shapes = (
{
angle = 180;
pos = (764,720);
ref = D;
},
{
alignment = -1;
pos = (447,0);
ref = E;
}
);
width = 1032;
},
{
anchors = (
{
name = bottom;
pos = (605,0);
},
{
name = top;
pos = (605,720);
}
);
background = {
shapes = (
{
closed = 1;
nodes = (
(566,-13,o),
(658,78,o),
(706,214,c),
(644,127,l),
(679,127,l),
(684,589,l),
(655,589,l),
(706,502,l),
(658,644,o),
(566,733,o),
(403,733,cs),
(191,733,o),
(44,566,o),
(44,359,cs),
(44,152,o),
(191,-13,o),
(403,-13,cs)
);
},
{
closed = 1;
nodes = (
(241,69,o),
(135,183,o),
(135,359,cs),
(135,536,o),
(241,651,o),
(404,651,cs),
(566,651,o),
(671,537,o),
(671,361,cs),
(671,184,o),
(566,69,o),
(404,69,cs)
);
}
);
};
hints = (
{
horizontal = 1;
place = (-13,82);
type = Stem;
},
{
horizontal = 1;
place = (733,82);
type = Stem;
},
{
place = (44,91);
type = Stem;
}
);
layerId = "0B84D982-BA46-4CB9-89EB-4BEFB54BBE92";
shapes = (
{
angle = 180;
pos = (747,720);
ref = D;
},
{
alignment = -1;
pos = (476,0);
ref = E;
}
);
width = 1055;
},
{
anchors = (
{
name = bottom;
pos = (578,0);
},
{
name = top;
pos = (578,720);
}
);
background = {
shapes = (
{
pos = (552,0);
ref = E;
}
);
};
hints = (
{
place = (26,131);
type = Stem;
},
{
horizontal = 1;
place = (-13,133);
type = Stem;
},
{
horizontal = 1;
place = (733,134);
type = Stem;
}
);
layerId = "1B5AC656-48C3-4864-953F-2CD31E7BA751";
shapes = (
{
angle = 180;
pos = (698,720);
ref = D;
},
{
alignment = -1;
pos = (454,0);
ref = E;
}
);
width = 968;
},
{
anchors = (
{
name = bottom;
pos = (612,0);
},
{
name = top;
pos = (612,720);
}
);
background = {
shapes = (
{
closed = 1;
nodes = (
(542,-13,o),
(642,69,o),
(693,205,c),
(626,114,l),
(661,114,l),
(666,604,l),
(637,604,l),
(693,510,l),
(642,652,o),
(542,733,o),
(385,733,cs),
(173,733,o),
(26,566,o),
(26,359,cs),
(26,152,o),
(173,-13,o),
(385,-13,cs)
);
},
{
closed = 1;
nodes = (
(197,60,o),
(100,205,o),
(100,359,cs),
(100,512,o),
(197,659,o),
(377,659,cs),
(564,659,o),
(644,521,o),
(644,361,cs),
(644,206,o),
(564,60,o),
(377,60,cs)
);
}
);
};
hints = (
{
horizontal = 1;
place = (-13,73);
type = Stem;
},
{
horizontal = 1;
place = (733,74);
type = Stem;
},
{
place = (26,74);
type = Stem;
}
);
layerId = "F32A93D6-BEB9-4F11-B510-2860D42C0CD2";
shapes = (
{
angle = 180;
pos = (677,720);
ref = D;
},
{
alignment = -1;
pos = (483,0);
ref = E;
}
);
width = 987;
}
);
metricLeft = O;
metricRight = E;
unicode = 338;
},
{
glyphname = P;
kernLeft = H;
kernRight = P;
lastChange = "2026-05-22 21:13:15 +0000";
layers = (
{
anchors = (
{
name = bottom;
pos = (159,0);
},
{
name = ogonek;
pos = (231,0);
},
{
name = top;
pos = (328,720);
}
);
background = {
shapes = (
{
closed = 1;
nodes = (
(170,0,l),
(170,330,l),
(136,297,l),
(312,297,ls),
(439,297,o),
(539,363,o),
(539,500,cs),
(539,635,o),
(438,701,o),
(312,700,cs),
(88,699,l),
(88,0,l)
);
},
{
closed = 1;
nodes = (
(170,659,l),
(136,624,l),
(304,624,ls),
(394,624,o),
(455,591,o),
(455,500,cs),
(455,406,o),
(394,373,o),
(304,373,cs),
(136,373,l),
(170,339,l)
);
}
);
};
hints = (
{
horizontal = 1;
origin = (0,10);
target = up;
type = BottomGhost;
},
{
horizontal = 1;
origin = (0,2);
target = (1,8);
type = Stem;
},
{
horizontal = 1;
origin = (0,9);
target = (1,1);
type = Stem;
},
{
origin = (0,10);
target = (1,8);
type = Stem;
},
{
origin = (1,4);
target = (0,5);
type = Stem;
}
);
layerId = m006;
shapes = (
{
closed = 1;
nodes = (
(231,0,l),
(231,231,l),
(330,231,ls),
(484,231,o),
(599,336,o),
(599,475,cs),
(599,615,o),
(484,720,o),
(330,720,cs),
(86,720,l),
(86,0,l)
);
},
{
closed = 1;
nodes = (
(231,581,l),
(322,581,ls),
(402,581,o),
(454,539,o),
(454,474,cs),
(454,411,o),
(402,370,o),
(322,370,cs),
(231,370,l)
);
}
);
width = 644;
},
{
anchors = (
{
name = bottom;
pos = (136,0);
},
{
name = ogonek;
pos = (180,0);
},
{
name = top;
pos = (303,720);
}
);
hints = (
{
horizontal = 1;
origin = (0,10);
target = up;
type = BottomGhost;
},
{
horizontal = 1;
origin = (0,2);
target = (1,8);
type = Stem;
},
{
horizontal = 1;
origin = (0,9);
target = (1,1);
type = Stem;
},
{
origin = (0,10);
target = (1,8);
type = Stem;
},
{
origin = (1,4);
target = (0,5);
type = Stem;
}
);
layerId = "0B84D982-BA46-4CB9-89EB-4BEFB54BBE92";
shapes = (
{
closed = 1;
nodes = (
(180,0,l),
(180,282,l),
(313,282,ls),
(464,282,o),
(559,376,o),
(559,502,cs),
(559,627,o),
(464,720,o),
(313,720,cs),
(91,720,l),
(91,0,l)
);
},
{
closed = 1;
nodes = (
(180,638,l),
(305,638,ls),
(404,638,o),
(468,585,o),
(468,502,cs),
(468,418,o),
(404,364,o),
(305,364,cs),
(180,364,l)
);
}
);
width = 607;
},
{
anchors = (
{
name = bottom;
pos = (125,0);
},
{
name = ogonek;
pos = (195,0);
},
{
name = top;
pos = (294,720);
}
);
hints = (
{
horizontal = 1;
origin = (0,10);
target = up;
type = BottomGhost;
},
{
horizontal = 1;
origin = (0,2);
target = (1,8);
type = Stem;
},
{
horizontal = 1;
origin = (0,9);
target = (1,1);
type = Stem;
},
{
origin = (0,10);
target = (1,8);
type = Stem;
},
{
origin = (1,4);
target = (0,5);
type = Stem;
}
);
layerId = "1B5AC656-48C3-4864-953F-2CD31E7BA751";
shapes = (
{
closed = 1;
nodes = (
(195,0,l),
(195,231,l),
(294,231,ls),
(448,231,o),
(563,336,o),
(563,475,cs),
(563,615,o),
(448,720,o),
(294,720,cs),
(50,720,l),
(50,0,l)
);
},
{
closed = 1;
nodes = (
(195,581,l),
(286,581,ls),
(366,581,o),
(418,539,o),
(418,474,cs),
(418,411,o),
(366,370,o),
(286,370,cs),
(195,370,l)
);
}
);
width = 573;
},
{
anchors = (
{
name = bottom;
pos = (98,0);
},
{
name = ogonek;
pos = (142,0);
},
{
name = top;
pos = (266,720);
}
);
background = {
shapes = (
{
closed = 1;
nodes = (
(142,-5,l),
(142,277,l),
(275,277,ls),
(424,277,o),
(521,363,o),
(521,497,cs),
(521,629,o),
(424,715,o),
(275,715,cs),
(53,715,l),
(53,-5,l)
);
},
{
closed = 1;
nodes = (
(142,633,l),
(267,633,ls),
(359,633,o),
(430,600,o),
(430,497,cs),
(430,393,o),
(359,359,o),
(267,359,cs),
(142,359,l)
);
}
);
};
hints = (
{
horizontal = 1;
origin = (0,10);
target = up;
type = BottomGhost;
},
{
horizontal = 1;
origin = (0,2);
target = (1,8);
type = Stem;
},
{
horizontal = 1;
origin = (1,1);
target = (0,9);
type = Stem;
},
{
origin = (0,10);
target = (1,8);
type = Stem;
},
{
origin = (1,4);
target = (0,5);
type = Stem;
}
);
layerId = "F32A93D6-BEB9-4F11-B510-2860D42C0CD2";
shapes = (
{
closed = 1;
nodes = (
(142,-5,l),
(142,277,l),
(275,277,ls),
(424,277,o),
(521,363,o),
(521,497,cs),
(521,629,o),
(424,715,o),
(275,715,cs),
(53,715,l),
(53,-5,l)
);
},
{
closed = 1;
nodes = (
(142,633,l),
(267,633,ls),
(359,633,o),
(430,600,o),
(430,497,cs),
(430,393,o),
(359,359,o),
(267,359,cs),
(142,359,l)
);
}
);
width = 533;
}
);
metricLeft = H;
unicode = 80;
},
{
glyphname = Thorn;
kernLeft = H;
kernRight = Thorn;
lastChange = "2026-05-22 21:13:15 +0000";
layers = (
{
anchors = (
{
name = bottom;
pos = (159,0);
},
{
name = ogonek;
pos = (231,0);
},
{
name = top;
pos = (313,720);
}
);
background = {
anchors = (
{
name = bottom;
pos = (126,0);
},
{
name = ogonek;
pos = (196,0);
},
{
name = top;
pos = (126,699);
}
);
shapes = (
{
closed = 1;
nodes = (
(196,0,l),
(196,119,l),
(293,119,ls),
(450,119,o),
(545,204,o),
(545,352,cs),
(545,499,o),
(450,581,o),
(293,581,cs),
(194,581,l),
(194,699,l),
(56,699,l),
(56,0,l)
);
},
{
closed = 1;
nodes = (
(196,456,l),
(285,456,ls),
(361,456,o),
(404,422,o),
(404,351,cs),
(404,279,o),
(361,245,o),
(285,245,cs),
(196,245,l)
);
}
);
};
hints = (
{
horizontal = 1;
origin = (0,12);
target = up;
type = BottomGhost;
},
{
horizontal = 1;
origin = (0,2);
target = (1,8);
type = Stem;
},
{
horizontal = 1;
origin = (1,1);
target = (0,9);
type = Stem;
},
{
horizontal = 1;
origin = (0,11);
target = down;
type = TopGhost;
},
{
origin = (0,12);
target = (1,8);
type = Stem;
},
{
origin = (1,4);
target = (0,5);
type = Stem;
}
);
layerId = m006;
shapes = (
{
closed = 1;
nodes = (
(231,0,l),
(231,128,l),
(340,128,ls),
(501,128,o),
(599,209,o),
(599,362,cs),
(599,512,o),
(501,596,o),
(340,596,cs),
(231,596,l),
(231,720,l),
(86,720,l),
(86,0,l)
);
},
{
closed = 1;
nodes = (
(231,458,l),
(332,458,ls),
(410,458,o),
(454,428,o),
(454,361,cs),
(454,291,o),
(410,267,o),
(332,267,cs),
(231,267,l)
);
}
);
width = 644;
},
{
anchors = (
{
name = bottom;
pos = (137,0);
},
{
name = ogonek;
pos = (180,0);
},
{
name = top;
pos = (316,720);
}
);
hints = (
{
horizontal = 1;
origin = (0,12);
target = up;
type = BottomGhost;
},
{
horizontal = 1;
origin = (0,2);
target = (1,8);
type = Stem;
},
{
horizontal = 1;
origin = (1,1);
target = (0,9);
type = Stem;
},
{
horizontal = 1;
origin = (0,11);
target = down;
type = TopGhost;
},
{
origin = (0,12);
target = (1,8);
type = Stem;
},
{
origin = (1,4);
target = (0,5);
type = Stem;
}
);
layerId = "0B84D982-BA46-4CB9-89EB-4BEFB54BBE92";
shapes = (
{
closed = 1;
nodes = (
(180,0,l),
(180,153,l),
(323,153,ls),
(457,153,o),
(559,221,o),
(559,364,cs),
(559,504,o),
(456,571,o),
(323,571,cs),
(180,571,l),
(180,720,l),
(91,720,l),
(91,0,l)
);
},
{
closed = 1;
nodes = (
(180,489,l),
(315,489,ls),
(407,489,o),
(468,456,o),
(468,364,cs),
(468,269,o),
(407,235,o),
(315,235,cs),
(180,235,l)
);
}
);
width = 607;
},
{
anchors = (
{
name = bottom;
pos = (122,0);
},
{
name = ogonek;
pos = (194,0);
},
{
name = top;
pos = (122,720);
}
);
layerId = "1B5AC656-48C3-4864-953F-2CD31E7BA751";
shapes = (
{
closed = 1;
nodes = (
(194,0,l),
(194,122,l),
(294,122,ls),
(455,122,o),
(554,210,o),
(554,362,cs),
(554,513,o),
(455,598,o),
(294,598,cs),
(192,598,l),
(192,720,l),
(50,720,l),
(50,0,l)
);
},
{
closed = 1;
nodes = (
(194,469,l),
(286,469,ls),
(364,469,o),
(408,434,o),
(408,361,cs),
(408,287,o),
(364,252,o),
(286,252,cs),
(194,252,l)
);
}
);
width = 567;
},
{
anchors = (
{
name = bottom;
pos = (98,0);
},
{
name = ogonek;
pos = (141,0);
},
{
name = top;
pos = (123,720);
}
);
hints = (
{
horizontal = 1;
origin = (0,12);
target = up;
type = BottomGhost;
},
{
horizontal = 1;
origin = (0,2);
target = (1,8);
type = Stem;
},
{
horizontal = 1;
origin = (1,1);
target = (0,9);
type = Stem;
},
{
horizontal = 1;
origin = (0,11);
target = down;
type = TopGhost;
},
{
origin = (0,12);
target = (1,8);
type = Stem;
},
{
origin = (1,4);
target = (0,5);
type = Stem;
}
);
layerId = "F32A93D6-BEB9-4F11-B510-2860D42C0CD2";
shapes = (
{
closed = 1;
nodes = (
(142,0,l),
(142,147,l),
(275,147,ls),
(409,147,o),
(512,222,o),
(512,364,cs),
(512,505,o),
(408,573,o),
(275,573,cs),
(140,573,l),
(140,720,l),
(53,720,l),
(53,0,l)
);
},
{
closed = 1;
nodes = (
(142,500,l),
(267,500,ls),
(359,500,o),
(421,462,o),
(421,364,cs),
(421,265,o),
(359,220,o),
(267,220,cs),
(142,220,l)
);
}
);
width = 526;
}
);
metricLeft = H;
unicode = 222;
},
{
glyphname = Q;
kernLeft = O;
kernRight = O;
lastChange = "2026-05-22 21:13:15 +0000";
layers = (
{
hints = (
{
horizontal = 1;
origin = (1,7);
target = (1,4);
type = Stem;
},
{
origin = (1,4);
target = (1,0);
type = Stem;
}
);
layerId = m006;
shapes = (
{
ref = O;
},
{
closed = 1;
nodes = (
(749,-59,l),
(607,155,l),
(602,177,l),
(542,266,l),
(386,266,l),
(500,94,l),
(503,73,l),
(592,-59,l)
);
}
);
width = 818;
},
{
hints = (
{
horizontal = 1;
origin = (1,7);
target = (1,4);
type = Stem;
},
{
origin = (1,4);
target = (1,0);
type = Stem;
}
);
layerId = "0B84D982-BA46-4CB9-89EB-4BEFB54BBE92";
shapes = (
{
alignment = -1;
ref = O;
},
{
closed = 1;
nodes = (
(728,-60,l),
(615,111,l),
(609,134,l),
(519,265,l),
(425,265,l),
(549,79,l),
(553,59,l),
(634,-60,l)
);
}
);
width = 806;
},
{
background = {
shapes = (
{
closed = 1;
nodes = (
(774,-96,l),
(924,-96,l),
(924,493,l),
(774,493,l)
);
}
);
};
layerId = "1B5AC656-48C3-4864-953F-2CD31E7BA751";
shapes = (
{
ref = O;
},
{
closed = 1;
nodes = (
(761,-59,l),
(619,154,l),
(614,177,l),
(554,265,l),
(398,265,l),
(512,94,l),
(515,73,l),
(604,-59,l)
);
}
);
width = 800;
},
{
hints = (
{
horizontal = 1;
origin = (1,7);
target = (1,4);
type = Stem;
},
{
origin = (1,4);
target = (1,0);
type = Stem;
}
);
layerId = "F32A93D6-BEB9-4F11-B510-2860D42C0CD2";
shapes = (
{
alignment = -1;
ref = O;
},
{
closed = 1;
nodes = (
(738,-60,l),
(625,110,l),
(619,134,l),
(529,264,l),
(435,264,l),
(559,79,l),
(563,59,l),
(644,-60,l)
);
}
);
width = 784;
}
);
metricLeft = O;
unicode = 81;
},
{
glyphname = R;
kernLeft = H;
kernRight = R;
lastChange = "2026-05-22 21:13:15 +0000";
layers = (
{
anchors = (
{
name = bottom;
pos = (334,0);
},
{
name = ogonek;
pos = (479,0);
},
{
name = top;
pos = (334,720);
}
);
background = {
shapes = (
{
closed = 1;
nodes = (
(-478,600,l),
(-478,893,l),
(-301,893,l),
(-297,898,l),
(-180,898,o),
(-76,968,o),
(-76,1098,cs),
(-76,1226,o),
(-180,1301,o),
(-328,1300,cs),
(-534,1299,l),
(-534,600,l)
);
},
{
closed = 1;
nodes = (
(-73,600,l),
(-275,917,l),
(-344,917,l),
(-338,907,l),
(-318,875,o),
(-306,856,o),
(-294,837,cs),
(-145,600,l)
);
},
{
closed = 1;
nodes = (
(-478,1250,l),
(-335,1250,ls),
(-202,1250,o),
(-133,1203,o),
(-133,1098,cs),
(-133,989,o),
(-202,943,o),
(-335,943,cs),
(-478,943,l)
);
},
{
closed = 1;
nodes = (
(-374,616,l),
(-374,860,l),
(-268,860,ls),
(-111,860,o),
(-16,939,o),
(-16,1087,cs),
(-16,1233,o),
(-111,1315,o),
(-268,1315,cs),
(-514,1315,l),
(-514,616,l)
);
},
{
closed = 1;
nodes = (
(-374,1180,l),
(-276,1180,ls),
(-200,1180,o),
(-157,1151,o),
(-157,1086,cs),
(-157,1019,o),
(-200,995,o),
(-276,995,cs),
(-374,995,l)
);
},
{
closed = 1;
nodes = (
(200,0,l),
(200,310,l),
(342,310,l),
(296,343,l),
(515,0,l),
(619,0,l),
(397,343,l),
(374,310,l),
(511,310,o),
(599,395,o),
(599,520,cs),
(599,645,o),
(507,720,o),
(374,720,cs),
(111,720,l),
(111,0,l)
);
},
{
closed = 1;
nodes = (
(200,638,l),
(366,638,ls),
(451,638,o),
(507,600,o),
(507,516,cs),
(507,430,o),
(451,392,o),
(366,392,cs),
(200,392,l)
);
}
);
};
hints = (
{
horizontal = 1;
origin = (0,15);
target = up;
type = BottomGhost;
},
{
horizontal = 1;
origin = (0,2,0,4);
target = (1,8);
type = Stem;
},
{
horizontal = 1;
origin = (1,0);
target = (0,14);
type = Stem;
},
{
origin = (0,15);
target = (1,8);
type = Stem;
},
{
origin = (1,4);
target = (0,10);
type = Stem;
}
);
layerId = m006;
shapes = (
{
closed = 1;
nodes = (
(231,0,l),
(231,269,l),
(361,269,l),
(262,342,l),
(479,0,l),
(648,0,l),
(425,342,l),
(372,269,l),
(517,269,o),
(621,368,o),
(621,500,cs),
(621,626,o),
(517,720,o),
(372,720,cs),
(86,720,l),
(86,0,l)
);
},
{
closed = 1;
nodes = (
(231,581,l),
(372,581,ls),
(438,581,o),
(474,547,o),
(474,494,cs),
(474,439,o),
(438,403,o),
(372,403,cs),
(231,403,l)
);
}
);
width = 676;
},
{
anchors = (
{
name = bottom;
pos = (314,0);
},
{
name = ogonek;
pos = (471,0);
},
{
name = top;
pos = (288,720);
}
);
hints = (
{
horizontal = 1;
origin = (0,15);
target = up;
type = BottomGhost;
},
{
horizontal = 1;
origin = (0,2,0,4);
target = (1,8);
type = Stem;
},
{
horizontal = 1;
origin = (1,0);
target = (0,14);
type = Stem;
},
{
origin = (0,15);
target = (1,8);
type = Stem;
},
{
origin = (1,4);
target = (0,10);
type = Stem;
}
);
layerId = "0B84D982-BA46-4CB9-89EB-4BEFB54BBE92";
shapes = (
{
closed = 1;
nodes = (
(180,0,l),
(180,310,l),
(322,310,l),
(276,343,l),
(495,0,l),
(599,0,l),
(377,343,l),
(354,310,l),
(493,310,o),
(579,400,o),
(579,520,cs),
(579,634,o),
(493,720,o),
(354,720,cs),
(91,720,l),
(91,0,l)
);
},
{
closed = 1;
nodes = (
(180,638,l),
(346,638,ls),
(432,638,o),
(487,590,o),
(487,516,cs),
(487,441,o),
(432,392,o),
(346,392,cs),
(180,392,l)
);
}
);
width = 630;
},
{
anchors = (
{
name = bottom;
pos = (327,0);
},
{
name = ogonek;
pos = (433,0);
},
{
name = top;
pos = (301,720);
}
);
background = {
shapes = (
{
closed = 1;
nodes = (
(132,0,l),
(132,310,l),
(264,310,l),
(218,343,l),
(437,0,l),
(541,0,l),
(319,343,l),
(296,310,l),
(433,310,o),
(521,395,o),
(521,520,cs),
(521,645,o),
(429,720,o),
(296,720,cs),
(43,720,l),
(43,0,l)
);
},
{
closed = 1;
nodes = (
(132,638,l),
(288,638,ls),
(379,638,o),
(429,594,o),
(429,516,cs),
(429,436,o),
(379,392,o),
(288,392,cs),
(132,392,l)
);
}
);
};
hints = (
{
horizontal = 1;
origin = (0,15);
target = up;
type = BottomGhost;
},
{
horizontal = 1;
origin = (0,7);
target = (1,8);
type = Stem;
},
{
horizontal = 1;
origin = (0,14);
target = (1,1);
type = Stem;
},
{
origin = (0,15);
target = (1,8);
type = Stem;
},
{
origin = (1,4);
target = (0,10);
type = Stem;
}
);
layerId = "1B5AC656-48C3-4864-953F-2CD31E7BA751";
shapes = (
{
closed = 1;
nodes = (
(195,0,l),
(195,269,l),
(315,269,l),
(216,342,l),
(433,0,l),
(602,0,l),
(379,342,l),
(326,269,l),
(471,269,o),
(575,368,o),
(575,500,cs),
(575,626,o),
(471,720,o),
(326,720,cs),
(50,720,l),
(50,0,l)
);
},
{
closed = 1;
nodes = (
(195,581,l),
(326,581,ls),
(392,581,o),
(428,547,o),
(428,494,cs),
(428,439,o),
(392,403,o),
(326,403,cs),
(195,403,l)
);
}
);
width = 592;
},
{
anchors = (
{
name = bottom;
pos = (280,0);
},
{
name = ogonek;
pos = (584,0);
},
{
name = top;
pos = (254,720);
}
);
background = {
shapes = (
{
closed = 1;
nodes = (
(143,0,l),
(143,310,l),
(285,310,l),
(239,343,l),
(458,0,l),
(562,0,l),
(340,343,l),
(317,310,l),
(454,310,o),
(542,395,o),
(542,520,cs),
(542,645,o),
(450,720,o),
(317,720,cs),
(54,720,l),
(54,0,l)
);
},
{
closed = 1;
nodes = (
(143,638,l),
(309,638,ls),
(394,638,o),
(450,600,o),
(450,516,cs),
(450,430,o),
(394,392,o),
(309,392,cs),
(143,392,l)
);
}
);
};
hints = (
{
horizontal = 1;
origin = (0,15);
target = up;
type = BottomGhost;
},
{
horizontal = 1;
origin = (0,7);
target = (1,8);
type = Stem;
},
{
horizontal = 1;
origin = (1,0);
target = (0,13);
type = Stem;
},
{
origin = (0,15);
target = (1,8);
type = Stem;
},
{
origin = (1,4);
target = (0,10);
type = Stem;
}
);
layerId = "F32A93D6-BEB9-4F11-B510-2860D42C0CD2";
name = "Apr 4, 26 at 23:46";
shapes = (
{
closed = 1;
nodes = (
(142,0,l),
(142,310,l),
(285,310,l),
(228,343,l),
(447,0,l),
(551,0,l),
(329,343,l),
(306,310,l),
(443,310,o),
(531,395,o),
(531,520,cs),
(531,645,o),
(439,720,o),
(306,720,cs),
(53,720,l),
(53,0,l)
);
},
{
closed = 1;
nodes = (
(142,638,l),
(298,638,ls),
(385,638,o),
(440,591,o),
(440,516,cs),
(440,440,o),
(385,392,o),
(298,392,cs),
(142,392,l)
);
}
);
width = 545;
}
);
metricLeft = H;
unicode = 82;
},
{
glyphname = S;
kernLeft = S;
kernRight = S;
lastChange = "2026-05-22 21:13:15 +0000";
layers = (
{
anchors = (
{
name = bottom;
pos = (320,0);
},
{
name = ogonek;
pos = (423,0);
},
{
name = top;
pos = (341,720);
}
);
background = {
shapes = (
{
closed = 1;
nodes = (
(484,-13,o),
(583,75,o),
(583,206,cs),
(583,381,o),
(429,412,o),
(329,448,cs),
(281,466,o),
(245,484,o),
(245,520,cs),
(245,570,o),
(281,595,o),
(343,595,cs),
(394,595,o),
(428,572,o),
(460,518,c),
(579,601,l),
(521,682,o),
(458,732,o),
(346,732,cs),
(194,732,o),
(90,647,o),
(90,517,cs),
(90,395,o),
(167,350,o),
(247,320,cs),
(335,288,o),
(428,276,o),
(428,204,cs),
(428,157,o),
(386,125,o),
(323,125,cs),
(264,125,o),
(213,151,o),
(174,220,c),
(49,134,l),
(117,27,o),
(206,-13,o),
(320,-13,cs)
);
}
);
};
hints = (
{
horizontal = 1;
place = (-13,138);
type = Stem;
},
{
horizontal = 1;
place = (732,-137);
type = Stem;
},
{
place = (86,155);
type = Stem;
},
{
place = (424,155);
type = Stem;
}
);
layerId = m006;
shapes = (
{
closed = 1;
nodes = (
(479,-13,o),
(588,82,o),
(588,220,cs),
(588,474,o),
(231,405,o),
(231,529,cs),
(231,570,o),
(269,604,o),
(326,604,cs),
(380,604,o),
(418,574,o),
(453,517,c),
(576,593,l),
(523,677,o),
(439,732,o),
(328,732,cs),
(189,732,o),
(85,639,o),
(85,510,cs),
(85,269,o),
(442,346,o),
(442,202,cs),
(442,153,o),
(400,115,o),
(335,115,cs),
(269,115,o),
(211,152,o),
(174,226,c),
(49,147,l),
(109,40,o),
(210,-13,o),
(326,-13,cs)
);
}
);
width = 640;
},
{
anchors = (
{
name = bottom;
pos = (308,0);
},
{
name = ogonek;
pos = (400,0);
},
{
name = top;
pos = (324,720);
}
);
background = {
shapes = (
{
closed = 1;
nodes = (
(1246,-13,o),
(1348,66,o),
(1348,196,cs),
(1348,352,o),
(1206,384,o),
(1100,426,cs),
(1036,452,o),
(985,481,o),
(985,543,cs),
(985,606,o),
(1034,652,o),
(1121,652,cs),
(1182,652,o),
(1232,621,o),
(1270,561,c),
(1343,610,l),
(1296,683,o),
(1227,733,o),
(1122,733,cs),
(978,733,o),
(894,638,o),
(894,538,cs),
(894,421,o),
(976,376,o),
(1063,343,cs),
(1157,306,o),
(1256,283,o),
(1256,191,cs),
(1256,109,o),
(1189,69,o),
(1115,69,cs),
(1035,69,o),
(976,105,o),
(931,178,c),
(854,127,l),
(911,37,o),
(1001,-13,o),
(1109,-13,cs)
);
},
{
closed = 1;
nodes = (
(480,-13,o),
(589,82,o),
(589,220,cs),
(589,474,o),
(232,405,o),
(232,529,cs),
(232,570,o),
(270,604,o),
(327,604,cs),
(381,604,o),
(419,574,o),
(454,517,c),
(577,593,l),
(524,677,o),
(440,732,o),
(329,732,cs),
(190,732,o),
(86,639,o),
(86,510,cs),
(86,269,o),
(443,346,o),
(443,202,cs),
(443,153,o),
(401,115,o),
(336,115,cs),
(270,115,o),
(212,152,o),
(175,226,c),
(50,147,l),
(110,40,o),
(211,-13,o),
(327,-13,cs)
);
}
);
};
hints = (
{
horizontal = 1;
origin = (0,31);
target = (0,24);
type = Stem;
},
{
horizontal = 1;
origin = (0,15);
target = (0,8);
type = Stem;
},
{
origin = (0,18);
target = (0,5);
type = Stem;
},
{
origin = (0,21);
target = (0,2);
type = Stem;
}
);
layerId = "0B84D982-BA46-4CB9-89EB-4BEFB54BBE92";
shapes = (
{
closed = 1;
nodes = (
(446,-13,o),
(548,70,o),
(548,200,cs),
(548,447,o),
(185,373,o),
(185,537,cs),
(185,600,o),
(231,652,o),
(318,652,cs),
(379,652,o),
(432,621,o),
(470,561,c),
(543,610,l),
(496,683,o),
(424,733,o),
(319,733,cs),
(175,733,o),
(94,632,o),
(94,532,cs),
(94,296,o),
(456,364,o),
(456,195,cs),
(456,113,o),
(389,69,o),
(315,69,cs),
(235,69,o),
(176,105,o),
(131,178,c),
(54,127,l),
(111,37,o),
(201,-13,o),
(309,-13,cs)
);
}
);
width = 612;
},
{
anchors = (
{
name = bottom;
pos = (290,0);
},
{
name = ogonek;
pos = (393,0);
},
{
name = top;
pos = (307,720);
}
);
background = {
shapes = (
{
closed = 1;
nodes = (
(-451,-13,o),
(-351,75,o),
(-351,206,cs),
(-351,377,o),
(-499,414,o),
(-583,441,cs),
(-646,460,o),
(-697,478,o),
(-697,527,cs),
(-697,573,o),
(-655,603,o),
(-598,603,cs),
(-544,603,o),
(-511,578,o),
(-476,522,c),
(-353,598,l),
(-407,683,o),
(-479,732,o),
(-591,732,cs),
(-743,732,o),
(-844,647,o),
(-844,520,cs),
(-844,415,o),
(-774,350,o),
(-663,322,cs),
(-574,299,o),
(-498,276,o),
(-498,197,cs),
(-498,148,o),
(-539,115,o),
(-606,115,cs),
(-669,115,o),
(-728,147,o),
(-765,221,c),
(-890,142,l),
(-827,32,o),
(-728,-13,o),
(-614,-13,cs)
);
},
{
pos = (-50,0);
ref = zero;
}
);
};
hints = (
{
horizontal = 1;
origin = (0,31);
target = (0,24);
type = Stem;
},
{
horizontal = 1;
origin = (0,15);
target = (0,8);
type = Stem;
},
{
origin = (0,18);
target = (0,5);
type = Stem;
},
{
origin = (0,21);
target = (0,2);
type = Stem;
}
);
layerId = "1B5AC656-48C3-4864-953F-2CD31E7BA751";
shapes = (
{
closed = 1;
nodes = (
(440,-13,o),
(549,82,o),
(549,220,cs),
(549,474,o),
(193,406,o),
(193,530,cs),
(193,571,o),
(230,602,o),
(287,602,cs),
(341,602,o),
(379,572,o),
(414,515,c),
(537,593,l),
(484,677,o),
(400,732,o),
(289,732,cs),
(150,732,o),
(46,639,o),
(46,510,cs),
(46,269,o),
(402,347,o),
(402,203,cs),
(402,154,o),
(361,117,o),
(296,117,cs),
(230,117,o),
(172,154,o),
(135,228,c),
(10,147,l),
(70,40,o),
(171,-13,o),
(287,-13,cs)
);
}
);
width = 572;
},
{
anchors = (
{
name = bottom;
pos = (275,0);
},
{
name = ogonek;
pos = (367,0);
},
{
name = top;
pos = (287,720);
}
);
background = {
shapes = (
{
closed = 1;
nodes = (
(408,-13,o),
(511,66,o),
(511,196,cs),
(511,348,o),
(375,386,o),
(285,419,cs),
(206,446,o),
(140,475,o),
(140,550,cs),
(140,609,o),
(195,660,o),
(277,660,cs),
(341,660,o),
(390,627,o),
(431,565,c),
(508,607,l),
(465,684,o),
(387,733,o),
(282,733,cs),
(138,733,o),
(57,638,o),
(57,541,cs),
(57,441,o),
(132,376,o),
(250,345,cs),
(345,317,o),
(427,283,o),
(427,184,cs),
(427,100,o),
(361,59,o),
(283,59,cs),
(199,59,o),
(132,101,o),
(89,179,c),
(12,135,l),
(64,42,o),
(164,-13,o),
(272,-13,cs)
);
}
);
};
hints = (
{
horizontal = 1;
place = (-13,72);
type = Stem;
},
{
horizontal = 1;
place = (733,73);
type = Stem;
},
{
place = (57,83);
type = Stem;
},
{
place = (427,84);
type = Stem;
}
);
layerId = "F32A93D6-BEB9-4F11-B510-2860D42C0CD2";
shapes = (
{
closed = 1;
nodes = (
(404,-13,o),
(506,70,o),
(506,200,cs),
(506,447,o),
(143,373,o),
(143,537,cs),
(143,600,o),
(189,652,o),
(276,652,cs),
(337,652,o),
(390,621,o),
(428,561,c),
(501,610,l),
(454,683,o),
(382,733,o),
(277,733,cs),
(133,733,o),
(52,632,o),
(52,532,cs),
(52,296,o),
(414,364,o),
(414,195,cs),
(414,113,o),
(347,69,o),
(273,69,cs),
(193,69,o),
(134,105,o),
(89,178,c),
(12,127,l),
(69,37,o),
(159,-13,o),
(267,-13,cs)
);
}
);
width = 530;
}
);
unicode = 83;
},
{
glyphname = Germandbls;
kernLeft = H;
kernRight = B;
lastChange = "2026-05-22 21:39:19 +0000";
layers = (
{
background = {
shapes = (
{
closed = 1;
nodes = (
(678,-13,o),
(777,73,o),
(777,216,cs),
(777,323,o),
(696,377,o),
(617,402,c),
(617,406,l),
(788,684,l),
(788,699,l),
(86,699,l),
(86,0,l),
(226,0,l),
(226,564,l),
(562,563,l),
(562,561,l),
(550,550,o),
(541,537,o),
(531,521,cs),
(421,349,l),
(421,341,l),
(513,301,o),
(634,294,o),
(634,203,cs),
(634,152,o),
(583,121,o),
(522,121,cs),
(465,121,o),
(407,142,o),
(369,209,c),
(257,130,l),
(323,26,o),
(409,-13,o),
(519,-13,cs)
);
},
{
closed = 1;
nodes = (
(572,-13,o),
(663,71,o),
(663,206,cs),
(663,315,o),
(592,411,o),
(457,420,c),
(457,422,l),
(607,695,l),
(607,699,l),
(88,699,l),
(88,0,l),
(170,0,l),
(170,623,l),
(478,623,l),
(478,620,l),
(470,610,o),
(462,599,o),
(452,579,cs),
(334,370,l),
(334,357,l),
(493,384,o),
(579,307,o),
(579,204,cs),
(579,116,o),
(524,63,o),
(417,63,cs),
(383,63,o),
(360,66,o),
(326,78,c),
(326,3,l),
(349,-9,o),
(383,-13,o),
(414,-13,cs)
);
}
);
};
hints = (
{
horizontal = 1;
place = (-15,122);
type = Stem;
},
{
horizontal = 1;
place = (718,137);
type = Stem;
},
{
horizontal = 1;
place = (-2,21);
target = up;
type = BottomGhost;
},
{
place = (82,143);
type = Stem;
},
{
place = (580,136);
type = Stem;
},
{
horizontal = 1;
origin = (0,19);
target = (0,6);
type = Stem;
}
);
layerId = m006;
shapes = (
{
closed = 1;
nodes = (
(628,-13,o),
(722,103,o),
(722,218,cs),
(722,293,o),
(688,396,o),
(568,418,c),
(568,421,l),
(687,629,l),
(687,720,l),
(86,720,l),
(86,0,l),
(231,0,l),
(231,581,l),
(509,581,l),
(509,579,l),
(498,568,o),
(490,553,o),
(481,537,cs),
(380,359,l),
(380,351,l),
(529,363,o),
(584,288,o),
(584,221,cs),
(584,144,o),
(527,111,o),
(470,111,cs),
(431,111,o),
(398,119,o),
(373,127,c),
(373,4,l),
(398,-8,o),
(447,-13,o),
(475,-13,cs)
);
}
);
width = 750;
},
{
hints = (
{
horizontal = 1;
place = (-13,81);
type = Stem;
},
{
horizontal = 1;
origin = (0,19);
target = (0,5);
type = Stem;
},
{
horizontal = 1;
place = (720,82);
type = Stem;
},
{
horizontal = 1;
place = (0,21);
target = up;
type = BottomGhost;
},
{
place = (87,89);
type = Stem;
},
{
place = (592,91);
type = Stem;
}
);
layerId = "0B84D982-BA46-4CB9-89EB-4BEFB54BBE92";
shapes = (
{
closed = 1;
nodes = (
(593,-13,o),
(687,75,o),
(687,212,cs),
(687,322,o),
(618,421,o),
(479,432,c),
(479,434,l),
(605,663,l),
(605,720,l),
(91,720,l),
(91,0,l),
(180,0,l),
(180,638,l),
(494,638,l),
(494,635,l),
(486,624,o),
(478,613,o),
(467,592,cs),
(348,379,l),
(348,367,l),
(510,394,o),
(596,314,o),
(596,211,cs),
(596,121,o),
(540,68,o),
(433,68,cs),
(398,68,o),
(375,71,o),
(340,83,c),
(340,3,l),
(363,-9,o),
(399,-13,o),
(431,-13,cs)
);
}
);
width = 718;
},
{
background = {
shapes = (
{
closed = 1;
nodes = (
(501,2255,o),
(590,2369,o),
(590,2497,cs),
(590,2601,o),
(527,2687,o),
(348,2687,c),
(360,2657,l),
(474,2670,o),
(515,2755,o),
(515,2826,cs),
(515,2929,o),
(436,3024,o),
(277,3024,cs),
(129,3024,o),
(40,2929,o),
(40,2800,cs),
(40,2262,l),
(179,2262,l),
(179,2800,ls),
(179,2864,o),
(217,2902,o),
(278,2902,cs),
(338,2902,o),
(377,2864,o),
(377,2811,cs),
(377,2736,o),
(328,2710,o),
(281,2710,c),
(281,2606,l),
(392,2606,o),
(447,2559,o),
(447,2497,cs),
(447,2438,o),
(403,2386,o),
(273,2386,c),
(273,2255,l)
);
},
{
closed = 1;
nodes = (
(140,1161,l),
(106,1178,o),
(77,1206,o),
(56,1249,c),
(-68,1170,l),
(-28,1099,o),
(28,1055,o),
(92,1033,c)
);
},
{
closed = 1;
nodes = (
(175,1033,l),
(211,1021,o),
(250,1015,o),
(290,1015,cs),
(445,1015,o),
(555,1093,o),
(555,1236,cs),
(555,1402,o),
(405,1437,o),
(321,1464,cs),
(258,1483,o),
(207,1501,o),
(207,1553,cs),
(207,1601,o),
(249,1631,o),
(306,1631,cs),
(360,1631,o),
(393,1606,o),
(428,1550,c),
(551,1626,l),
(497,1711,o),
(425,1760,o),
(313,1760,cs),
(161,1760,o),
(57,1673,o),
(57,1543,cs),
(57,1432,o),
(130,1369,o),
(241,1341,cs),
(330,1318,o),
(406,1295,o),
(406,1225,cs),
(406,1176,o),
(365,1143,o),
(298,1143,cs),
(271,1143,o),
(246,1149,o),
(222,1161,c)
);
},
{
closed = 1;
nodes = (
(535,-13,o),
(619,103,o),
(619,218,cs),
(619,318,o),
(546,437,o),
(348,437,c),
(348,369,l),
(513,389,o),
(556,493,o),
(556,564,cs),
(556,667,o),
(469,764,o),
(331,764,cs),
(185,764,o),
(91,659,o),
(91,528,cs),
(91,0,l),
(230,0,l),
(230,528,ls),
(230,600,o),
(272,637,o),
(327,637,cs),
(380,637,o),
(418,598,o),
(418,549,cs),
(418,474,o),
(366,447,o),
(304,447,c),
(304,336,l),
(433,356,o),
(481,288,o),
(481,221,cs),
(481,144,o),
(424,111,o),
(377,111,cs),
(347,111,o),
(322,121,o),
(302,134,c),
(250,14,l),
(281,-3,o),
(322,-13,o),
(381,-13,cs)
);
},
{
closed = 1;
nodes = (
(844,311,l),
(844,438,l),
(474,438,l),
(474,416,l),
(491,434,o),
(506,452,o),
(517,471,cs),
(844,1016,l),
(844,1031,l),
(284,1031,l),
(284,905,l),
(634,905,l),
(634,926,l),
(617,909,o),
(602,890,o),
(591,872,cs),
(264,327,l),
(264,311,l)
);
}
);
};
hints = (
{
horizontal = 1;
origin = (0,32);
target = (0,25);
type = Stem;
},
{
horizontal = 1;
origin = (0,9);
target = (0,13);
type = Stem;
},
{
horizontal = 1;
origin = (0,11);
target = up;
type = BottomGhost;
},
{
origin = (0,10);
target = (0,12);
type = Stem;
},
{
origin = (0,22);
target = (0,2);
type = Stem;
},
{
horizontal = 1;
origin = (0,19);
target = (0,5);
type = Stem;
}
);
layerId = "1B5AC656-48C3-4864-953F-2CD31E7BA751";
shapes = (
{
closed = 1;
nodes = (
(553,-13,o),
(629,102,o),
(629,212,cs),
(629,284,o),
(599,379,o),
(477,409,c),
(477,409,l),
(608,629,l),
(608,720,l),
(50,720,l),
(50,0,l),
(193,0,l),
(193,593,l),
(437,593,l),
(437,593,l),
(430,582,o),
(424,571,o),
(417,560,cs),
(280,328,l),
(280,328,l),
(413,341,o),
(491,312,o),
(491,213,cs),
(491,160,o),
(456,111,o),
(388,111,cs),
(342,111,o),
(304,125,o),
(271,147,c),
(271,13,l),
(300,-5,o),
(346,-13,o),
(401,-13,cs)
);
}
);
width = 646;
},
{
associatedMasterId = "0B84D982-BA46-4CB9-89EB-4BEFB54BBE92";
attr = {
coordinates = (
10,
0,
400,
720,
100
);
};
hints = (
{
horizontal = 1;
origin = (0,32);
target = (0,25);
type = Stem;
},
{
horizontal = 1;
origin = (0,19);
target = (0,5);
type = Stem;
},
{
horizontal = 1;
origin = (0,9);
target = (0,13);
type = Stem;
},
{
horizontal = 1;
origin = (0,11);
target = up;
type = BottomGhost;
},
{
origin = (0,10);
target = (0,12);
type = Stem;
},
{
origin = (0,22);
target = (0,2);
type = Stem;
}
);
layerId = "3E09E8CF-2913-4E6C-B0ED-BADD3610759E";
name = "Apr 8, 26 at 00:09";
shapes = (
{
closed = 1;
nodes = (
(593,-13,o),
(687,75,o),
(687,212,cs),
(687,322,o),
(618,421,o),
(479,432,c),
(479,434,l),
(633,715,l),
(633,720,l),
(91,720,l),
(91,0,l),
(180,0,l),
(180,638,l),
(494,638,l),
(494,635,l),
(486,624,o),
(478,613,o),
(467,592,cs),
(348,379,l),
(348,367,l),
(510,394,o),
(596,314,o),
(596,211,cs),
(596,121,o),
(540,68,o),
(433,68,cs),
(398,68,o),
(375,71,o),
(340,83,c),
(340,3,l),
(363,-9,o),
(399,-13,o),
(431,-13,cs)
);
}
);
width = 722;
},
{
associatedMasterId = m006;
attr = {
coordinates = (
10,
0,
700,
720,
100
);
};
background = {
shapes = (
{
closed = 1;
nodes = (
(676,-13,o),
(775,73,o),
(775,216,cs),
(775,323,o),
(694,377,o),
(615,402,c),
(615,406,l),
(786,684,l),
(786,699,l),
(84,699,l),
(84,0,l),
(224,0,l),
(224,564,l),
(560,563,l),
(560,561,l),
(548,550,o),
(539,537,o),
(529,521,cs),
(419,349,l),
(419,341,l),
(511,301,o),
(632,294,o),
(632,203,cs),
(632,152,o),
(581,121,o),
(520,121,cs),
(463,121,o),
(405,142,o),
(367,209,c),
(255,130,l),
(321,26,o),
(407,-13,o),
(517,-13,cs)
);
},
{
closed = 1;
nodes = (
(570,-13,o),
(661,71,o),
(661,206,cs),
(661,315,o),
(590,411,o),
(455,420,c),
(455,422,l),
(605,695,l),
(605,699,l),
(86,699,l),
(86,0,l),
(168,0,l),
(168,623,l),
(476,623,l),
(476,620,l),
(468,610,o),
(460,599,o),
(450,579,cs),
(332,370,l),
(332,357,l),
(491,384,o),
(577,307,o),
(577,204,cs),
(577,116,o),
(522,63,o),
(415,63,cs),
(381,63,o),
(358,66,o),
(324,78,c),
(324,3,l),
(347,-9,o),
(381,-13,o),
(412,-13,cs)
);
}
);
};
hints = (
{
horizontal = 1;
origin = (0,32);
target = (0,25);
type = Stem;
},
{
horizontal = 1;
origin = (0,9);
target = (0,13);
type = Stem;
},
{
horizontal = 1;
origin = (0,11);
target = up;
type = BottomGhost;
},
{
origin = (0,10);
target = (0,12);
type = Stem;
},
{
origin = (0,22);
target = (0,2);
type = Stem;
},
{
horizontal = 1;
origin = (0,19);
target = (0,6);
type = Stem;
}
);
layerId = "5E3104DD-ED89-44C4-850D-D180CF2BEDD3";
name = "Apr 8, 26 at 00:09";
shapes = (
{
closed = 1;
nodes = (
(628,-13,o),
(722,103,o),
(722,218,cs),
(722,293,o),
(688,396,o),
(568,418,c),
(568,421,l),
(731,705,l),
(731,720,l),
(86,720,l),
(86,0,l),
(231,0,l),
(231,581,l),
(509,581,l),
(509,579,l),
(498,568,o),
(490,553,o),
(481,537,cs),
(380,359,l),
(380,351,l),
(529,363,o),
(584,288,o),
(584,221,cs),
(584,144,o),
(527,111,o),
(470,111,cs),
(431,111,o),
(398,119,o),
(373,127,c),
(373,4,l),
(398,-8,o),
(447,-13,o),
(475,-13,cs)
);
}
);
width = 765;
},
{
associatedMasterId = "1B5AC656-48C3-4864-953F-2CD31E7BA751";
attr = {
coordinates = (
32,
0,
700,
720,
100
);
};
background = {
shapes = (
{
closed = 1;
nodes = (
(501,2255,o),
(590,2369,o),
(590,2497,cs),
(590,2601,o),
(527,2687,o),
(348,2687,c),
(360,2657,l),
(474,2670,o),
(515,2755,o),
(515,2826,cs),
(515,2929,o),
(436,3024,o),
(277,3024,cs),
(129,3024,o),
(40,2929,o),
(40,2800,cs),
(40,2262,l),
(179,2262,l),
(179,2800,ls),
(179,2864,o),
(217,2902,o),
(278,2902,cs),
(338,2902,o),
(377,2864,o),
(377,2811,cs),
(377,2736,o),
(328,2710,o),
(281,2710,c),
(281,2606,l),
(392,2606,o),
(447,2559,o),
(447,2497,cs),
(447,2438,o),
(403,2386,o),
(273,2386,c),
(273,2255,l)
);
},
{
closed = 1;
nodes = (
(140,1161,l),
(106,1178,o),
(77,1206,o),
(56,1249,c),
(-68,1170,l),
(-28,1099,o),
(28,1055,o),
(92,1033,c)
);
},
{
closed = 1;
nodes = (
(175,1033,l),
(211,1021,o),
(250,1015,o),
(290,1015,cs),
(445,1015,o),
(555,1093,o),
(555,1236,cs),
(555,1402,o),
(405,1437,o),
(321,1464,cs),
(258,1483,o),
(207,1501,o),
(207,1553,cs),
(207,1601,o),
(249,1631,o),
(306,1631,cs),
(360,1631,o),
(393,1606,o),
(428,1550,c),
(551,1626,l),
(497,1711,o),
(425,1760,o),
(313,1760,cs),
(161,1760,o),
(57,1673,o),
(57,1543,cs),
(57,1432,o),
(130,1369,o),
(241,1341,cs),
(330,1318,o),
(406,1295,o),
(406,1225,cs),
(406,1176,o),
(365,1143,o),
(298,1143,cs),
(271,1143,o),
(246,1149,o),
(222,1161,c)
);
},
{
closed = 1;
nodes = (
(535,-13,o),
(619,103,o),
(619,218,cs),
(619,318,o),
(546,437,o),
(348,437,c),
(348,369,l),
(513,389,o),
(556,493,o),
(556,564,cs),
(556,667,o),
(469,764,o),
(331,764,cs),
(185,764,o),
(91,659,o),
(91,528,cs),
(91,0,l),
(230,0,l),
(230,528,ls),
(230,600,o),
(272,637,o),
(327,637,cs),
(380,637,o),
(418,598,o),
(418,549,cs),
(418,474,o),
(366,447,o),
(304,447,c),
(304,336,l),
(433,356,o),
(481,288,o),
(481,221,cs),
(481,144,o),
(424,111,o),
(377,111,cs),
(347,111,o),
(322,121,o),
(302,134,c),
(250,14,l),
(281,-3,o),
(322,-13,o),
(381,-13,cs)
);
},
{
closed = 1;
nodes = (
(844,311,l),
(844,438,l),
(474,438,l),
(474,416,l),
(491,434,o),
(506,452,o),
(517,471,cs),
(844,1016,l),
(844,1031,l),
(284,1031,l),
(284,905,l),
(634,905,l),
(634,926,l),
(617,909,o),
(602,890,o),
(591,872,cs),
(264,327,l),
(264,311,l)
);
}
);
};
hints = (
{
horizontal = 1;
origin = (0,32);
target = (0,25);
type = Stem;
},
{
horizontal = 1;
origin = (0,9);
target = (0,13);
type = Stem;
},
{
horizontal = 1;
origin = (0,11);
target = up;
type = BottomGhost;
},
{
origin = (0,10);
target = (0,12);
type = Stem;
},
{
origin = (0,22);
target = (0,2);
type = Stem;
},
{
horizontal = 1;
origin = (0,19);
target = (0,5);
type = Stem;
}
);
layerId = "ACEEC4C2-61CC-4DA2-930A-4A88A9F20480";
name = "Apr 8, 26 at 00:11";
shapes = (
{
closed = 1;
nodes = (
(553,-13,o),
(629,102,o),
(629,212,cs),
(629,284,o),
(599,380,o),
(476,410,c),
(476,410,l),
(653,720,l),
(653,720,l),
(50,720,l),
(50,0,l),
(193,0,l),
(193,593,l),
(436,593,l),
(436,593,l),
(428,582,o),
(423,571,o),
(416,560,cs),
(280,329,l),
(280,329,l),
(413,342,o),
(491,312,o),
(491,213,cs),
(491,160,o),
(456,111,o),
(388,111,cs),
(342,111,o),
(304,125,o),
(271,147,c),
(271,13,l),
(300,-5,o),
(346,-13,o),
(401,-13,cs)
);
}
);
width = 654;
},
{
hints = (
{
horizontal = 1;
origin = (0,32);
target = (0,25);
type = Stem;
},
{
horizontal = 1;
origin = (0,9);
target = (0,14);
type = Stem;
},
{
horizontal = 1;
origin = (0,11);
target = up;
type = BottomGhost;
},
{
origin = (0,10);
target = (0,12);
type = Stem;
},
{
origin = (0,22);
target = (0,2);
type = Stem;
}
);
layerId = "F32A93D6-BEB9-4F11-B510-2860D42C0CD2";
shapes = (
{
closed = 1;
nodes = (
(506,-13,o),
(582,74,o),
(582,206,cs),
(582,313,o),
(518,403,o),
(378,425,c),
(378,425,l),
(522,661,l),
(522,720,l),
(53,720,l),
(53,0,l),
(140,0,l),
(140,639,l),
(405,639,l),
(405,639,l),
(399,629,o),
(397,626,o),
(391,615,cs),
(236,348,l),
(236,348,l),
(382,376,o),
(491,338,o),
(491,203,cs),
(491,137,o),
(457,68,o),
(339,68,cs),
(297,68,o),
(269,77,o),
(226,103,c),
(226,12,l),
(249,0,o),
(290,-13,o),
(345,-13,cs)
);
}
);
width = 602;
},
{
associatedMasterId = "F32A93D6-BEB9-4F11-B510-2860D42C0CD2";
attr = {
coordinates = (
32,
0,
400,
720,
100
);
};
background = {
shapes = (
{
closed = 1;
nodes = (
(506,-13,o),
(582,74,o),
(582,206,cs),
(582,313,o),
(518,403,o),
(378,425,c),
(378,425,l),
(512,661,l),
(512,720,l),
(53,720,l),
(53,0,l),
(140,0,l),
(140,639,l),
(405,639,l),
(405,639,l),
(399,629,o),
(397,626,o),
(391,615,cs),
(236,348,l),
(236,348,l),
(382,376,o),
(491,338,o),
(491,203,cs),
(491,137,o),
(457,68,o),
(339,68,cs),
(297,68,o),
(269,77,o),
(226,103,c),
(226,12,l),
(253,-6,o),
(286,-13,o),
(345,-13,cs)
);
}
);
};
hints = (
{
horizontal = 1;
origin = (0,32);
target = (0,25);
type = Stem;
},
{
horizontal = 1;
origin = (0,9);
target = (0,13);
type = Stem;
},
{
horizontal = 1;
origin = (0,11);
target = up;
type = BottomGhost;
},
{
origin = (0,10);
target = (0,12);
type = Stem;
},
{
origin = (0,22);
target = (0,2);
type = Stem;
}
);
layerId = "279550E6-1194-4F49-9CF7-7398D7CD32B5";
name = "May 3, 26 at 00:47";
shapes = (
{
closed = 1;
nodes = (
(506,-13,o),
(582,74,o),
(582,206,cs),
(582,313,o),
(518,403,o),
(378,425,c),
(378,425,l),
(551,720,l),
(551,720,l),
(53,720,l),
(53,0,l),
(140,0,l),
(140,639,l),
(403,639,l),
(403,638,l),
(398,628,o),
(394,622,o),
(385,606,cs),
(236,349,l),
(236,345,l),
(382,373,o),
(491,338,o),
(491,203,cs),
(491,137,o),
(457,68,o),
(339,68,cs),
(297,68,o),
(269,77,o),
(226,103,c),
(226,12,l),
(253,-6,o),
(286,-13,o),
(345,-13,cs)
);
}
);
width = 599;
}
);
metricLeft = H;
unicode = 7838;
},
{
glyphname = T;
kernLeft = T;
kernRight = T;
lastChange = "2026-05-31 19:06:32 +0000";
layers = (
{
anchors = (
{
name = bar;
pos = (327,369);
},
{
name = bottom;
pos = (327,0);
},
{
name = cedilla;
pos = (333,0);
},
{
name = center;
pos = (327,333);
},
{
name = ogonek;
pos = (301,0);
},
{
name = top;
pos = (327,720);
}
);
hints = (
{
horizontal = 1;
origin = (0,3);
target = up;
type = BottomGhost;
},
{
horizontal = 1;
origin = (1,2);
target = (1,3);
type = Stem;
},
{
origin = (0,3);
target = (0,1);
type = Stem;
}
);
layerId = m006;
shapes = (
{
closed = 1;
nodes = (
(400,0,l),
(400,653,l),
(255,653,l),
(255,0,l)
);
},
{
closed = 1;
nodes = (
(605,581,l),
(605,720,l),
(49,720,l),
(49,581,l)
);
}
);
width = 654;
},
{
anchors = (
{
name = bar;
pos = (310,369);
},
{
name = bottom;
pos = (310,0);
},
{
name = cedilla;
pos = (311,0);
},
{
name = center;
pos = (310,333);
},
{
name = ogonek;
pos = (348,0);
},
{
name = top;
pos = (310,720);
}
);
hints = (
{
horizontal = 1;
options = 4;
origin = (0,3);
type = TTSnap;
},
{
horizontal = 1;
options = 4;
origin = (1,2);
target = (1,0);
type = TTStem;
},
{
horizontal = 1;
origin = (0,3);
target = up;
type = BottomGhost;
},
{
horizontal = 1;
origin = (1,2);
target = (1,3);
type = Stem;
},
{
origin = (0,3);
target = (0,1);
type = Stem;
}
);
layerId = "0B84D982-BA46-4CB9-89EB-4BEFB54BBE92";
shapes = (
{
closed = 1;
nodes = (
(355,0,l),
(355,678,l),
(266,678,l),
(266,0,l)
);
},
{
closed = 1;
nodes = (
(567,638,l),
(567,720,l),
(54,720,l),
(54,638,l)
);
}
);
width = 621;
},
{
anchors = (
{
name = bar;
pos = (293,369);
},
{
name = bottom;
pos = (293,0);
},
{
name = cedilla;
pos = (330,0);
},
{
name = center;
pos = (293,332);
},
{
name = ogonek;
pos = (365,0);
},
{
name = top;
pos = (293,720);
}
);
hints = (
{
horizontal = 1;
origin = (0,3);
target = up;
type = BottomGhost;
},
{
horizontal = 1;
origin = (1,2);
target = (1,3);
type = Stem;
},
{
origin = (0,3);
target = (0,1);
type = Stem;
}
);
layerId = "1B5AC656-48C3-4864-953F-2CD31E7BA751";
shapes = (
{
closed = 1;
nodes = (
(365,0,l),
(365,656,l),
(221,656,l),
(221,0,l)
);
},
{
closed = 1;
nodes = (
(571,581,l),
(571,720,l),
(15,720,l),
(15,581,l)
);
}
);
width = 586;
},
{
anchors = (
{
name = bar;
pos = (274,369);
},
{
name = bottom;
pos = (274,0);
},
{
name = cedilla;
pos = (306,0);
},
{
name = center;
pos = (274,332);
},
{
name = ogonek;
pos = (410,0);
},
{
name = top;
pos = (274,720);
}
);
hints = (
{
horizontal = 1;
options = 4;
origin = (0,3);
type = TTSnap;
},
{
horizontal = 1;
options = 4;
origin = (1,2);
target = (1,0);
type = TTStem;
},
{
horizontal = 1;
origin = (0,3);
target = up;
type = BottomGhost;
},
{
horizontal = 1;
origin = (1,2);
target = (1,3);
type = Stem;
},
{
origin = (0,3);
target = (0,1);
type = Stem;
}
);
layerId = "F32A93D6-BEB9-4F11-B510-2860D42C0CD2";
shapes = (
{
closed = 1;
nodes = (
(319,0,l),
(319,681,l),
(230,681,l),
(230,0,l)
);
},
{
closed = 1;
nodes = (
(531,638,l),
(531,720,l),
(18,720,l),
(18,638,l)
);
}
);
width = 549;
}
);
unicode = 84;
},
{
glyphname = U;
kernLeft = U;
kernRight = U;
lastChange = "2026-05-22 21:13:15 +0000";
layers = (
{
anchors = (
{
name = bottom;
pos = (368,1);
},
{
name = ogonek;
pos = (367,2);
},
{
name = top;
pos = (368,704);
},
{
name = top_ring;
pos = (368,665);
},
{
name = topright;
pos = (666,720);
}
);
hints = (
{
horizontal = 1;
origin = (0,17);
target = (0,8);
type = Stem;
},
{
horizontal = 1;
origin = (0,13);
target = down;
type = TopGhost;
},
{
origin = (0,12);
target = (0,14);
type = Stem;
},
{
origin = (0,3);
target = (0,5);
type = Stem;
}
);
layerId = m006;
shapes = (
{
closed = 1;
nodes = (
(543,-13,o),
(658,102,o),
(658,267,cs),
(658,720,l),
(514,720,l),
(514,282,ls),
(514,180,o),
(466,121,o),
(368,121,cs),
(269,121,o),
(220,180,o),
(220,282,cs),
(220,720,l),
(76,720,l),
(76,267,ls),
(76,102,o),
(191,-13,o),
(368,-13,cs)
);
}
);
width = 734;
},
{
anchors = (
{
name = bottom;
pos = (364,0);
},
{
name = ogonek;
pos = (380,1);
},
{
name = top;
pos = (364,704);
},
{
name = top_ring;
pos = (364,665);
},
{
name = topright;
pos = (663,720);
}
);
hints = (
{
horizontal = 1;
origin = (0,17);
target = (0,8);
type = Stem;
},
{
horizontal = 1;
origin = (0,13);
target = down;
type = TopGhost;
},
{
origin = (0,12);
target = (0,14);
type = Stem;
},
{
origin = (0,3);
target = (0,5);
type = Stem;
}
);
layerId = "0B84D982-BA46-4CB9-89EB-4BEFB54BBE92";
shapes = (
{
closed = 1;
nodes = (
(540,-13,o),
(650,103,o),
(650,274,cs),
(650,720,l),
(559,720,l),
(559,273,ls),
(559,143,o),
(489,70,o),
(364,70,cs),
(241,70,o),
(171,145,o),
(171,279,cs),
(171,720,l),
(80,720,l),
(80,267,ls),
(80,103,o),
(188,-13,o),
(364,-13,cs)
);
}
);
width = 730;
},
{
anchors = (
{
name = bottom;
pos = (332,0);
},
{
name = ogonek;
pos = (344,7);
},
{
name = top;
pos = (332,703);
},
{
name = top_ring;
pos = (332,665);
},
{
name = topright;
pos = (631,720);
}
);
background = {
shapes = (
{
closed = 1;
nodes = (
(185,0,l),
(185,720,l),
(41,720,l),
(41,0,l)
);
},
{
closed = 1;
nodes = (
(112,300,l),
(536,300,l),
(536,430,l),
(112,430,l)
);
},
{
closed = 1;
nodes = (
(648,0,l),
(648,720,l),
(504,720,l),
(504,0,l)
);
},
{
closed = 1;
nodes = (
(546,-13,o),
(706,153,o),
(706,359,cs),
(706,565,o),
(546,733,o),
(333,733,cs),
(119,733,o),
(-42,565,o),
(-42,359,cs),
(-42,153,o),
(119,-13,o),
(333,-13,cs)
);
},
{
closed = 1;
nodes = (
(197,119,o),
(111,228,o),
(111,359,cs),
(111,489,o),
(197,599,o),
(333,599,cs),
(468,599,o),
(553,489,o),
(553,359,cs),
(553,228,o),
(468,119,o),
(333,119,cs)
);
}
);
};
layerId = "1B5AC656-48C3-4864-953F-2CD31E7BA751";
shapes = (
{
closed = 1;
nodes = (
(508,-13,o),
(623,102,o),
(623,266,cs),
(623,720,l),
(479,720,l),
(479,282,ls),
(479,180,o),
(431,118,o),
(332,118,cs),
(233,118,o),
(185,180,o),
(185,282,cs),
(185,720,l),
(41,720,l),
(41,266,ls),
(41,102,o),
(156,-13,o),
(332,-13,cs)
);
}
);
width = 664;
},
{
anchors = (
{
name = bottom;
pos = (326,-1);
},
{
name = ogonek;
pos = (355,6);
},
{
name = top;
pos = (326,703);
},
{
name = top_ring;
pos = (326,665);
},
{
name = topright;
pos = (626,720);
}
);
hints = (
{
horizontal = 1;
origin = (0,17);
target = (0,8);
type = Stem;
},
{
horizontal = 1;
origin = (0,13);
target = down;
type = TopGhost;
},
{
origin = (0,12);
target = (0,14);
type = Stem;
},
{
origin = (0,3);
target = (0,5);
type = Stem;
}
);
layerId = "F32A93D6-BEB9-4F11-B510-2860D42C0CD2";
shapes = (
{
closed = 1;
nodes = (
(503,-13,o),
(613,103,o),
(613,273,cs),
(613,720,l),
(522,720,l),
(522,273,ls),
(522,143,o),
(452,70,o),
(326,70,cs),
(203,70,o),
(134,145,o),
(134,279,cs),
(134,720,l),
(43,720,l),
(43,266,ls),
(43,103,o),
(151,-13,o),
(326,-13,cs)
);
}
);
width = 656;
}
);
unicode = 85;
},
{
glyphname = Uogonek;
kernLeft = U;
kernRight = U;
lastChange = "2026-05-22 00:10:29 +0000";
layers = (
{
layerId = m006;
shapes = (
{
ref = U;
},
{
pos = (369,2);
ref = ogonekcomb;
}
);
width = 734;
},
{
layerId = "0B84D982-BA46-4CB9-89EB-4BEFB54BBE92";
shapes = (
{
ref = U;
},
{
pos = (380,1);
ref = ogonekcomb;
}
);
width = 730;
},
{
background = {
shapes = (
{
closed = 1;
nodes = (
(359,-238,o),
(476,-212,c),
(476,-124,l),
(421,-143,o),
(382,-113,o),
(382,-68,cs),
(382,-33,o),
(408,-6,o),
(437,2,c),
(413,6,l),
(364,0,l),
(324,-9,o),
(287,-44,o),
(287,-109,cs),
(287,-168,o)
);
}
);
};
layerId = "1B5AC656-48C3-4864-953F-2CD31E7BA751";
shapes = (
{
ref = U;
},
{
pos = (344,7);
ref = ogonekcomb;
scale = (1,1.07);
}
);
width = 664;
},
{
layerId = "F32A93D6-BEB9-4F11-B510-2860D42C0CD2";
shapes = (
{
ref = U;
},
{
pos = (355,6);
ref = ogonekcomb;
scale = (1,1.07);
}
);
width = 656;
}
);
unicode = 370;
},
{
glyphname = V;
kernLeft = V;
kernRight = V;
lastChange = "2026-05-22 21:13:15 +0000";
layers = (
{
anchors = (
{
name = bottom;
pos = (364,0);
},
{
name = ogonek;
pos = (399,0);
},
{
name = top;
pos = (364,720);
}
);
hints = (
{
horizontal = 1;
origin = (0,13);
target = up;
type = BottomGhost;
},
{
horizontal = 1;
origin = (0,12);
target = down;
type = TopGhost;
},
{
horizontal = 1;
origin = (0,13);
target = (0,7);
type = Stem;
}
);
layerId = "0B84D982-BA46-4CB9-89EB-4BEFB54BBE92";
shapes = (
{
closed = 1;
nodes = (
(399,0,l),
(702,720,l),
(596,720,l),
(398,216,ls),
(382,173,o),
(373,146,o),
(364,117,c),
(359,117,l),
(351,146,o),
(342,176,o),
(326,216,cs),
(126,720,l),
(19,720,l),
(325,0,l)
);
}
);
width = 721;
},
{
anchors = (
{
name = bottom;
pos = (338,0);
},
{
name = ogonek;
pos = (373,0);
},
{
name = top;
pos = (338,720);
}
);
associatedMasterId = "0B84D982-BA46-4CB9-89EB-4BEFB54BBE92";
attr = {
coordinates = (
10,
0,
400,
720,
100
);
};
background = {
shapes = (
{
closed = 1;
nodes = (
(373,0,l),
(676,720,l),
(570,720,l),
(372,216,ls),
(356,173,o),
(347,146,o),
(338,117,c),
(333,117,l),
(325,146,o),
(316,176,o),
(300,216,cs),
(100,720,l),
(-7,720,l),
(299,0,l)
);
}
);
};
hints = (
{
horizontal = 1;
place = (0,21);
target = up;
type = BottomGhost;
},
{
horizontal = 1;
place = (720,-20);
target = down;
type = TopGhost;
},
{
horizontal = 1;
place = (0,117);
type = Stem;
}
);
layerId = "DFF04471-860B-4FB7-902A-72E2B29BD4A8";
name = "Apr 7, 26 at 04:56";
shapes = (
{
closed = 1;
nodes = (
(346,-24,l),
(681,720,l),
(585,720,l),
(373,237,ls),
(353,191,o),
(349,174,o),
(340,145,c),
(336,145,l),
(327,175,o),
(323,190,o),
(302,237,cs),
(89,720,l),
(-7,720,l),
(330,-24,l)
);
}
);
width = 674;
},
{
anchors = (
{
name = bottom;
pos = (375,0);
},
{
name = ogonek;
pos = (445,0);
},
{
name = top;
pos = (375,720);
}
);
background = {
shapes = (
{
closed = 1;
nodes = (
(527,699,l),
(468,533,l),
(453,493,l),
(371,273,ls),
(354,227,o),
(344,191,o),
(339,171,c),
(331,171,l),
(326,191,o),
(314,227,o),
(297,273,cs),
(215,493,l),
(200,533,l),
(140,699,l),
(-12,699,l),
(273,0,l),
(394,0,l),
(679,699,l)
);
},
{
closed = 1;
nodes = (
(151,560,l),
(151,451,l),
(529,451,l),
(529,560,l)
);
}
);
};
hints = (
{
horizontal = 1;
origin = (0,13);
target = up;
type = BottomGhost;
},
{
horizontal = 1;
origin = (0,12);
target = down;
type = TopGhost;
},
{
horizontal = 1;
origin = (0,13);
target = (0,7);
type = Stem;
}
);
layerId = m006;
shapes = (
{
closed = 1;
nodes = (
(445,0,l),
(729,720,l),
(569,720,l),
(405,263,ls),
(398,243,o),
(383,202,o),
(379,176,c),
(371,176,l),
(367,202,o),
(351,243,o),
(344,263,cs),
(179,720,l),
(15,720,l),
(303,0,l)
);
}
);
width = 744;
},
{
anchors = (
{
name = bottom;
pos = (360,0);
},
{
name = ogonek;
pos = (430,0);
},
{
name = top;
pos = (360,720);
}
);
associatedMasterId = m006;
attr = {
coordinates = (
10,
0,
700,
720,
100
);
};
background = {
shapes = (
{
closed = 1;
nodes = (
(-370,700,l),
(-86,1420,l),
(-246,1420,l),
(-410,963,ls),
(-417,943,o),
(-432,902,o),
(-436,876,c),
(-444,876,l),
(-448,902,o),
(-464,943,o),
(-471,963,cs),
(-636,1420,l),
(-800,1420,l),
(-512,700,l)
);
},
{
closed = 1;
nodes = (
(552,720,l),
(486,567,l),
(472,528,l),
(388,335,ls),
(374,303,o),
(367,284,o),
(362,270,c),
(354,270,l),
(349,284,o),
(342,302,o),
(328,335,cs),
(245,528,l),
(231,567,l),
(165,720,l),
(3,720,l),
(349,-24,l),
(365,-24,l),
(715,720,l)
);
},
{
closed = 1;
nodes = (
(171,607,l),
(171,468,l),
(560,468,l),
(560,607,l)
);
}
);
};
hints = (
{
horizontal = 1;
place = (0,21);
target = up;
type = BottomGhost;
},
{
horizontal = 1;
place = (720,-20);
target = down;
type = TopGhost;
},
{
horizontal = 1;
place = (0,176);
type = Stem;
}
);
layerId = "312722CB-6473-4648-B727-1397DA0ABC8B";
name = "Apr 7, 26 at 04:56";
shapes = (
{
closed = 1;
nodes = (
(364,-24,l),
(713,720,l),
(555,720,l),
(387,335,ls),
(373,303,o),
(365,285,o),
(360,270,c),
(352,270,l),
(347,285,o),
(340,302,o),
(325,335,cs),
(158,720,l),
(1,720,l),
(348,-24,l)
);
}
);
width = 714;
},
{
anchors = (
{
name = bottom;
pos = (338,0);
},
{
name = ogonek;
pos = (417,0);
},
{
name = top;
pos = (338,720);
}
);
background = {
shapes = (
{
closed = 1;
nodes = (
(400,0,l),
(685,720,l),
(528,720,l),
(467,549,l),
(453,507,l),
(364,262,ls),
(347,217,o),
(334,168,o),
(328,122,c),
(350,122,l),
(343,168,o),
(329,216,o),
(313,262,cs),
(223,507,l),
(210,549,l),
(148,720,l),
(-8,720,l),
(276,0,l)
);
}
);
};
hints = (
{
horizontal = 1;
origin = (0,13);
target = up;
type = BottomGhost;
},
{
horizontal = 1;
origin = (0,12);
target = down;
type = TopGhost;
}
);
layerId = "1B5AC656-48C3-4864-953F-2CD31E7BA751";
shapes = (
{
closed = 1;
nodes = (
(409,0,l),
(692,720,l),
(528,720,l),
(364,262,ls),
(347,217,o),
(336,168,o),
(330,122,c),
(347,122,l),
(341,168,o),
(329,216,o),
(313,262,cs),
(148,720,l),
(-18,720,l),
(268,0,l)
);
}
);
width = 674;
},
{
anchors = (
{
name = bottom;
pos = (327,0);
},
{
name = ogonek;
pos = (406,0);
},
{
name = top;
pos = (327,720);
}
);
associatedMasterId = "1B5AC656-48C3-4864-953F-2CD31E7BA751";
attr = {
coordinates = (
32,
0,
700,
720,
100
);
};
background = {
shapes = (
{
closed = 1;
nodes = (
(-304,700,l),
(-19,1420,l),
(-183,1420,l),
(-347,962,ls),
(-364,917,o),
(-375,868,o),
(-381,822,c),
(-364,822,l),
(-370,868,o),
(-382,916,o),
(-398,962,cs),
(-563,1420,l),
(-729,1420,l),
(-443,700,l)
);
},
{
closed = 1;
nodes = (
(525,720,l),
(454,565,l),
(441,525,l),
(343,313,ls),
(329,281,o),
(317,258,o),
(312,230,c),
(333,230,l),
(327,258,o),
(317,281,o),
(303,313,cs),
(207,525,l),
(194,565,l),
(122,720,l),
(-32,720,l),
(323,-12,l),
(323,-12,l),
(680,720,l)
);
},
{
closed = 1;
nodes = (
(136,596,l),
(136,466,l),
(525,466,l),
(525,596,l)
);
}
);
};
hints = (
{
horizontal = 1;
origin = (0,13);
target = up;
type = BottomGhost;
},
{
horizontal = 1;
origin = (0,12);
target = down;
type = TopGhost;
}
);
layerId = "489C4815-64AB-4EE2-A443-0FD2AFF5EB49";
name = "Apr 7, 26 at 04:56";
shapes = (
{
closed = 1;
nodes = (
(325,-12,l),
(682,720,l),
(527,720,l),
(345,313,ls),
(331,281,o),
(319,258,o),
(314,230,c),
(335,230,l),
(329,258,o),
(319,281,o),
(305,313,cs),
(124,720,l),
(-30,720,l),
(325,-12,l)
);
}
);
width = 652;
},
{
anchors = (
{
name = bottom;
pos = (327,0);
},
{
name = ogonek;
pos = (375,0);
},
{
name = top;
pos = (327,720);
}
);
hints = (
{
horizontal = 1;
origin = (0,13);
target = up;
type = BottomGhost;
},
{
horizontal = 1;
origin = (0,12);
target = down;
type = TopGhost;
},
{
horizontal = 1;
origin = (0,13);
target = (0,7);
type = Stem;
}
);
layerId = "F32A93D6-BEB9-4F11-B510-2860D42C0CD2";
shapes = (
{
closed = 1;
nodes = (
(355,3,l),
(665,720,l),
(557,720,l),
(355,215,ls),
(331,152,o),
(325,120,o),
(314,74,c),
(335,74,l),
(326,119,o),
(319,155,o),
(296,215,cs),
(92,720,l),
(-15,720,l),
(295,3,l)
);
}
);
width = 651;
},
{
anchors = (
{
name = bottom;
pos = (309,0);
},
{
name = ogonek;
pos = (357,0);
},
{
name = top;
pos = (309,720);
}
);
associatedMasterId = "F32A93D6-BEB9-4F11-B510-2860D42C0CD2";
attr = {
coordinates = (
32,
0,
400,
720,
100
);
};
background = {
shapes = (
{
closed = 1;
nodes = (
(561,720,l),
(474,543,l),
(463,510,l),
(332,221,ls),
(312,176,o),
(303,157,o),
(295,115,c),
(320,115,l),
(312,157,o),
(303,176,o),
(283,221,cs),
(152,510,l),
(142,543,l),
(53,720,l),
(-37,720,l),
(308,-12,l),
(308,-12,l),
(651,720,l)
);
},
{
closed = 1;
nodes = (
(111,561,l),
(111,487,l),
(508,487,l),
(508,561,l)
);
}
);
};
hints = (
{
horizontal = 1;
place = (3,21);
target = up;
type = BottomGhost;
},
{
horizontal = 1;
place = (720,-20);
target = down;
type = TopGhost;
},
{
horizontal = 1;
place = (3,71);
type = Stem;
}
);
layerId = "A762B1B6-BC93-4079-ABC8-2955B2C56454";
name = "Apr 30, 26 at 23:50";
shapes = (
{
closed = 1;
nodes = (
(310,-12,l),
(651,720,l),
(561,720,l),
(334,221,ls),
(314,176,o),
(306,157,o),
(298,115,c),
(321,115,l),
(313,157,o),
(304,176,o),
(283,221,cs),
(53,720,l),
(-37,720,l),
(310,-12,l)
);
}
);
width = 614;
}
);
metricLeft = "=A+2";
metricRight = "=A+2";
unicode = 86;
},
{
glyphname = W;
kernLeft = W;
kernRight = W;
lastChange = "2026-05-22 21:13:15 +0000";
layers = (
{
anchors = (
{
name = bottom;
pos = (571,0);
},
{
name = top;
pos = (571,720);
}
);
hints = (
{
horizontal = 1;
origin = (0,33);
target = up;
type = BottomGhost;
},
{
horizontal = 1;
origin = (0,32);
target = down;
type = TopGhost;
},
{
horizontal = 1;
origin = (0,33);
target = (0,27);
type = Stem;
}
);
layerId = m006;
shapes = (
{
closed = 1;
nodes = (
(395,0,l),
(541,407,ls),
(560,461,o),
(563,489,o),
(568,515,c),
(572,515,l),
(576,489,o),
(581,462,o),
(600,407,cs),
(747,0,l),
(877,0,l),
(1118,720,l),
(953,720,l),
(837,313,ls),
(820,258,o),
(816,231,o),
(811,204,c),
(806,204,l),
(801,231,o),
(798,258,o),
(779,313,cs),
(636,720,l),
(506,720,l),
(364,313,ls),
(346,258,o),
(341,231,o),
(336,204,c),
(332,204,l),
(326,231,o),
(320,256,o),
(305,313,cs),
(189,720,l),
(25,720,l),
(266,0,l)
);
}
);
width = 1143;
},
{
anchors = (
{
name = bottom;
pos = (538,0);
},
{
name = top;
pos = (538,720);
}
);
hints = (
{
horizontal = 1;
origin = (0,33);
target = (0,26);
type = Stem;
},
{
horizontal = 1;
origin = (0,32);
target = (0,5);
type = Stem;
}
);
layerId = "0B84D982-BA46-4CB9-89EB-4BEFB54BBE92";
shapes = (
{
closed = 1;
nodes = (
(347,0,l),
(508,496,ls),
(526,549,o),
(530,573,o),
(535,601,c),
(540,601,l),
(545,573,o),
(548,550,o),
(566,496,cs),
(726,0,l),
(813,0,l),
(1047,720,l),
(949,720,l),
(797,226,ls),
(780,172,o),
(776,145,o),
(771,118,c),
(767,118,l),
(762,145,o),
(759,171,o),
(740,226,cs),
(586,720,l),
(496,720,l),
(335,226,ls),
(316,172,o),
(313,145,o),
(308,118,c),
(304,118,l),
(299,145,o),
(294,170,o),
(277,226,cs),
(131,720,l),
(29,720,l),
(259,0,l)
);
}
);
width = 1076;
},
{
anchors = (
{
name = bottom;
pos = (538,0);
},
{
name = top;
pos = (544,720);
}
);
background = {
shapes = (
{
closed = 0;
nodes = (
(328,1085,ls),
(311,1039,o),
(300,990,o),
(294,945,c),
(311,945,l),
(305,990,o),
(293,1038,o),
(277,1085,cs)
);
},
{
closed = 0;
nodes = (
(818,1085,l),
(802,1039,o),
(791,990,o),
(784,945,c),
(802,945,l),
(796,990,o),
(783,1038,o),
(767,1085,c)
);
},
{
closed = 0;
nodes = (
(523,1295,l),
(540,1341,o),
(551,1390,o),
(557,1435,c),
(540,1435,l),
(546,1390,o),
(558,1342,o),
(575,1295,c)
);
},
{
closed = 1;
nodes = (
(505,1283,ls),
(517,1328,o),
(529,1378,o),
(536,1423,c),
(530,1423,l),
(537,1378,o),
(549,1329,o),
(561,1283,cs),
(682,822,l),
(871,822,l),
(1083,1542,l),
(920,1542,l),
(804,1081,ls),
(793,1036,o),
(780,987,o),
(775,942,c),
(779,942,l),
(774,987,o),
(760,1035,o),
(747,1081,cs),
(628,1542,l),
(435,1542,l),
(315,1081,ls),
(303,1036,o),
(289,987,o),
(284,942,c),
(288,942,l),
(283,987,o),
(271,1035,o),
(260,1081,cs),
(143,1542,l),
(-22,1542,l),
(193,822,l),
(380,822,l)
);
},
{
closed = 0;
nodes = (
(-12,740,l),
(269,-120,l)
);
},
{
closed = 0;
nodes = (
(1089,740,l),
(807,-120,l)
);
},
{
closed = 0;
nodes = (
(151,740,l),
(395,-120,l)
);
},
{
closed = 1;
nodes = (
(1811,0,l),
(2096,720,l),
(1933,720,l),
(1768,262,ls),
(1752,217,o),
(1740,168,o),
(1734,122,c),
(1752,122,l),
(1746,168,o),
(1733,216,o),
(1717,262,cs),
(1552,720,l),
(1386,720,l),
(1673,0,l)
);
},
{
closed = 0;
nodes = (
(538,764,l),
(538,-206,l)
);
},
{
closed = 0;
nodes = (
(301,764,l),
(300,-206,l)
);
},
{
closed = 0;
nodes = (
(778,764,l),
(777,-206,l)
);
}
);
};
layerId = "1B5AC656-48C3-4864-953F-2CD31E7BA751";
shapes = (
{
closed = 1;
nodes = (
(362,0,l),
(508,406,ls),
(524,451,o),
(535,501,o),
(541,546,c),
(535,546,l),
(540,501,o),
(551,451,o),
(567,406,cs),
(713,0,l),
(843,0,l),
(1083,720,l),
(919,720,l),
(804,313,ls),
(791,266,o),
(780,218,o),
(775,173,c),
(779,173,l),
(774,218,o),
(762,267,o),
(745,313,cs),
(602,720,l),
(473,720,l),
(330,313,ls),
(314,267,o),
(303,218,o),
(298,173,c),
(302,173,l),
(297,218,o),
(285,266,o),
(271,313,cs),
(156,720,l),
(-8,720,l),
(232,0,l)
);
}
);
width = 1075;
},
{
anchors = (
{
name = bottom;
pos = (557,0);
},
{
name = top;
pos = (557,720);
}
);
associatedMasterId = m006;
attr = {
coordinates = (
10,
0,
700,
720,
100
);
};
background = {
shapes = (
{
closed = 1;
nodes = (
(381,0,l),
(527,407,ls),
(546,461,o),
(549,489,o),
(554,515,c),
(558,515,l),
(562,489,o),
(567,462,o),
(586,407,cs),
(733,0,l),
(863,0,l),
(1104,720,l),
(939,720,l),
(823,313,ls),
(806,258,o),
(802,231,o),
(797,204,c),
(792,204,l),
(787,231,o),
(784,258,o),
(765,313,cs),
(622,720,l),
(492,720,l),
(350,313,ls),
(332,258,o),
(327,231,o),
(322,204,c),
(318,204,l),
(312,231,o),
(306,256,o),
(291,313,cs),
(175,720,l),
(11,720,l),
(252,0,l)
);
}
);
};
hints = (
{
horizontal = 1;
place = (0,21);
target = up;
type = BottomGhost;
},
{
horizontal = 1;
place = (720,-20);
target = down;
type = TopGhost;
},
{
horizontal = 1;
place = (0,204);
type = Stem;
}
);
layerId = "58EDDB24-6737-43B2-A5DD-936CB6624316";
name = "Apr 7, 26 at 01:52";
shapes = (
{
closed = 1;
nodes = (
(325,-24,l),
(527,397,ls),
(544,433,o),
(549,442,o),
(554,458,c),
(558,458,l),
(562,442,o),
(568,434,o),
(586,397,cs),
(790,-24,l),
(806,-24,l),
(1104,720,l),
(939,720,l),
(816,373,ls),
(797,319,o),
(796,299,o),
(790,279,c),
(785,279,l),
(779,299,o),
(772,319,o),
(745,373,cs),
(565,733,l),
(549,733,l),
(372,373,ls),
(346,320,o),
(335,299,o),
(329,279,c),
(325,279,l),
(319,299,o),
(318,318,o),
(298,373,cs),
(175,720,l),
(11,720,l),
(309,-24,l)
);
}
);
width = 1115;
},
{
anchors = (
{
name = bottom;
pos = (512,0);
},
{
name = top;
pos = (512,720);
}
);
associatedMasterId = "0B84D982-BA46-4CB9-89EB-4BEFB54BBE92";
attr = {
coordinates = (
10,
0,
400,
720,
100
);
};
hints = (
{
horizontal = 1;
origin = (0,33);
target = (0,26);
type = Stem;
},
{
horizontal = 1;
origin = (0,32);
target = (0,5);
type = Stem;
}
);
layerId = "C4ABDCA6-3047-48C6-B68E-A170EA31337A";
name = "Apr 7, 26 at 03:20";
shapes = (
{
closed = 1;
nodes = (
(286,-24,l),
(492,457,ls),
(507,492,o),
(509,497,o),
(513,513,c),
(517,513,l),
(521,497,o),
(522,493,o),
(537,457,cs),
(735,-24,l),
(751,-24,l),
(1021,720,l),
(923,720,l),
(778,286,ls),
(760,233,o),
(755,213,o),
(749,193,c),
(745,193,l),
(739,213,o),
(732,229,o),
(708,286,cs),
(524,733,l),
(508,733,l),
(324,286,ls),
(301,231,o),
(298,213,o),
(292,193,c),
(288,193,l),
(283,213,o),
(281,231,o),
(261,286,cs),
(105,720,l),
(3,720,l),
(270,-24,l)
);
}
);
width = 1024;
},
{
anchors = (
{
name = bottom;
pos = (526,0);
},
{
name = top;
pos = (526,720);
}
);
associatedMasterId = "1B5AC656-48C3-4864-953F-2CD31E7BA751";
attr = {
coordinates = (
32,
0,
700,
720,
100
);
};
background = {
shapes = (
{
closed = 0;
nodes = (
(316,1085,ls),
(299,1039,o),
(288,990,o),
(282,945,c),
(299,945,l),
(293,990,o),
(281,1038,o),
(265,1085,cs)
);
},
{
closed = 0;
nodes = (
(806,1085,l),
(790,1039,o),
(779,990,o),
(772,945,c),
(790,945,l),
(784,990,o),
(771,1038,o),
(755,1085,c)
);
},
{
closed = 0;
nodes = (
(511,1295,l),
(528,1341,o),
(539,1390,o),
(545,1435,c),
(528,1435,l),
(534,1390,o),
(546,1342,o),
(563,1295,c)
);
},
{
closed = 1;
nodes = (
(493,1283,ls),
(505,1328,o),
(517,1378,o),
(524,1423,c),
(518,1423,l),
(525,1378,o),
(537,1329,o),
(549,1283,cs),
(670,822,l),
(859,822,l),
(1071,1542,l),
(908,1542,l),
(792,1081,ls),
(781,1036,o),
(768,987,o),
(763,942,c),
(767,942,l),
(762,987,o),
(748,1035,o),
(735,1081,cs),
(616,1542,l),
(423,1542,l),
(303,1081,ls),
(291,1036,o),
(277,987,o),
(272,942,c),
(276,942,l),
(271,987,o),
(259,1035,o),
(248,1081,cs),
(131,1542,l),
(-34,1542,l),
(181,822,l),
(368,822,l)
);
},
{
closed = 0;
nodes = (
(-24,740,l),
(257,-120,l)
);
},
{
closed = 0;
nodes = (
(1077,740,l),
(795,-120,l)
);
},
{
closed = 0;
nodes = (
(139,740,l),
(383,-120,l)
);
},
{
closed = 1;
nodes = (
(1799,0,l),
(2084,720,l),
(1921,720,l),
(1756,262,ls),
(1740,217,o),
(1728,168,o),
(1722,122,c),
(1740,122,l),
(1734,168,o),
(1721,216,o),
(1705,262,cs),
(1540,720,l),
(1374,720,l),
(1661,0,l)
);
},
{
closed = 0;
nodes = (
(526,764,l),
(526,-206,l)
);
},
{
closed = 0;
nodes = (
(289,764,l),
(288,-206,l)
);
},
{
closed = 0;
nodes = (
(766,764,l),
(765,-206,l)
);
}
);
};
hints = (
{
horizontal = 1;
origin = (0,33);
target = (0,26);
type = Stem;
},
{
horizontal = 1;
origin = (0,32);
target = (0,5);
type = Stem;
}
);
layerId = "135F70F3-67B5-4277-8F60-6006B6345AF7";
name = "{32, 700, 0, 720, 100} Apr 7, 26 at 03:31";
shapes = (
{
closed = 1;
nodes = (
(286,-10,l),
(496,396,ls),
(510,423,o),
(521,442,o),
(529,463,c),
(523,463,l),
(532,442,o),
(541,423,o),
(555,396,cs),
(766,-10,l),
(766,-10,l),
(1071,720,l),
(907,720,l),
(779,373,ls),
(765,335,o),
(752,310,o),
(745,285,c),
(746,285,l),
(735,310,o),
(725,335,o),
(705,373,cs),
(526,720,l),
(526,720,l),
(346,373,ls),
(326,335,o),
(316,310,o),
(305,285,c),
(306,285,l),
(299,310,o),
(286,335,o),
(272,373,cs),
(144,720,l),
(-20,720,l),
(286,-10,l)
);
}
);
width = 1051;
},
{
anchors = (
{
name = bottom;
pos = (504,0);
},
{
name = top;
pos = (509,720);
}
);
hints = (
{
horizontal = 1;
origin = (0,33);
target = (0,26);
type = Stem;
},
{
horizontal = 1;
origin = (0,32);
target = (0,5);
type = Stem;
}
);
layerId = "F32A93D6-BEB9-4F11-B510-2860D42C0CD2";
shapes = (
{
closed = 1;
nodes = (
(309,3,l),
(473,502,ls),
(488,546,o),
(500,589,o),
(507,633,c),
(502,633,l),
(509,589,o),
(518,546,o),
(533,502,cs),
(696,3,l),
(774,3,l),
(1011,720,l),
(914,720,l),
(760,226,ls),
(747,181,o),
(736,137,o),
(731,96,c),
(735,96,l),
(729,138,o),
(719,182,o),
(703,226,cs),
(547,717,l),
(467,717,l),
(302,226,ls),
(285,182,o),
(277,138,o),
(271,96,c),
(274,96,l),
(269,139,o),
(258,181,o),
(243,226,cs),
(97,720,l),
(-5,720,l),
(229,3,l)
);
}
);
width = 1007;
},
{
anchors = (
{
name = bottom;
pos = (480,0);
},
{
name = top;
pos = (485,720);
}
);
associatedMasterId = "F32A93D6-BEB9-4F11-B510-2860D42C0CD2";
attr = {
coordinates = (
32,
0,
400,
720,
100
);
};
hints = (
{
horizontal = 1;
origin = (0,0);
target = up;
type = BottomGhost;
},
{
horizontal = 1;
origin = (0,32);
target = down;
type = TopGhost;
}
);
layerId = "60C0E6BA-9897-4AF7-A7DB-403571B1C277";
name = "Apr 30, 26 at 23:55";
shapes = (
{
closed = 1;
nodes = (
(248,-12,l),
(459,465,ls),
(470,490,o),
(476,504,o),
(486,528,c),
(479,528,l),
(487,504,o),
(492,491,o),
(503,465,cs),
(712,-12,l),
(712,-12,l),
(989,720,l),
(891,720,l),
(739,290,ls),
(726,252,o),
(715,230,o),
(708,203,c),
(710,203,l),
(699,231,o),
(693,248,o),
(675,290,cs),
(485,720,l),
(485,720,l),
(292,294,ls),
(273,253,o),
(266,237,o),
(257,209,c),
(258,209,l),
(250,237,o),
(243,255,o),
(229,294,cs),
(72,720,l),
(-27,720,l),
(248,-12,l)
);
}
);
width = 962;
}
);
metricLeft = "=V+10";
metricRight = "=V+10";
unicode = 87;
},
{
glyphname = X;
lastChange = "2026-05-22 21:13:15 +0000";
layers = (
{
anchors = (
{
name = bottom;
pos = (347,0);
},
{
name = top;
pos = (347,720);
}
);
background = {
shapes = (
{
closed = 1;
nodes = (
(161,0,l),
(313,236,l),
(309,236,l),
(457,0,l),
(625,0,l),
(361,401,l),
(375,314,l),
(614,699,l),
(452,699,l),
(309,466,l),
(312,466,l),
(173,699,l),
(6,699,l),
(248,314,l),
(258,401,l),
(-5,0,l)
);
}
);
};
hints = (
{
horizontal = 1;
origin = (0,13);
target = up;
type = BottomGhost;
},
{
horizontal = 1;
origin = (0,11);
target = down;
type = TopGhost;
}
);
layerId = m006;
shapes = (
{
closed = 1;
nodes = (
(195,0,l),
(347,242,l),
(351,242,l),
(499,0,l),
(673,0,l),
(437,358,l),
(661,720,l),
(494,720,l),
(351,479,l),
(347,479,l),
(207,720,l),
(35,720,l),
(261,362,l),
(24,0,l)
);
}
);
width = 693;
},
{
anchors = (
{
name = bottom;
pos = (339,0);
},
{
name = top;
pos = (339,720);
}
);
hints = (
{
horizontal = 1;
origin = (0,13);
target = up;
type = BottomGhost;
},
{
horizontal = 1;
origin = (0,11);
target = down;
type = TopGhost;
}
);
layerId = "0B84D982-BA46-4CB9-89EB-4BEFB54BBE92";
shapes = (
{
closed = 1;
nodes = (
(138,0,l),
(339,289,l),
(343,289,l),
(538,0,l),
(651,0,l),
(397,358,l),
(639,720,l),
(532,720,l),
(343,431,l),
(339,431,l),
(150,720,l),
(39,720,l),
(283,362,l),
(28,0,l)
);
}
);
width = 675;
},
{
anchors = (
{
name = bottom;
pos = (317,0);
},
{
name = top;
pos = (314,720);
}
);
layerId = "1B5AC656-48C3-4864-953F-2CD31E7BA751";
shapes = (
{
closed = 1;
nodes = (
(160,0,l),
(317,243,l),
(313,243,l),
(465,0,l),
(638,0,l),
(402,360,l),
(627,720,l),
(460,720,l),
(313,479,l),
(316,479,l),
(173,720,l),
(1,720,l),
(227,360,l),
(-10,0,l)
);
}
);
width = 625;
},
{
anchors = (
{
name = bottom;
pos = (307,0);
},
{
name = top;
pos = (304,720);
}
);
hints = (
{
horizontal = 1;
origin = (0,13);
target = up;
type = BottomGhost;
},
{
horizontal = 1;
origin = (0,11);
target = down;
type = TopGhost;
}
);
layerId = "F32A93D6-BEB9-4F11-B510-2860D42C0CD2";
shapes = (
{
closed = 1;
nodes = (
(101,0,l),
(307,290,l),
(303,290,l),
(502,0,l),
(614,0,l),
(360,360,l),
(603,720,l),
(496,720,l),
(303,431,l),
(306,431,l),
(114,720,l),
(3,720,l),
(247,360,l),
(-8,0,l)
);
}
);
width = 603;
}
);
unicode = 88;
},
{
glyphname = Y;
kernLeft = Y;
kernRight = Y;
lastChange = "2026-05-22 21:13:15 +0000";
layers = (
{
anchors = (
{
name = bottom;
pos = (324,0);
},
{
name = top;
pos = (324,720);
},
{
name = topleft;
pos = (23,720);
}
);
background = {
shapes = (
{
closed = 1;
nodes = (
(355,0,l),
(355,278,l),
(591,699,l),
(439,699,l),
(334,499,ls),
(315,463,o),
(295,424,o),
(287,397,c),
(292,397,l),
(284,424,o),
(261,464,o),
(242,499,cs),
(132,699,l),
(-22,699,l),
(215,281,l),
(215,0,l)
);
}
);
};
hints = (
{
horizontal = 1;
origin = (0,15);
target = up;
type = BottomGhost;
},
{
horizontal = 1;
origin = (0,13);
target = down;
type = TopGhost;
},
{
origin = (0,15);
target = (0,4);
type = Stem;
}
);
layerId = m006;
shapes = (
{
closed = 1;
nodes = (
(394,0,l),
(394,286,l),
(638,720,l),
(481,720,l),
(394,554,ls),
(351,474,o),
(333,419,o),
(329,407,c),
(325,407,l),
(322,419,o),
(303,469,o),
(256,553,cs),
(165,720,l),
(6,720,l),
(250,289,l),
(250,0,l)
);
}
);
width = 644;
},
{
anchors = (
{
name = bottom;
pos = (295,0);
},
{
name = top;
pos = (296,720);
},
{
name = topleft;
pos = (25,720);
}
);
hints = (
{
horizontal = 1;
origin = (0,15);
target = up;
type = BottomGhost;
},
{
horizontal = 1;
origin = (0,13);
target = down;
type = TopGhost;
},
{
origin = (0,15);
target = (0,0);
type = Stem;
}
);
layerId = "0B84D982-BA46-4CB9-89EB-4BEFB54BBE92";
shapes = (
{
closed = 1;
nodes = (
(340,0,l),
(340,297,l),
(578,720,l),
(476,720,l),
(364,510,ls),
(321,428,o),
(303,380,o),
(299,368,c),
(295,368,l),
(292,380,o),
(271,425,o),
(225,509,cs),
(113,720,l),
(10,720,l),
(251,298,l),
(251,0,l)
);
}
);
width = 588;
},
{
anchors = (
{
name = bottom;
pos = (294,0);
},
{
name = top;
pos = (293,720);
},
{
name = topleft;
pos = (-6,720);
}
);
hints = (
{
origin = (0,15);
target = (0,0);
type = Stem;
}
);
layerId = "1B5AC656-48C3-4864-953F-2CD31E7BA751";
shapes = (
{
closed = 1;
nodes = (
(363,0,l),
(363,287,l),
(606,720,l),
(449,720,l),
(341,513,ls),
(322,476,o),
(301,436,o),
(293,398,c),
(298,398,l),
(290,436,o),
(266,477,o),
(247,513,cs),
(134,720,l),
(-25,720,l),
(219,288,l),
(219,0,l)
);
}
);
width = 582;
},
{
anchors = (
{
name = bottom;
pos = (263,0);
},
{
name = top;
pos = (263,720);
},
{
name = topleft;
pos = (-6,720);
}
);
hints = (
{
horizontal = 1;
origin = (0,15);
target = up;
type = BottomGhost;
},
{
horizontal = 1;
origin = (0,13);
target = down;
type = TopGhost;
},
{
origin = (0,15);
target = (0,0);
type = Stem;
}
);
layerId = "F32A93D6-BEB9-4F11-B510-2860D42C0CD2";
shapes = (
{
closed = 1;
nodes = (
(307,0,l),
(307,298,l),
(544,720,l),
(442,720,l),
(309,469,ls),
(290,430,o),
(269,397,o),
(261,359,c),
(266,359,l),
(258,397,o),
(232,433,o),
(214,469,cs),
(80,720,l),
(-23,720,l),
(218,297,l),
(218,0,l)
);
}
);
width = 522;
}
);
unicode = 89;
},
{
glyphname = Z;
kernLeft = Z;
kernRight = Z;
lastChange = "2026-05-22 21:13:15 +0000";
layers = (
{
anchors = (
{
name = bottom;
pos = (335,0);
},
{
name = center;
pos = (335,361);
},
{
name = top;
pos = (335,720);
}
);
background = {
shapes = (
{
closed = 1;
nodes = (
(616,0,l),
(616,82,l),
(185,82,l),
(185,85,l),
(199,96,o),
(212,110,o),
(239,148,cs),
(616,705,l),
(616,720,l),
(68,720,l),
(68,638,l),
(473,638,l),
(473,635,l),
(458,624,o),
(446,610,o),
(421,573,cs),
(48,15,l),
(48,0,l)
);
}
);
};
hints = (
{
horizontal = 1;
origin = (0,17);
target = (0,2);
type = Stem;
},
{
horizontal = 1;
origin = (0,9);
target = (0,11);
type = Stem;
}
);
layerId = "0B84D982-BA46-4CB9-89EB-4BEFB54BBE92";
shapes = (
{
closed = 1;
nodes = (
(616,0,l),
(616,82,l),
(161,82,l),
(161,85,l),
(172,96,o),
(198,120,o),
(220,148,cs),
(613,635,l),
(613,720,l),
(68,720,l),
(68,638,l),
(514,638,l),
(514,635,l),
(501,624,o),
(477,601,o),
(455,573,cs),
(59,83,l),
(59,0,l)
);
}
);
width = 668;
},
{
anchors = (
{
name = bottom;
pos = (339,0);
},
{
name = center;
pos = (339,361);
},
{
name = top;
pos = (339,720);
}
);
associatedMasterId = "0B84D982-BA46-4CB9-89EB-4BEFB54BBE92";
attr = {
coordinates = (
10,
0,
400,
720,
100
);
};
hints = (
{
horizontal = 1;
origin = (0,17);
target = (0,2);
type = Stem;
},
{
horizontal = 1;
origin = (0,9);
target = (0,11);
type = Stem;
}
);
layerId = "389E5549-AACE-4691-A8E3-48AAC8C48B33";
name = "Apr 5, 26 at 00:52";
shapes = (
{
closed = 1;
nodes = (
(620,0,l),
(620,82,l),
(189,82,l),
(189,85,l),
(203,96,o),
(216,110,o),
(243,148,cs),
(620,705,l),
(620,720,l),
(72,720,l),
(72,638,l),
(477,638,l),
(477,635,l),
(462,624,o),
(450,610,o),
(425,573,cs),
(52,15,l),
(52,0,l)
);
}
);
width = 676;
},
{
anchors = (
{
name = bottom;
pos = (337,0);
},
{
name = center;
pos = (337,361);
},
{
name = top;
pos = (337,720);
}
);
background = {
shapes = (
{
closed = 1;
nodes = (
(626,0,l),
(626,137,l),
(281,137,l),
(281,139,l),
(295,153,o),
(307,169,o),
(317,186,cs),
(626,705,l),
(626,720,l),
(66,720,l),
(66,581,l),
(391,581,l),
(391,579,l),
(379,568,o),
(370,554,o),
(359,538,cs),
(46,15,l),
(46,0,l)
);
}
);
};
hints = (
{
horizontal = 1;
origin = (0,17);
target = (0,2);
type = Stem;
},
{
horizontal = 1;
origin = (0,9);
target = (0,11);
type = Stem;
}
);
layerId = m006;
shapes = (
{
closed = 1;
nodes = (
(624,0,l),
(624,139,l),
(236,139,l),
(236,142,l),
(249,151,o),
(271,173,o),
(280,185,cs),
(611,593,l),
(611,720,l),
(64,720,l),
(64,581,l),
(435,581,l),
(435,578,l),
(422,570,o),
(412,561,o),
(402,549,cs),
(66,126,l),
(66,0,l)
);
}
);
width = 672;
},
{
anchors = (
{
name = bottom;
pos = (341,0);
},
{
name = center;
pos = (341,361);
},
{
name = top;
pos = (341,720);
}
);
associatedMasterId = m006;
attr = {
coordinates = (
10,
0,
700,
720,
100
);
};
background = {
shapes = (
{
closed = 1;
nodes = (
(181,400,l),
(181,522,l),
(-179,522,l),
(-179,501,l),
(-162,518,o),
(-148,536,o),
(-137,554,cs),
(181,1084,l),
(181,1099,l),
(-364,1099,l),
(-364,976,l),
(-23,976,l),
(-23,997,l),
(-40,980,o),
(-54,962,o),
(-65,944,cs),
(-383,415,l),
(-383,400,l)
);
},
{
closed = 1;
nodes = (
(610,0,l),
(610,123,l),
(263,123,l),
(263,125,l),
(280,139,o),
(292,152,o),
(310,181,cs),
(610,684,l),
(610,699,l),
(66,699,l),
(66,576,l),
(395,576,l),
(395,574,l),
(378,560,o),
(366,546,o),
(351,522,cs),
(47,15,l),
(47,0,l)
);
}
);
};
hints = (
{
horizontal = 1;
origin = (0,17);
target = (0,2);
type = Stem;
},
{
horizontal = 1;
origin = (0,9);
target = (0,11);
type = Stem;
}
);
layerId = "1325E06B-2F67-4017-B818-CB79BBDA8AAB";
name = "Apr 5, 26 at 00:52";
shapes = (
{
closed = 1;
nodes = (
(628,0,l),
(628,139,l),
(283,139,l),
(283,141,l),
(297,155,o),
(309,169,o),
(319,186,cs),
(628,705,l),
(628,720,l),
(68,720,l),
(68,581,l),
(393,581,l),
(393,579,l),
(381,568,o),
(372,554,o),
(361,538,cs),
(48,15,l),
(48,0,l)
);
}
);
width = 682;
},
{
anchors = (
{
name = bottom;
pos = (314,0);
},
{
name = center;
pos = (335,361);
},
{
name = top;
pos = (293,720);
}
);
background = {
shapes = (
{
closed = 1;
nodes = (
(135,925,l),
(135,1645,l),
(-9,1645,l),
(-9,925,l)
);
},
{
closed = 1;
nodes = (
(62,1225,l),
(485,1225,l),
(485,1355,l),
(62,1355,l)
);
},
{
closed = 1;
nodes = (
(597,925,l),
(597,1645,l),
(453,1645,l),
(453,925,l)
);
},
{
closed = 1;
nodes = (
(174,948,l),
(546,1564,l),
(424,1638,l),
(50,1022,l)
);
},
{
closed = 1;
nodes = (
(590,0,l),
(590,130,l),
(222,130,l),
(222,108,l),
(240,125,o),
(254,144,o),
(265,162,cs),
(590,704,l),
(590,720,l),
(30,720,l),
(30,590,l),
(378,590,l),
(378,612,l),
(361,594,o),
(346,576,o),
(335,557,cs),
(10,15,l),
(10,0,l)
);
}
);
};
hints = (
{
horizontal = 1;
origin = (0,17);
target = (0,2);
type = Stem;
},
{
horizontal = 1;
origin = (0,9);
target = (0,11);
type = Stem;
}
);
layerId = "1B5AC656-48C3-4864-953F-2CD31E7BA751";
shapes = (
{
closed = 1;
nodes = (
(590,0,l),
(590,139,l),
(188,139,l),
(194,105,l),
(206,122,o),
(220,137,o),
(233,153,cs),
(577,593,l),
(577,720,l),
(30,720,l),
(30,581,l),
(419,581,l),
(413,615,l),
(401,597,o),
(387,580,o),
(374,563,cs),
(32,126,l),
(32,0,l)
);
}
);
width = 604;
},
{
anchors = (
{
name = bottom;
pos = (322,0);
},
{
name = center;
pos = (343,361);
},
{
name = top;
pos = (301,720);
}
);
associatedMasterId = "1B5AC656-48C3-4864-953F-2CD31E7BA751";
attr = {
coordinates = (
32,
0,
700,
720,
100
);
};
background = {
shapes = (
{
closed = 1;
nodes = (
(143,925,l),
(143,1645,l),
(-1,1645,l),
(-1,925,l)
);
},
{
closed = 1;
nodes = (
(70,1225,l),
(493,1225,l),
(493,1355,l),
(70,1355,l)
);
},
{
closed = 1;
nodes = (
(605,925,l),
(605,1645,l),
(461,1645,l),
(461,925,l)
);
},
{
closed = 1;
nodes = (
(182,948,l),
(554,1564,l),
(432,1638,l),
(58,1022,l)
);
},
{
closed = 1;
nodes = (
(598,0,l),
(598,130,l),
(230,130,l),
(230,108,l),
(248,125,o),
(262,144,o),
(273,162,cs),
(598,704,l),
(598,720,l),
(38,720,l),
(38,590,l),
(386,590,l),
(386,612,l),
(369,594,o),
(354,576,o),
(343,557,cs),
(18,15,l),
(18,0,l)
);
}
);
};
hints = (
{
horizontal = 1;
origin = (0,17);
target = (0,2);
type = Stem;
},
{
horizontal = 1;
origin = (0,9);
target = (0,11);
type = Stem;
}
);
layerId = "CEC66E90-47F3-40E4-BF4E-9074419E2657";
name = "{32, 700, 0, 720, 100} Apr 5, 26 at 01:25";
shapes = (
{
closed = 1;
nodes = (
(598,0,l),
(598,139,l),
(238,139,l),
(256,98,l),
(267,122,o),
(276,141,o),
(286,159,cs),
(608,720,l),
(608,720,l),
(38,720,l),
(38,581,l),
(388,581,l),
(370,622,l),
(359,597,o),
(348,578,o),
(338,560,cs),
(18,0,l),
(18,0,l)
);
}
);
width = 620;
},
{
anchors = (
{
name = bottom;
pos = (310,0);
},
{
name = center;
pos = (331,361);
},
{
name = top;
pos = (289,720);
}
);
hints = (
{
horizontal = 1;
origin = (0,17);
target = (0,2);
type = Stem;
},
{
horizontal = 1;
origin = (0,9);
target = (0,11);
type = Stem;
}
);
layerId = "F32A93D6-BEB9-4F11-B510-2860D42C0CD2";
name = "Apr 5, 26 at 00:52";
shapes = (
{
closed = 1;
nodes = (
(580,0,l),
(580,82,l),
(103,82,l),
(110,48,l),
(121,67,o),
(138,82,o),
(165,116,cs),
(576,632,l),
(576,720,l),
(32,720,l),
(32,638,l),
(500,638,l),
(493,673,l),
(481,653,o),
(452,621,o),
(426,588,cs),
(24,87,l),
(24,0,l)
);
}
);
width = 596;
},
{
anchors = (
{
name = bottom;
pos = (318,0);
},
{
name = center;
pos = (319,361);
},
{
name = top;
pos = (297,720);
}
);
associatedMasterId = "F32A93D6-BEB9-4F11-B510-2860D42C0CD2";
attr = {
coordinates = (
32,
0,
400,
720,
100
);
};
hints = (
{
horizontal = 1;
origin = (0,17);
target = (0,2);
type = Stem;
},
{
horizontal = 1;
origin = (0,9);
target = (0,11);
type = Stem;
}
);
layerId = "3E36D264-F25C-4A13-830D-FFBBED0AA514";
name = "May 3, 26 at 14:25";
shapes = (
{
closed = 1;
nodes = (
(588,0,l),
(588,83,l),
(140,83,l),
(148,44,l),
(164,65,o),
(173,79,o),
(201,121,cs),
(607,720,l),
(607,720,l),
(40,720,l),
(40,637,l),
(471,637,l),
(470,668,l),
(450,642,o),
(437,626,o),
(409,585,cs),
(11,0,l),
(11,0,l)
);
}
);
width = 612;
}
);
unicode = 90;
},
{
glyphname = Saltillo;
lastChange = "2026-05-22 21:13:15 +0000";
layers = (
{
hints = (
{
horizontal = 1;
origin = (0,3);
target = down;
type = TopGhost;
},
{
origin = (0,2);
target = (0,4);
type = Stem;
}
);
layerId = m006;
shapes = (
{
closed = 1;
nodes = (
(201,199,l),
(224,593,l),
(224,720,l),
(80,720,l),
(80,593,l),
(104,199,l)
);
}
);
width = 305;
},
{
hints = (
{
horizontal = 1;
origin = (0,3);
target = down;
type = TopGhost;
},
{
origin = (0,2);
target = (0,4);
type = Stem;
}
);
layerId = "0B84D982-BA46-4CB9-89EB-4BEFB54BBE92";
shapes = (
{
closed = 1;
nodes = (
(155,199,l),
(179,593,l),
(179,720,l),
(82,720,l),
(82,593,l),
(106,199,l)
);
}
);
width = 261;
},
{
layerId = "1B5AC656-48C3-4864-953F-2CD31E7BA751";
shapes = (
{
closed = 1;
nodes = (
(196,198,l),
(220,593,l),
(220,720,l),
(76,720,l),
(76,593,l),
(100,198,l)
);
}
);
width = 296;
},
{
hints = (
{
horizontal = 1;
origin = (0,3);
target = down;
type = TopGhost;
},
{
origin = (0,2);
target = (0,4);
type = Stem;
}
);
layerId = "F32A93D6-BEB9-4F11-B510-2860D42C0CD2";
shapes = (
{
closed = 1;
nodes = (
(148,198,l),
(173,593,l),
(173,720,l),
(76,720,l),
(76,593,l),
(100,198,l)
);
}
);
width = 248;
}
);
unicode = 42891;
},
{
glyphname = I.rcltA11y;
kernLeft = I.rcltA11y;
kernRight = I.rcltA11y;
lastChange = "2026-05-30 22:05:43 +0000";
layers = (
{
anchors = (
{
name = bottom;
pos = (246,0);
},
{
name = ogonek;
pos = (214,0);
},
{
name = top;
pos = (246,720);
}
);
hints = (
{
horizontal = 1;
origin = (2,2);
target = (2,3);
type = Stem;
}
);
layerId = "0B84D982-BA46-4CB9-89EB-4BEFB54BBE92";
shapes = (
{
pos = (114,10);
ref = I;
scale = (1,0.97);
},
{
closed = 1;
nodes = (
(429,0,l),
(429,78,l),
(62,78,l),
(62,0,l)
);
},
{
closed = 1;
nodes = (
(429,642,l),
(429,720,l),
(62,720,l),
(62,642,l)
);
}
);
width = 491;
},
{
anchors = (
{
name = bottom;
pos = (255,0);
},
{
name = ogonek;
pos = (223,0);
},
{
name = top;
pos = (255,720);
}
);
hints = (
{
horizontal = 1;
origin = (1,3);
target = (1,2);
type = Stem;
},
{
horizontal = 1;
origin = (2,2);
target = (2,3);
type = Stem;
}
);
layerId = m006;
shapes = (
{
pos = (98,10);
ref = I;
scale = (1,0.97);
},
{
closed = 1;
nodes = (
(451,0,l),
(451,131,l),
(54,131,l),
(54,0,l)
);
},
{
closed = 1;
nodes = (
(451,588,l),
(451,720,l),
(54,720,l),
(54,588,l)
);
}
);
width = 505;
},
{
anchors = (
{
name = bottom;
pos = (218,0);
},
{
name = ogonek;
pos = (180,0);
},
{
name = top;
pos = (218,720);
}
);
hints = (
{
horizontal = 1;
place = (0,78);
type = Stem;
},
{
horizontal = 1;
place = (720,78);
type = Stem;
}
);
layerId = "F32A93D6-BEB9-4F11-B510-2860D42C0CD2";
shapes = (
{
pos = (121,10);
ref = I;
scale = (1,0.97);
},
{
closed = 1;
nodes = (
(401,0,l),
(401,78,l),
(35,78,l),
(35,0,l)
);
},
{
closed = 1;
nodes = (
(401,642,l),
(401,720,l),
(35,720,l),
(35,642,l)
);
}
);
width = 436;
},
{
anchors = (
{
name = bottom;
pos = (234,0);
},
{
name = ogonek;
pos = (202,0);
},
{
name = top;
pos = (234,720);
}
);
hints = (
{
horizontal = 1;
origin = (1,3);
target = (1,2);
type = Stem;
},
{
horizontal = 1;
origin = (2,2);
target = (2,3);
type = Stem;
},
{
origin = (2,1);
target = (2,3);
type = Stem;
}
);
layerId = "1B5AC656-48C3-4864-953F-2CD31E7BA751";
shapes = (
{
pos = (108,10);
ref = I;
scale = (1,0.97);
},
{
closed = 1;
nodes = (
(428,0,l),
(428,131,l),
(33,131,l),
(33,0,l)
);
},
{
closed = 1;
nodes = (
(428,588,l),
(428,720,l),
(33,720,l),
(33,588,l)
);
}
);
width = 461;
}
);
},
{
glyphname = IJ.rcltA11y;
kernLeft = I.rcltA11y;
kernRight = U;
lastChange = "2026-05-30 21:38:00 +0000";
layers = (
{
layerId = "0B84D982-BA46-4CB9-89EB-4BEFB54BBE92";
shapes = (
{
ref = I.rcltA11y;
},
{
pos = (410,0);
ref = J;
},
{
closed = 1;
nodes = (
(765,642,l),
(765,720,l),
(508,720,l),
(508,642,l)
);
}
);
width = 871;
},
{
layerId = m006;
shapes = (
{
ref = I.rcltA11y;
},
{
pos = (438,0);
ref = J;
},
{
closed = 1;
nodes = (
(818,588,l),
(818,720,l),
(530,720,l),
(530,588,l)
);
}
);
width = 943;
},
{
layerId = "F32A93D6-BEB9-4F11-B510-2860D42C0CD2";
shapes = (
{
ref = I.rcltA11y;
},
{
pos = (407,0);
ref = J;
},
{
closed = 1;
nodes = (
(694,642,l),
(694,720,l),
(506,720,l),
(506,642,l)
);
}
);
width = 794;
},
{
layerId = "1B5AC656-48C3-4864-953F-2CD31E7BA751";
shapes = (
{
ref = I.rcltA11y;
},
{
pos = (436,0);
ref = J;
},
{
closed = 1;
nodes = (
(780,588,l),
(780,720,l),
(503,720,l),
(503,588,l)
);
}
);
width = 833;
}
);
metricLeft = I.rcltA11y;
metricRight = J;
},
{
glyphname = C.rcltGeo;
kernLeft = O;
kernRight = C.rcltGeo;
lastChange = "2026-05-22 21:13:15 +0000";
layers = (
{
anchors = (
{
name = bottom;
pos = (424,0);
},
{
name = cedilla;
pos = (404,0);
},
{
name = ogonek;
pos = (529,0);
},
{
name = top;
pos = (424,720);
}
);
background = {
shapes = (
{
pos = (4,0);
ref = O;
}
);
};
hints = (
{
horizontal = 1;
origin = (0,25);
target = (0,6);
type = Stem;
},
{
horizontal = 1;
origin = (0,19);
target = (0,12);
type = Stem;
},
{
origin = (0,22);
target = (0,9);
type = Stem;
}
);
layerId = m006;
shapes = (
{
closed = 1;
nodes = (
(477,-13,o),
(525,-5,o),
(573,20,c),
(584,186,l),
(539,149,o),
(486,133,o),
(422,133,cs),
(283,133,o),
(196,228,o),
(196,359,cs),
(196,489,o),
(277,587,o),
(420,587,cs),
(484,587,o),
(539,568,o),
(583,522,c),
(583,692,l),
(542,719,o),
(483,733,o),
(420,733,cs),
(198,733,o),
(46,566,o),
(46,359,cs),
(46,153,o),
(206,-13,o),
(420,-13,cs)
);
}
);
width = 610;
},
{
anchors = (
{
name = bottom;
pos = (418,0);
},
{
name = cedilla;
pos = (418,0);
},
{
name = ogonek;
pos = (523,0);
},
{
name = top;
pos = (418,720);
}
);
hints = (
{
horizontal = 1;
origin = (0,25);
target = (0,6);
type = Stem;
},
{
horizontal = 1;
origin = (0,19);
target = (0,12);
type = Stem;
},
{
origin = (0,22);
target = (0,9);
type = Stem;
}
);
layerId = "0B84D982-BA46-4CB9-89EB-4BEFB54BBE92";
shapes = (
{
closed = 1;
nodes = (
(478,-13,o),
(529,-2,o),
(576,20,c),
(582,124,l),
(540,90,o),
(489,73,o),
(420,73,cs),
(266,73,o),
(142,190,o),
(142,359,cs),
(142,526,o),
(256,647,o),
(417,647,cs),
(481,647,o),
(539,631,o),
(586,589,c),
(586,693,l),
(537,721,o),
(481,733,o),
(417,733,cs),
(207,733,o),
(48,569,o),
(48,359,cs),
(48,149,o),
(209,-13,o),
(417,-13,cs)
);
}
);
width = 614;
},
{
anchors = (
{
name = bottom;
pos = (401,0);
},
{
name = cedilla;
pos = (401,0);
},
{
name = ogonek;
pos = (513,0);
},
{
name = top;
pos = (391,720);
}
);
background = {
shapes = (
{
closed = 1;
nodes = (
(187,-13,o),
(26,153,o),
(26,359,cs),
(26,565,o),
(179,733,o),
(401,733,cs),
(518,733,o),
(599,697,o),
(664,620,c),
(562,531,l),
(519,577,o),
(466,599,o),
(401,599,cs),
(261,599,o),
(175,490,o),
(175,359,cs),
(175,227,o),
(262,119,o),
(404,119,cs),
(474,119,o),
(526,144,o),
(568,190,c),
(673,101,l),
(619,35,o),
(526,-13,o),
(401,-13,cs)
);
},
{
closed = 1;
nodes = (
(185,-13,o),
(26,153,o),
(26,359,cs),
(26,565,o),
(177,733,o),
(399,733,cs),
(456,733,o),
(505,724,o),
(560,695,c),
(560,533,l),
(516,577,o),
(463,599,o),
(399,599,cs),
(254,599,o),
(175,490,o),
(175,359,cs),
(175,227,o),
(262,120,o),
(399,120,cs),
(463,120,o),
(518,129,o),
(563,167,c),
(551,14,l),
(505,-5,o),
(455,-13,o),
(399,-13,cs)
);
}
);
};
hints = (
{
horizontal = 1;
origin = (0,25);
target = (0,6);
type = Stem;
},
{
horizontal = 1;
origin = (0,19);
target = (0,12);
type = Stem;
},
{
origin = (0,22);
target = (0,9);
type = Stem;
}
);
layerId = "1B5AC656-48C3-4864-953F-2CD31E7BA751";
shapes = (
{
closed = 1;
nodes = (
(455,-13,o),
(505,-5,o),
(552,20,c),
(563,181,l),
(518,143,o),
(465,129,o),
(401,129,cs),
(262,129,o),
(175,227,o),
(175,359,cs),
(175,488,o),
(256,591,o),
(399,591,cs),
(463,591,o),
(518,571,o),
(562,526,c),
(562,692,l),
(521,719,o),
(462,733,o),
(399,733,cs),
(177,733,o),
(26,565,o),
(26,359,cs),
(26,153,o),
(185,-13,o),
(399,-13,cs)
);
}
);
width = 569;
},
{
anchors = (
{
name = bottom;
pos = (393,0);
},
{
name = cedilla;
pos = (393,0);
},
{
name = ogonek;
pos = (505,0);
},
{
name = top;
pos = (383,720);
}
);
hints = (
{
horizontal = 1;
origin = (0,25);
target = (0,6);
type = Stem;
},
{
horizontal = 1;
origin = (0,19);
target = (0,12);
type = Stem;
},
{
origin = (0,22);
target = (0,9);
type = Stem;
}
);
layerId = "F32A93D6-BEB9-4F11-B510-2860D42C0CD2";
shapes = (
{
closed = 1;
nodes = (
(454,-13,o),
(507,-2,o),
(553,20,c),
(559,128,l),
(517,93,o),
(466,75,o),
(397,75,cs),
(243,75,o),
(118,189,o),
(118,359,cs),
(118,525,o),
(233,645,o),
(394,645,cs),
(458,645,o),
(516,628,o),
(563,584,c),
(563,693,l),
(514,721,o),
(458,733,o),
(394,733,cs),
(174,733,o),
(26,572,o),
(26,359,cs),
(26,145,o),
(176,-13,o),
(394,-13,cs)
);
}
);
width = 569;
}
);
metricLeft = O;
metricRight = "=O-20";
},
